if (_typeface_js && _typeface_js.loadFace) _typeface_js.loadFace({"glyphs":{"0":{"ha":693,"x_min":46,"x_max":649,"o":"m 393 1008 q 469 974 428 1000 q 546 909 511 949 q 604 819 581 869 q 628 710 628 768 l 628 694 q 634 664 628 679 q 640 631 640 649 q 638 621 640 625 q 636 611 636 617 q 640 601 636 607 q 643 590 643 596 q 638 581 643 588 q 642 559 638 567 q 647 542 647 551 q 643 526 647 536 q 649 510 649 517 q 647 491 649 499 q 640 475 644 483 q 643 453 643 464 q 642 431 643 442 q 640 411 640 421 q 643 393 640 401 q 642 372 640 383 q 638 353 643 361 q 639 342 638 344 q 640 338 640 340 q 633 313 640 324 q 625 286 625 301 q 628 274 625 279 q 615 218 619 246 q 600 167 611 190 q 563 91 585 128 q 511 25 542 54 q 440 -22 481 -4 q 344 -39 399 -39 q 236 -11 288 -39 q 149 57 185 17 q 100 131 122 86 q 76 210 78 175 l 76 217 q 69 237 76 228 q 61 256 61 246 q 64 265 64 258 q 59 283 61 271 q 56 307 57 294 q 53 338 54 322 q 53 349 53 344 q 54 358 54 354 l 54 372 q 51 400 54 383 q 49 435 49 417 q 53 467 49 443 q 49 496 49 488 q 49 504 49 500 q 50 513 50 508 l 50 524 q 48 542 50 535 q 46 563 46 550 q 48 601 46 582 q 50 642 50 621 l 50 651 q 60 680 58 663 q 64 714 61 697 q 61 725 61 719 q 72 778 61 750 q 96 833 82 807 q 124 879 110 858 q 143 911 138 900 l 143 910 q 182 949 160 931 q 227 981 204 968 q 272 1002 250 994 q 308 1010 293 1010 q 324 1008 319 1010 q 349 1013 340 1013 q 368 1008 356 1013 l 393 1008 m 383 818 q 336 832 357 832 q 292 808 308 832 q 268 752 276 783 q 257 692 260 721 q 254 654 254 663 q 253 644 253 650 q 253 633 253 638 q 255 618 253 626 q 257 603 257 610 q 253 579 253 588 q 257 546 253 563 q 256 532 256 543 l 256 521 q 256 515 256 518 q 257 507 257 511 q 255 494 257 499 q 253 483 253 490 q 254 469 253 474 q 256 460 256 465 q 253 449 256 454 q 257 431 257 436 q 255 415 257 419 q 253 400 253 410 q 255 385 253 392 q 257 372 257 379 l 256 368 q 257 353 257 363 l 257 332 q 258 321 257 328 q 260 310 260 314 q 258 299 260 304 q 257 289 257 294 q 261 249 257 274 q 274 202 265 225 q 298 162 283 179 q 333 144 313 144 q 336 145 335 144 q 339 146 338 146 q 349 144 342 144 q 357 147 353 144 q 365 149 361 149 q 369 147 368 149 q 396 163 385 149 q 415 194 407 176 q 428 232 424 213 q 435 265 432 251 l 438 286 q 435 299 438 293 q 433 313 433 304 q 438 325 433 317 l 438 346 q 437 367 438 357 q 433 389 436 378 q 436 400 433 392 q 438 407 438 404 q 435 424 438 417 q 433 440 433 432 q 435 452 433 447 q 438 464 438 457 q 435 488 438 476 q 432 510 432 499 q 435 537 432 522 q 438 565 438 551 q 437 585 438 575 q 433 606 436 594 q 437 622 436 613 q 438 640 438 631 l 438 657 q 427 701 431 679 q 419 744 424 724 q 408 783 415 765 q 385 818 400 801 l 383 818 m 183 347 q 177 359 174 356 q 172 363 181 363 l 169 350 q 178 347 172 347 l 183 347 m 572 329 l 569 329 l 569 303 q 576 308 576 303 l 572 329 m 533 360 l 531 360 q 532 349 531 353 q 533 342 533 344 l 536 342 l 533 360 m 150 357 q 143 358 147 358 q 138 354 138 358 q 144 351 140 351 l 150 357 m 107 481 q 113 492 113 486 q 109 492 110 492 q 107 493 108 493 q 103 486 103 493 l 107 481 m 214 361 q 210 364 211 363 q 204 365 208 365 l 206 353 l 214 361 m 133 286 q 129 289 131 288 q 125 290 128 290 l 126 282 l 129 282 l 133 286 m 533 265 q 526 274 533 274 q 525 271 525 271 l 525 269 q 531 265 525 265 l 533 265 m 504 417 q 501 421 504 421 l 496 418 l 496 415 q 501 413 501 413 q 504 417 504 413 m 467 353 l 469 353 l 472 364 l 465 357 l 467 353 m 574 401 q 568 396 568 401 l 574 390 q 576 398 576 397 q 576 400 576 399 l 574 401 m 504 367 q 501 361 501 367 l 503 353 q 508 359 507 357 q 508 364 508 361 l 504 367 m 139 426 q 131 419 131 426 q 140 422 138 419 l 139 426 m 179 331 q 167 333 176 333 l 174 326 l 179 331 m 203 424 l 194 415 l 204 414 l 203 424 m 531 251 q 529 253 529 251 q 522 247 522 253 q 532 249 531 247 l 531 251 m 553 369 q 544 361 544 369 l 550 364 l 553 369 m 546 482 l 550 485 l 542 488 l 542 485 l 546 482 m 532 231 l 542 229 q 533 220 533 222 q 535 218 533 218 l 535 219 q 535 222 535 221 q 536 226 536 224 l 532 231 m 533 421 l 536 421 l 536 428 l 533 428 l 533 421 m 378 90 l 375 100 l 372 100 l 378 90 m 199 433 q 189 439 194 433 q 190 429 189 429 l 192 429 l 199 433 m 558 385 q 564 383 561 383 q 568 389 568 383 l 558 385 m 504 331 q 494 326 499 331 q 508 328 507 326 l 504 331 m 126 406 l 126 394 l 129 394 l 126 406 m 190 454 l 188 460 l 185 460 l 190 454 m 564 336 q 556 335 563 335 q 561 332 557 332 q 568 335 565 332 l 564 336 m 583 368 q 578 378 583 372 l 583 368 m 524 399 l 514 401 l 517 396 l 524 399 m 375 67 l 375 75 l 372 75 l 371 68 l 375 67 m 119 414 l 119 417 l 114 418 l 114 415 l 119 414 m 101 379 q 108 385 108 379 l 106 385 l 101 379 m 536 303 l 531 301 l 531 299 l 536 303 m 406 85 l 404 90 l 401 90 l 406 85 m 496 433 l 488 432 l 488 429 l 496 433 m 146 328 l 149 328 l 151 332 l 149 332 l 146 328 m 589 392 l 592 392 l 594 396 l 592 396 l 589 392 m 192 499 l 194 497 q 196 503 196 499 l 193 503 l 192 499 z "},"1":{"ha":644,"x_min":44,"x_max":600,"o":"m 174 993 q 194 997 186 997 q 225 989 206 997 l 246 993 q 265 998 256 996 q 286 1000 275 1000 q 316 998 301 1000 q 346 996 331 996 q 358 996 353 996 q 368 997 364 996 q 392 994 381 994 q 413 987 404 993 q 428 968 422 981 q 433 931 433 956 q 431 908 433 917 q 432 902 431 903 q 433 899 433 901 l 431 896 q 432 874 433 885 q 435 851 431 863 l 435 621 q 430 596 431 613 q 429 575 429 579 q 431 555 429 564 q 433 535 433 546 q 431 519 433 525 q 435 504 435 511 l 435 496 q 434 489 435 493 q 433 481 433 485 l 433 469 q 434 464 433 467 q 435 458 435 461 q 432 431 435 443 q 429 404 429 418 q 432 371 429 386 q 435 342 435 356 l 435 317 q 431 293 435 306 q 432 279 431 283 q 433 269 433 275 q 432 247 433 258 q 431 225 431 235 q 434 190 431 207 q 458 172 438 172 l 476 172 q 492 169 486 172 q 511 174 504 174 q 531 171 522 174 q 551 168 540 168 q 558 169 556 168 q 563 169 560 169 q 588 152 578 169 q 600 122 597 135 q 596 99 596 110 q 597 86 596 89 q 596 78 596 83 q 596 71 596 74 l 596 53 q 597 44 596 49 q 597 36 597 40 q 583 3 597 13 q 550 -7 568 -7 l 532 -7 q 520 -5 526 -7 q 507 -3 514 -3 q 490 -5 496 -3 q 476 -7 483 -7 q 464 -3 468 -7 q 442 -4 453 -6 q 419 -7 431 -3 q 363 -4 390 -3 q 313 -3 336 -6 q 293 -7 304 -7 q 257 -3 279 -7 q 249 -7 253 -7 l 240 -7 q 237 -6 238 -7 q 233 -6 236 -6 q 224 -7 225 -6 q 214 -6 219 -6 q 201 -6 208 -6 q 179 -7 183 -6 q 156 -3 172 -3 q 132 -5 144 -3 q 114 -7 119 -7 q 69 15 78 -4 q 61 57 61 33 l 61 76 l 61 92 q 66 135 61 115 q 92 174 71 154 q 110 172 96 172 l 128 172 q 137 173 132 172 q 147 174 142 174 q 169 172 165 174 q 183 174 172 174 l 203 174 q 232 211 232 174 q 231 217 232 214 q 228 224 229 221 l 235 244 q 233 258 235 250 q 232 274 232 267 q 235 289 232 281 q 231 331 232 310 q 231 372 231 351 q 233 398 231 385 q 236 424 236 411 q 233 439 236 431 q 231 456 231 447 l 231 465 q 231 470 231 468 q 232 475 232 472 l 232 492 q 231 500 232 496 q 231 510 231 504 q 236 535 231 524 q 232 553 232 544 l 232 603 q 232 618 232 611 q 231 629 232 625 q 232 643 232 635 q 232 661 232 651 l 232 676 q 232 685 232 679 q 231 694 232 690 q 233 747 235 719 q 235 801 232 774 q 223 817 232 814 q 206 821 214 821 q 181 817 193 821 q 158 814 169 814 q 131 819 143 814 q 125 821 118 824 q 105 817 113 821 q 86 814 97 814 q 62 825 71 814 q 46 847 53 836 q 47 860 46 853 q 49 875 49 868 q 47 903 49 888 q 44 931 44 918 q 53 970 44 956 q 72 997 61 985 q 123 997 92 997 q 174 993 154 996 m 369 196 q 365 197 368 197 q 360 197 363 197 q 356 196 358 196 l 356 189 q 361 182 358 183 q 365 181 364 181 l 369 196 m 346 96 q 354 92 354 93 q 353 88 354 89 q 353 85 353 86 q 357 81 353 81 q 365 86 365 81 q 360 92 365 92 q 354 104 354 92 l 346 96 m 311 129 q 303 139 311 139 q 296 126 296 132 q 299 121 299 125 l 311 129 m 338 113 q 339 118 339 114 q 334 122 339 121 q 329 132 329 122 q 320 126 322 125 q 315 124 318 126 q 318 120 317 121 q 319 118 319 119 l 328 118 q 335 114 335 118 l 338 113 m 340 100 q 337 104 338 103 q 333 113 336 106 q 325 106 329 106 l 332 93 q 339 96 336 93 q 342 97 340 97 l 340 100 m 322 153 q 317 156 319 156 q 307 147 307 156 q 310 140 307 143 q 317 147 313 147 q 322 151 322 146 l 322 153 m 378 124 q 370 126 371 124 q 363 129 369 129 l 363 117 l 375 117 l 378 124 m 301 115 q 297 124 301 124 l 288 124 q 292 113 288 117 q 301 115 301 113 m 279 153 l 274 165 l 268 160 q 266 159 267 158 q 265 153 265 160 l 279 153 m 319 89 q 310 100 310 89 q 303 94 303 100 q 309 85 310 88 q 314 82 308 82 q 319 85 317 82 l 319 89 m 361 222 q 358 228 357 225 q 351 231 358 231 q 350 221 350 229 q 351 217 351 219 q 361 221 361 217 l 361 222 m 318 117 q 311 112 315 111 q 307 106 307 113 q 311 101 307 101 l 318 108 l 318 117 m 408 113 q 394 111 396 113 q 400 103 394 103 q 407 106 406 106 l 408 113 m 258 97 q 251 99 254 99 q 247 94 247 99 q 250 89 247 89 q 253 90 253 89 q 257 90 254 90 l 258 97 m 393 121 l 393 126 q 391 129 393 129 q 386 132 389 129 l 383 132 q 382 129 383 129 q 383 121 382 122 l 393 121 m 299 100 q 293 101 297 101 l 288 107 q 283 100 288 100 q 286 90 283 90 q 292 94 290 90 q 297 97 294 97 l 299 100 m 432 51 l 432 54 q 431 61 429 54 q 424 68 433 68 l 424 51 l 432 51 m 339 139 q 333 143 336 143 q 328 138 328 143 q 331 129 331 135 q 339 139 339 135 m 268 121 q 263 125 268 125 q 256 119 256 125 l 257 110 l 268 121 m 381 107 q 375 97 375 101 q 382 94 381 94 q 386 101 386 94 l 381 107 m 364 493 q 356 488 356 493 q 363 482 356 482 q 365 492 365 485 l 364 493 m 282 196 q 276 190 276 196 q 282 185 276 185 q 286 192 286 185 l 282 196 m 338 67 q 335 73 338 74 q 329 78 332 72 q 326 69 326 75 l 338 67 m 388 286 q 383 289 385 288 q 378 290 382 290 q 375 285 375 285 q 382 281 375 281 l 388 286 m 258 64 q 251 69 258 69 q 253 58 251 60 q 257 57 254 57 q 260 63 260 57 l 258 64 m 301 224 q 298 223 299 224 q 296 222 297 222 l 294 222 l 289 221 q 299 215 289 215 q 301 221 301 218 l 301 224 m 247 74 q 243 81 247 81 l 235 75 q 243 71 240 71 q 246 74 246 71 l 247 74 m 338 392 q 333 401 338 401 l 328 399 l 331 393 l 338 392 m 425 88 q 417 82 422 88 q 421 81 419 81 l 425 81 q 429 86 429 81 l 425 88 m 401 57 q 397 65 401 65 q 392 57 392 65 l 401 57 m 343 353 q 339 344 339 353 q 346 343 340 343 q 347 350 347 344 l 343 353 m 242 125 q 236 118 236 125 q 243 117 238 117 q 246 122 246 119 l 242 125 m 339 275 l 335 279 q 331 272 331 279 l 338 265 l 339 275 m 242 99 q 229 106 235 106 l 222 99 l 242 99 m 347 47 q 345 56 347 54 q 340 60 343 57 l 339 47 q 344 46 340 46 l 347 47 m 374 417 q 361 421 374 421 q 371 415 367 415 q 374 417 374 415 m 315 211 q 308 200 308 204 q 311 199 310 199 l 313 197 q 315 203 315 197 l 315 211 m 371 268 q 363 260 363 268 q 371 265 371 260 l 371 268 m 353 138 q 353 140 353 139 q 354 142 354 140 q 350 143 354 143 l 342 133 l 351 133 l 353 138 m 313 322 q 303 328 308 322 l 300 317 l 313 322 m 304 360 l 296 351 l 306 354 l 304 360 m 406 139 l 396 136 q 406 131 401 131 l 406 139 m 449 135 q 442 139 449 139 q 447 131 442 131 l 449 135 m 464 124 l 447 124 l 456 115 l 464 124 m 217 92 l 225 83 q 228 92 228 86 l 217 92 m 275 142 q 272 142 272 142 q 269 143 271 143 q 265 138 265 143 l 275 142 m 338 203 q 335 203 336 203 q 333 204 335 204 q 331 197 331 204 l 338 203 m 308 449 l 311 442 q 315 447 315 442 l 308 449 m 281 61 l 283 49 q 288 60 288 53 l 281 61 m 392 167 q 386 169 386 169 q 383 164 383 169 l 392 167 m 222 121 l 219 128 q 215 122 215 128 l 222 121 m 408 208 l 401 207 q 407 201 401 201 l 408 208 m 467 64 l 458 72 l 458 61 l 467 64 m 313 408 l 311 400 q 318 407 318 401 l 313 408 m 301 63 q 299 54 299 60 l 310 54 l 301 63 m 299 157 q 290 160 296 160 q 297 153 293 153 q 299 156 299 154 l 299 157 m 219 67 q 210 72 213 72 q 204 68 208 72 l 219 67 m 351 119 l 354 110 q 358 118 358 114 l 351 119 m 397 163 l 390 153 l 392 150 q 397 156 397 151 l 397 163 m 382 142 l 381 144 q 376 140 376 142 q 381 135 376 136 l 382 142 m 299 294 l 290 292 l 290 289 l 296 289 l 299 294 m 332 364 l 332 367 l 328 369 l 328 367 l 332 364 m 344 215 q 335 221 340 215 l 336 211 l 344 215 m 344 176 l 336 179 q 342 175 340 175 l 342 172 l 346 174 l 344 176 m 386 67 q 381 72 386 72 l 381 69 l 386 67 m 286 351 l 286 354 l 282 357 l 282 354 l 286 351 m 347 257 l 344 257 l 343 253 l 346 253 l 347 257 m 328 419 l 328 422 l 324 421 l 324 418 l 328 419 z "},"2":{"ha":694,"x_min":46,"x_max":651,"o":"m 431 1000 q 495 978 463 1000 q 556 924 528 956 q 603 860 583 893 q 629 803 622 826 q 628 793 628 801 q 635 759 628 778 q 643 717 643 740 q 641 683 643 703 q 635 644 639 664 q 626 606 631 624 q 615 581 621 589 q 588 510 615 547 q 524 437 561 474 q 446 366 486 400 q 379 306 406 332 q 356 279 369 292 q 328 255 342 267 q 306 230 315 243 q 296 201 296 217 q 299 193 299 199 l 299 182 q 329 193 313 193 q 342 192 336 193 q 351 192 347 192 l 369 192 q 381 183 372 192 q 392 189 382 189 l 400 189 q 414 193 410 189 l 451 193 q 475 191 464 193 q 496 189 486 189 q 511 193 503 189 q 515 192 514 193 q 518 192 515 192 l 526 192 q 536 193 535 192 q 551 191 543 193 q 569 189 560 189 q 590 191 581 189 q 610 193 599 193 q 637 183 625 193 q 649 156 649 172 q 648 147 649 151 q 647 139 647 143 l 647 124 q 649 114 647 118 q 651 104 651 110 q 649 93 651 101 l 644 76 q 647 67 644 69 q 644 58 644 64 q 647 40 644 47 q 649 25 649 33 q 633 2 649 10 q 603 -6 617 -6 q 581 -3 592 -6 q 558 -1 569 -1 q 544 -3 551 -1 q 531 -7 538 -4 q 520 -6 526 -6 q 507 -6 514 -6 q 487 -8 496 -6 q 467 -10 478 -10 q 450 -3 457 -10 q 413 -5 431 -3 q 376 -7 396 -7 q 352 -3 365 -4 q 326 -3 339 -3 l 276 -3 q 258 -5 265 -3 q 239 -7 250 -7 q 222 -3 228 -7 q 197 -7 211 -7 l 150 -7 q 128 -3 138 -7 q 108 -5 118 -3 q 88 -7 97 -7 q 59 6 68 -7 q 50 35 50 19 q 68 159 50 103 q 115 263 86 215 q 183 354 144 311 q 263 440 221 397 q 292 480 272 461 q 333 519 311 499 q 376 562 356 539 q 408 614 396 585 l 408 613 q 432 656 424 628 q 440 704 440 685 q 430 739 432 718 q 422 780 428 760 q 403 815 417 800 q 360 829 389 829 q 350 828 354 829 q 342 826 346 826 q 329 828 335 826 q 317 829 324 829 q 259 803 279 829 q 227 747 239 778 q 208 690 215 715 q 189 664 201 664 q 157 674 172 664 q 126 697 142 683 q 95 723 111 710 q 60 743 79 736 l 61 743 q 46 774 46 758 q 56 813 46 790 q 81 857 67 835 q 110 897 96 879 q 132 922 124 914 q 168 958 147 942 q 210 985 189 974 q 252 1003 232 997 q 286 1010 272 1010 q 291 1009 289 1010 q 296 1008 293 1008 l 306 1008 q 332 1010 319 1008 q 360 1013 344 1013 q 388 1009 369 1013 q 417 1000 407 1006 l 431 1000 m 243 122 q 242 130 243 128 q 239 135 240 132 l 228 124 q 232 121 228 121 l 233 106 q 240 111 240 106 l 239 118 q 242 121 239 121 l 243 122 m 278 101 l 264 101 l 265 89 q 279 90 278 89 l 278 101 m 342 89 q 337 92 339 90 q 328 96 335 93 l 322 99 q 333 85 326 85 q 342 86 340 85 l 342 89 m 297 153 l 299 158 q 293 169 299 164 q 288 153 288 164 l 297 153 m 450 60 q 443 71 450 64 l 442 54 q 457 51 444 51 l 450 60 m 264 118 q 261 128 264 128 q 253 124 257 128 q 256 117 253 117 l 264 118 m 294 124 l 285 125 q 277 122 278 125 q 276 117 276 118 l 276 113 l 294 124 m 222 124 q 218 132 222 128 l 208 132 q 212 125 211 126 q 213 121 213 124 q 222 122 221 121 l 222 124 m 168 157 q 158 167 168 167 l 158 154 l 168 157 m 229 171 q 226 167 229 165 q 224 158 224 168 l 231 151 l 232 160 q 234 164 232 165 q 236 169 236 163 l 229 171 m 322 118 q 317 124 322 124 q 311 119 311 124 q 313 113 311 114 q 322 118 322 113 m 156 53 q 149 68 156 61 l 146 58 q 154 51 146 51 l 156 53 m 219 226 q 211 231 215 231 q 208 221 208 231 q 213 219 210 219 q 219 225 217 219 l 219 226 m 267 78 q 261 81 264 81 l 256 78 q 261 69 256 69 q 267 76 267 69 l 267 78 m 383 89 q 379 90 381 89 q 376 92 378 92 q 372 86 372 92 q 379 81 372 81 q 383 86 381 83 l 383 89 m 229 189 q 222 192 226 192 q 210 185 217 192 q 221 182 218 185 l 229 189 m 203 100 q 192 104 203 104 l 192 94 q 203 97 200 94 l 203 100 m 449 88 q 443 89 447 89 q 439 78 439 89 q 449 86 449 81 l 449 88 m 258 99 l 258 111 q 247 97 247 104 l 258 99 m 200 156 q 194 167 194 161 l 188 160 q 193 149 188 154 l 200 156 m 183 122 q 174 125 183 125 q 183 114 174 117 l 183 122 m 279 63 q 272 69 279 69 q 271 64 271 68 q 272 59 272 61 q 278 57 272 57 l 279 63 m 250 88 q 246 93 250 93 l 239 92 q 247 85 244 85 q 250 86 249 85 l 250 88 m 190 68 q 181 69 189 69 q 185 58 181 58 l 189 63 l 190 68 m 324 138 q 317 133 319 133 q 321 126 317 126 q 327 127 325 128 q 329 133 329 126 l 324 138 m 172 140 l 165 147 l 165 128 l 172 140 m 357 101 l 357 100 l 354 106 q 347 101 347 106 q 350 96 350 96 q 351 94 350 94 q 358 97 356 94 l 357 101 m 338 153 q 325 146 332 153 l 336 146 q 342 151 342 146 l 338 153 m 204 150 q 214 156 211 150 l 214 154 q 215 157 215 156 q 217 158 215 158 l 215 161 l 204 150 m 235 93 q 233 99 235 96 q 231 106 232 103 l 225 100 q 228 93 225 96 l 235 93 m 340 113 q 328 108 332 113 l 329 106 q 337 107 332 107 q 342 111 342 107 l 340 113 m 243 175 q 231 168 238 175 q 246 171 246 168 l 243 175 m 310 101 l 304 100 l 304 88 q 314 100 314 97 l 310 101 m 353 125 q 346 128 350 128 l 342 125 l 342 122 q 349 121 344 121 q 353 122 351 121 l 353 125 m 481 124 q 471 118 471 124 q 479 117 472 117 l 481 124 m 236 69 q 229 72 233 72 l 225 69 l 225 67 l 232 65 l 236 69 m 396 121 q 390 122 392 121 l 383 121 q 389 117 383 117 q 397 118 396 117 l 396 121 m 364 58 q 360 51 360 54 q 364 44 360 46 q 367 53 367 47 l 364 58 m 214 188 q 206 181 206 188 q 215 186 215 181 l 214 188 m 421 60 q 415 65 421 65 l 414 57 q 421 60 421 57 m 463 144 l 461 135 q 472 131 461 131 l 463 144 m 194 169 l 194 182 l 185 172 l 194 169 m 306 60 q 300 51 300 60 q 307 58 307 54 l 306 60 m 151 81 l 151 94 q 144 85 144 90 q 146 82 144 82 l 151 81 m 354 71 q 347 74 354 74 q 351 67 347 67 l 354 71 m 551 106 q 546 99 546 106 q 553 103 553 99 l 551 106 m 254 268 q 251 261 251 268 q 258 265 258 261 l 254 268 m 535 67 q 526 72 529 72 l 526 69 l 535 67 m 360 114 l 357 119 l 354 119 q 357 113 354 113 l 360 114 m 288 133 l 297 143 l 288 144 l 288 133 m 485 64 q 481 68 485 68 l 479 63 l 485 64 m 538 92 l 540 82 q 544 90 544 86 l 538 92 m 186 154 l 179 161 l 176 158 l 186 154 m 326 60 q 318 61 325 61 q 322 56 319 56 q 324 56 324 56 q 325 57 324 57 l 326 60 m 268 194 l 265 194 q 264 189 264 192 q 268 188 264 188 l 268 194 m 168 174 q 163 179 168 179 l 163 176 l 168 174 m 406 97 l 404 103 l 401 103 l 401 97 l 406 97 m 211 42 q 218 47 218 42 l 215 47 l 211 42 m 368 138 l 371 132 l 374 132 l 371 139 l 368 138 z "},"3":{"ha":706,"x_min":46,"x_max":661,"o":"m 188 535 l 185 538 l 185 535 l 188 535 m 417 1008 q 435 1002 428 1008 q 453 996 443 996 q 464 997 463 996 q 522 969 494 990 q 569 919 549 947 q 601 860 589 892 q 613 800 613 828 q 585 685 613 733 q 497 592 557 636 q 494 586 494 589 l 497 586 q 506 576 497 585 q 565 550 540 569 q 608 506 590 531 q 637 454 626 481 q 653 407 647 428 q 652 403 653 404 q 651 401 651 403 q 658 372 654 386 q 661 346 661 358 q 655 313 653 329 q 647 282 657 297 q 613 158 647 211 q 534 71 578 106 q 452 19 490 36 q 407 1 414 1 q 332 -24 368 -17 l 318 -24 q 291 -28 303 -24 q 265 -33 279 -33 q 253 -31 258 -33 q 233 -37 246 -35 q 208 -40 221 -39 q 186 -41 196 -40 q 175 -42 176 -42 q 116 -40 140 -42 q 76 -28 92 -37 q 53 3 60 -18 q 46 63 46 24 l 46 78 q 47 93 46 88 q 47 101 47 97 q 46 111 46 106 q 60 148 46 139 q 88 157 75 157 q 108 155 99 157 q 128 153 117 153 q 136 153 132 153 q 143 154 140 153 q 167 150 157 150 q 174 151 169 150 q 183 154 179 153 q 190 153 186 153 q 199 153 194 153 q 206 153 201 153 q 214 154 211 153 q 222 153 217 153 q 231 153 226 153 q 291 165 256 153 q 360 197 326 176 q 419 242 393 217 q 451 296 444 268 q 454 310 454 303 q 461 324 454 317 q 440 399 456 368 q 385 438 425 429 l 364 442 q 308 426 338 436 q 254 417 278 417 q 225 434 238 417 q 204 473 213 451 q 192 513 196 494 q 188 535 188 532 q 204 563 188 549 q 246 594 221 578 q 300 627 271 610 q 354 665 329 644 q 396 708 379 685 q 413 757 413 731 q 411 764 413 761 q 410 769 410 767 q 413 781 413 775 q 404 803 413 793 q 383 822 396 814 q 356 833 371 829 q 329 838 342 838 q 301 833 318 838 q 266 821 283 829 q 232 801 249 813 q 206 774 215 789 q 181 746 194 763 q 151 729 167 729 q 129 740 140 729 q 106 766 118 750 q 85 799 94 782 q 69 829 75 817 q 66 837 68 832 q 61 844 64 842 l 61 858 q 108 914 81 890 q 167 957 136 938 l 165 957 q 198 971 183 963 q 228 988 213 979 q 261 1002 243 996 q 306 1008 279 1008 l 321 1008 q 357 1014 333 1014 l 396 1014 q 406 1011 401 1011 q 415 1008 411 1011 l 417 1008 m 547 307 q 542 310 544 310 q 540 309 540 310 q 538 308 539 308 l 536 308 l 528 307 q 535 301 533 301 q 539 300 536 300 q 547 304 543 300 l 547 307 m 371 492 q 364 485 364 492 q 368 483 365 483 q 371 488 371 483 l 371 492 m 267 64 l 261 69 q 258 61 258 61 q 263 58 258 58 l 267 64 m 343 100 l 339 100 q 336 97 336 100 q 342 94 339 94 l 343 100 m 304 100 l 293 97 l 293 94 l 304 100 m 315 58 l 307 67 l 307 54 l 315 58 m 235 35 q 229 40 235 40 l 229 38 l 235 35 m 256 92 l 258 92 l 263 101 l 256 100 l 256 92 m 239 106 q 236 99 236 106 q 243 103 243 99 l 239 106 m 251 76 q 244 78 250 78 q 249 71 246 71 l 251 74 l 251 76 m 294 56 q 290 60 294 60 q 288 53 288 60 l 290 53 q 293 54 290 54 l 294 56 m 225 67 q 217 72 219 72 l 217 69 l 225 67 m 371 119 q 375 118 372 118 q 381 124 381 118 l 371 119 m 528 390 q 526 388 526 388 q 525 386 526 386 l 524 386 l 524 383 l 528 382 l 528 390 m 529 340 l 522 333 l 525 331 l 526 332 l 529 340 m 228 92 l 229 83 q 235 90 235 86 l 228 92 m 342 67 l 339 72 l 336 72 l 335 68 l 342 67 m 175 64 q 171 68 175 68 l 169 63 l 175 64 m 561 261 l 560 267 l 557 267 l 554 263 l 561 261 m 510 369 l 513 360 q 517 368 517 364 l 510 369 m 347 54 l 350 44 q 354 53 354 49 l 347 54 m 507 185 l 507 188 l 503 190 l 503 188 l 507 185 m 489 221 q 500 226 500 221 l 489 221 m 143 57 q 135 61 139 61 l 135 58 l 143 57 m 550 329 l 553 326 q 556 332 556 329 l 553 332 l 550 329 m 517 263 l 519 263 l 521 267 l 518 267 l 517 263 z "},"4":{"ha":706,"x_min":44,"x_max":660,"o":"m 528 997 q 560 990 549 997 q 577 972 571 983 q 585 947 583 961 q 586 919 586 933 q 582 894 586 911 q 585 883 585 889 q 583 874 585 879 q 582 863 582 868 q 584 835 582 849 q 586 811 586 821 q 583 785 586 797 q 581 761 581 774 q 583 736 581 749 q 585 713 585 724 q 582 703 583 708 q 581 694 581 697 q 583 678 581 685 q 585 661 585 672 q 582 646 585 651 l 582 617 q 585 603 582 608 q 583 586 585 594 q 581 571 581 578 q 582 560 581 563 l 582 472 q 584 453 585 463 q 585 435 583 443 q 594 423 588 428 q 621 418 601 418 l 629 418 q 654 401 649 418 q 660 372 660 383 q 658 349 660 361 q 657 324 657 336 q 660 304 657 313 q 651 260 658 281 q 617 239 643 239 l 607 239 q 588 237 596 239 q 581 222 581 235 q 582 213 581 214 l 582 207 q 583 193 582 200 q 585 179 585 186 q 583 170 585 174 q 582 160 582 167 q 583 138 582 149 q 585 118 585 128 q 582 96 585 104 q 583 79 582 88 q 585 64 585 71 q 582 43 585 51 q 584 32 582 38 q 586 24 586 26 q 572 1 586 8 q 547 -6 558 -6 q 537 -4 542 -6 q 526 -3 532 -3 q 478 -8 503 -6 q 435 -10 453 -10 q 401 3 417 -10 q 385 32 385 15 l 385 54 q 390 75 390 63 q 388 94 390 86 q 385 114 385 101 q 390 133 385 124 q 388 165 390 153 q 385 197 385 178 q 386 218 385 213 q 382 232 385 225 q 368 239 379 239 q 347 238 357 239 q 328 236 338 236 q 312 238 319 236 q 297 240 304 240 q 290 240 293 240 q 285 239 288 239 l 274 239 q 267 240 268 239 q 253 239 261 239 q 235 239 246 239 l 199 239 q 169 236 183 239 l 110 236 q 88 238 99 236 q 67 246 76 240 q 51 262 57 251 q 46 290 46 272 q 54 313 46 304 q 49 336 54 326 q 44 360 44 346 q 50 378 44 368 q 48 400 50 388 q 46 424 46 413 q 53 460 46 444 q 68 490 60 476 q 85 517 76 504 q 96 546 93 531 q 115 582 110 563 q 129 618 121 601 l 129 624 q 158 677 143 649 q 186 733 172 706 q 214 784 200 761 q 243 822 228 807 q 256 854 254 833 q 274 892 258 875 q 292 926 276 907 q 315 971 308 944 q 349 994 326 994 q 354 994 351 994 q 360 993 357 993 q 393 997 378 993 l 400 997 q 414 999 408 997 q 431 1000 419 1000 q 453 998 439 1000 q 479 996 468 996 l 499 996 q 508 996 501 996 q 518 997 514 996 l 528 997 m 382 733 q 381 738 381 735 q 383 742 381 740 q 385 751 385 744 q 379 763 385 757 q 353 726 363 744 q 337 691 344 708 q 320 656 329 674 q 296 622 311 639 q 283 588 296 601 q 264 550 269 574 l 264 551 q 243 522 254 540 q 223 485 232 504 q 208 451 214 467 q 201 431 201 436 q 221 419 206 419 l 244 419 q 258 424 253 424 q 277 422 269 424 q 297 419 285 419 l 354 419 q 361 424 358 424 l 369 424 q 379 428 374 424 q 385 438 385 432 q 382 442 382 439 q 385 453 385 447 q 383 462 385 457 q 382 471 382 467 q 385 475 382 472 q 383 509 385 496 q 382 539 382 522 q 383 558 382 550 q 385 578 385 565 q 383 603 385 589 q 381 631 381 617 q 385 658 381 642 q 382 685 382 669 l 382 733 m 511 331 l 503 350 q 495 335 496 333 q 494 332 494 336 q 497 328 494 328 l 511 331 m 529 306 q 523 307 522 306 q 518 315 524 308 l 513 310 q 508 309 511 310 q 500 304 504 308 l 518 303 q 522 299 519 303 l 528 300 l 529 306 m 418 349 q 414 354 413 349 q 406 367 415 360 l 403 351 q 410 349 408 349 l 414 344 l 418 349 m 449 328 q 445 335 449 335 q 439 335 442 335 l 433 335 l 433 329 q 431 324 433 326 l 433 321 q 447 326 439 326 l 449 328 m 479 339 q 478 343 476 339 q 472 347 479 347 q 467 342 467 347 q 471 335 467 339 q 481 336 479 335 l 479 339 m 476 271 q 474 272 475 272 q 472 274 474 272 q 471 275 471 274 l 465 274 q 466 266 465 269 q 467 260 467 263 q 476 269 476 263 l 476 271 m 519 264 l 515 268 q 511 269 514 269 q 506 261 506 269 q 515 260 510 260 q 519 261 518 260 l 519 264 m 519 401 q 508 404 517 404 q 506 399 506 399 q 511 394 506 394 q 519 400 519 394 l 519 401 m 478 225 q 467 231 478 231 l 467 219 q 478 225 478 219 m 446 276 q 438 282 446 282 q 434 274 435 275 q 433 271 433 274 q 438 268 433 268 l 446 276 m 533 332 q 526 335 533 335 l 519 328 q 528 325 525 325 q 533 332 533 325 m 476 303 q 467 306 474 306 l 465 300 q 466 297 465 299 q 467 292 467 294 q 473 296 474 292 q 475 300 472 300 l 476 303 m 478 424 q 469 429 478 429 q 468 426 468 426 l 468 425 q 476 418 468 419 q 478 424 478 419 m 540 356 q 531 369 540 360 l 531 351 q 539 354 536 351 l 540 356 m 511 246 q 509 247 510 246 q 507 247 508 247 q 497 242 503 247 q 503 238 499 239 q 511 238 507 238 l 511 246 m 417 329 q 407 335 413 335 l 406 324 q 417 328 417 324 l 417 329 m 499 268 l 497 276 l 488 267 l 488 264 l 488 263 q 488 261 488 261 q 489 260 489 261 q 497 263 494 260 l 499 268 m 372 288 l 363 290 l 356 286 q 365 281 356 281 l 372 288 m 449 367 q 442 369 446 369 q 440 363 440 367 q 444 354 440 358 q 449 365 449 358 l 449 367 m 539 268 q 526 261 526 268 l 532 260 q 539 263 539 260 l 539 268 m 493 367 l 492 368 q 489 369 490 368 q 486 369 488 369 q 482 365 482 369 q 488 360 482 360 q 493 364 493 363 l 492 364 l 493 367 m 422 274 q 415 278 419 278 q 410 273 413 275 q 407 271 408 271 l 407 268 l 422 274 m 529 196 l 522 199 l 517 193 l 524 186 q 528 189 526 189 l 529 196 m 492 251 q 476 236 481 251 q 485 244 482 242 q 488 246 488 246 q 490 247 489 246 q 493 250 490 247 l 492 251 m 521 378 q 517 372 517 378 q 522 367 517 367 q 525 375 525 367 l 521 378 m 472 250 q 467 256 472 256 q 456 251 463 251 l 461 246 l 464 246 q 467 247 465 246 q 469 248 468 247 q 471 249 469 249 l 472 250 m 508 386 q 499 390 504 390 l 499 379 q 508 383 504 379 l 508 386 m 536 388 q 531 397 536 397 l 522 388 l 536 388 m 407 385 q 403 374 403 385 q 410 378 410 378 q 411 381 411 378 q 410 383 411 382 q 410 385 410 383 l 407 385 m 490 190 q 485 191 488 190 q 481 192 482 192 l 472 190 l 481 181 l 490 190 m 457 153 q 451 161 457 161 q 446 154 446 160 l 457 153 m 221 311 q 206 304 214 311 l 217 303 q 222 310 222 303 l 221 311 m 385 356 q 381 361 385 361 l 372 358 q 375 355 374 356 q 378 353 376 354 q 381 351 379 351 l 385 356 m 442 414 q 440 422 442 421 l 433 421 l 435 415 l 442 414 m 467 215 l 461 213 q 468 206 461 206 q 469 214 469 207 l 467 215 m 460 399 q 450 394 450 399 q 457 392 456 392 q 461 394 458 392 l 460 399 m 153 361 q 149 364 150 363 q 144 365 147 365 l 146 357 l 149 357 l 153 361 m 381 315 q 372 310 374 315 l 371 304 q 376 306 375 304 l 375 306 q 382 314 379 307 l 381 315 m 478 128 q 469 129 476 129 q 476 121 472 121 l 478 128 m 397 353 q 390 349 390 353 q 394 343 390 343 l 397 349 l 397 353 m 500 410 q 494 411 497 411 q 493 407 493 411 q 499 403 494 403 l 500 410 m 457 453 l 451 456 l 446 454 q 456 450 446 450 l 457 453 m 444 254 q 435 256 443 256 l 435 244 q 443 251 442 251 l 444 254 m 506 349 l 504 361 q 499 354 499 361 l 506 349 m 518 422 l 517 414 q 524 419 524 414 l 518 422 m 433 386 q 426 382 426 386 l 432 379 l 433 386 m 504 418 q 500 424 500 422 l 497 424 l 494 419 l 504 418 m 460 231 q 454 235 460 235 q 451 228 451 232 q 460 231 460 228 m 331 344 l 329 356 l 319 344 l 331 344 m 492 385 l 492 400 l 489 400 l 486 392 l 492 385 m 444 299 q 438 303 444 303 l 438 292 l 444 299 m 539 410 l 544 418 l 542 421 l 536 417 l 539 410 m 208 338 l 203 335 l 203 332 l 207 331 l 208 338 m 492 171 q 487 169 485 171 q 486 164 489 167 l 489 161 q 490 163 490 163 q 492 165 490 164 q 493 168 492 167 l 492 171 m 501 297 l 494 299 q 500 292 494 292 l 501 297 m 560 332 q 557 325 557 329 l 560 325 l 560 332 m 267 329 q 260 324 260 329 l 267 329 m 406 306 q 400 308 403 307 q 392 310 397 310 l 399 303 l 406 306 m 524 217 q 518 224 524 224 l 524 217 m 189 369 l 192 360 q 196 368 196 364 l 189 369 m 435 124 l 438 114 q 442 122 442 118 l 435 124 m 290 317 l 288 322 l 285 322 l 285 317 l 290 317 m 424 199 q 435 207 429 201 q 424 203 424 207 l 424 199 m 172 339 q 181 343 181 339 l 172 339 m 475 518 l 475 521 l 469 524 l 471 518 l 475 518 m 567 356 l 564 356 l 561 351 l 564 351 l 567 356 m 483 482 l 483 485 l 479 488 l 479 485 l 483 482 m 229 329 l 232 326 q 235 332 235 329 l 232 332 l 229 329 m 438 374 l 435 374 l 433 369 l 436 369 l 438 374 m 172 296 l 175 296 q 176 301 176 299 l 174 301 l 172 296 z "},"5":{"ha":704,"x_min":44,"x_max":660,"o":"m 254 996 q 267 997 261 996 q 276 997 272 997 l 286 997 q 301 996 299 997 q 328 997 307 997 l 353 997 q 366 997 360 997 q 379 996 372 996 q 393 996 386 996 q 404 997 400 996 q 412 996 407 996 q 421 996 417 996 q 429 997 425 996 q 438 997 433 997 l 449 997 q 467 993 451 997 q 481 996 472 996 l 500 996 q 508 996 504 996 q 515 997 513 996 q 524 996 518 996 q 535 996 529 996 l 560 996 q 592 973 583 996 q 601 926 601 950 q 596 900 601 913 q 601 871 601 889 q 601 851 601 863 q 597 828 600 839 q 587 810 593 818 q 569 803 581 803 q 560 806 564 803 q 551 808 556 808 q 542 807 547 808 q 531 806 538 806 l 490 806 q 465 803 476 806 q 444 801 454 801 q 427 803 435 801 q 411 806 419 806 q 395 803 403 806 q 376 801 388 801 q 360 806 372 801 q 349 801 351 801 q 337 803 342 801 q 329 806 332 806 q 319 803 324 806 q 310 801 315 801 l 297 801 q 291 802 294 801 q 285 803 288 803 q 269 800 275 803 q 261 783 264 797 q 264 768 264 775 q 262 749 264 757 q 260 733 260 742 q 261 724 260 726 q 260 713 260 721 l 260 700 q 258 686 260 693 q 256 672 256 679 q 264 653 256 658 l 297 661 q 321 668 308 665 q 349 671 333 671 q 365 668 357 671 q 383 671 374 671 q 427 665 404 671 q 472 651 450 660 q 512 631 493 642 q 546 610 531 619 q 589 565 569 594 q 624 511 608 536 q 626 508 625 510 q 628 506 626 507 l 628 507 q 638 480 633 496 q 647 447 643 464 q 653 417 651 431 q 656 397 656 403 q 653 383 656 389 q 657 372 656 378 q 660 361 658 365 q 656 347 657 353 q 651 325 651 336 q 653 310 651 315 q 656 296 656 304 q 649 269 656 285 q 643 235 643 253 l 643 231 q 632 206 636 219 q 624 178 628 192 q 615 153 621 165 q 597 133 608 142 q 580 101 592 115 q 553 76 568 88 q 524 53 539 64 q 497 32 510 42 q 447 -4 479 10 q 380 -25 414 -18 q 317 -35 346 -32 q 276 -37 288 -37 q 262 -36 269 -37 q 249 -35 254 -35 q 240 -36 244 -35 q 233 -37 236 -37 q 194 -31 211 -37 q 156 -24 176 -24 l 142 -24 q 115 -17 131 -19 q 83 -11 99 -15 q 56 1 67 -7 q 44 24 44 8 q 48 59 44 33 q 58 111 51 85 q 76 158 65 138 q 100 178 86 178 q 160 166 128 178 q 229 154 193 154 q 290 161 260 154 q 301 158 296 158 q 366 177 338 158 q 414 223 394 196 q 444 281 433 250 q 454 336 454 311 q 451 383 454 353 q 432 433 449 413 l 432 432 q 415 459 428 449 q 388 477 403 469 q 356 489 372 485 q 325 497 339 493 q 280 485 299 494 q 244 467 261 476 q 210 448 226 457 q 171 436 193 439 l 144 436 q 117 437 131 436 q 92 444 103 438 q 76 464 82 450 q 69 503 69 478 q 77 565 69 532 q 85 626 85 597 l 85 639 q 88 672 89 656 q 92 708 88 689 q 98 758 92 732 q 104 807 104 783 q 103 815 104 811 q 101 825 101 818 q 108 857 107 838 q 111 897 110 876 q 115 939 113 918 q 125 978 117 960 q 138 991 129 988 q 156 995 146 994 q 176 995 165 996 q 197 997 188 994 l 224 997 q 249 996 242 997 l 254 996 m 193 53 q 188 60 186 54 q 181 65 190 65 l 181 58 q 186 50 181 50 l 193 53 m 592 306 q 586 311 592 311 q 581 308 586 310 q 576 303 576 306 q 592 304 590 303 l 592 306 m 543 250 q 538 254 543 254 q 531 247 531 254 q 536 244 536 244 q 543 249 539 244 l 543 250 m 547 269 q 542 274 547 274 l 535 271 q 539 265 538 265 q 543 264 540 264 q 547 269 547 264 m 393 99 q 388 104 393 104 q 382 99 382 104 l 386 94 q 393 97 390 94 l 393 99 m 306 100 q 303 94 303 100 q 310 90 303 90 q 310 94 310 93 q 311 99 311 96 l 306 100 m 314 64 q 308 69 314 69 l 307 63 q 314 57 307 57 l 314 64 m 300 81 q 292 74 292 81 l 299 71 q 301 79 301 74 l 300 81 m 568 268 q 564 269 567 269 q 561 265 561 269 q 568 260 561 260 l 568 268 m 582 338 q 568 335 571 338 q 572 328 568 328 l 582 338 m 378 132 l 375 121 q 386 124 383 121 l 378 132 m 225 64 l 218 71 l 210 63 l 221 61 l 225 64 m 263 72 q 256 68 260 72 q 260 67 258 68 q 263 67 261 67 q 268 71 268 67 l 263 72 m 429 121 q 417 124 426 124 q 426 118 422 118 q 429 119 429 118 l 429 121 m 507 207 l 499 208 q 494 201 494 208 l 507 207 m 515 417 q 513 421 515 421 l 507 418 l 507 415 q 513 413 513 413 q 515 417 515 413 m 515 367 q 513 361 513 367 l 514 353 q 519 359 518 357 q 519 364 519 361 l 515 367 m 511 256 q 506 249 506 256 q 515 253 515 249 l 511 256 m 499 140 q 496 135 496 135 q 507 131 496 131 l 499 140 m 254 46 q 243 49 251 49 q 251 42 249 42 q 254 43 253 42 l 254 46 m 564 369 q 554 361 554 369 q 561 365 561 364 l 564 369 m 343 90 l 346 101 q 339 96 339 101 l 343 90 m 282 88 q 275 92 282 92 l 276 86 l 282 88 m 354 118 q 347 119 351 119 q 344 117 344 119 l 354 118 m 547 306 l 540 299 l 543 296 l 547 306 m 542 343 l 543 333 q 549 346 549 338 l 542 343 m 361 60 q 351 61 360 61 l 358 54 l 361 60 m 219 124 l 206 124 l 215 114 l 219 124 m 290 104 q 283 99 283 104 l 290 104 m 340 60 q 335 50 335 60 q 340 54 339 51 q 342 58 342 57 l 340 60 m 338 31 q 331 33 338 33 l 332 28 l 338 31 m 546 229 q 540 219 540 224 q 549 224 544 219 l 546 229 m 588 267 q 581 261 581 267 l 588 267 m 490 167 l 490 151 q 496 160 496 157 l 490 167 m 279 39 l 274 38 l 274 35 l 279 39 m 578 383 l 578 386 l 574 385 l 574 382 l 578 383 m 499 176 q 497 177 497 176 q 494 178 496 178 q 490 174 490 178 l 497 174 l 499 176 m 446 126 l 443 129 l 439 125 l 442 122 l 446 126 m 318 124 q 311 118 311 124 q 319 121 317 118 l 318 124 m 515 331 q 506 326 510 331 q 519 328 518 326 l 515 331 m 211 33 l 211 31 q 225 36 219 31 l 211 33 m 531 396 l 531 399 l 525 401 l 526 396 l 531 396 m 594 368 q 589 378 594 372 l 594 368 m 450 153 l 449 160 l 446 160 l 446 154 l 450 153 m 310 36 l 301 33 l 301 31 l 310 36 m 293 13 l 285 10 l 285 7 l 293 13 z "},"6":{"ha":704,"x_min":44,"x_max":657,"o":"m 417 1008 q 429 1007 424 1008 q 440 1006 435 1006 q 449 1007 443 1006 q 460 1010 454 1008 q 481 1006 471 1008 q 490 993 490 1003 q 474 956 490 971 q 443 915 458 940 l 443 917 q 422 895 431 907 q 407 871 414 883 q 392 846 400 858 q 374 822 385 833 q 344 767 361 796 q 311 710 326 738 q 285 657 296 682 q 275 614 275 632 q 276 601 275 604 q 292 603 279 601 q 319 608 304 606 q 347 615 333 611 q 365 624 361 619 l 393 624 q 483 603 440 624 q 559 549 525 582 q 615 477 593 517 q 646 400 638 438 q 651 379 649 386 q 647 357 647 367 q 651 343 647 347 q 649 335 649 338 q 653 312 649 326 q 657 282 657 297 q 653 268 657 274 l 653 246 q 628 142 653 197 q 572 40 604 86 q 526 5 550 19 q 479 -18 501 -10 q 439 -31 457 -26 q 413 -35 421 -35 q 392 -37 399 -37 l 350 -37 q 329 -35 343 -37 l 317 -35 q 227 -10 271 -35 q 148 48 183 14 q 91 118 113 82 q 69 178 69 154 l 61 211 q 57 228 58 219 q 53 246 56 238 l 53 256 q 48 274 51 256 q 44 301 44 293 q 47 312 44 308 q 50 324 50 315 q 48 345 50 333 q 46 368 46 357 q 52 476 46 426 q 69 569 58 525 q 93 655 79 614 q 124 738 107 696 q 128 755 124 747 q 136 769 132 763 l 136 768 q 149 806 146 782 q 160 829 154 817 q 174 854 167 842 q 181 874 176 864 q 194 894 186 883 q 217 937 206 917 q 242 973 229 957 q 269 999 254 989 q 301 1008 283 1008 l 329 1008 q 342 1008 336 1008 q 353 1010 349 1008 q 364 1008 356 1008 q 380 1010 372 1008 q 397 1013 388 1013 q 417 1008 404 1013 m 432 410 q 397 436 421 426 q 356 446 372 446 q 278 415 300 446 q 256 328 256 385 q 256 319 256 324 q 257 313 257 315 l 257 304 q 256 293 256 301 l 256 278 q 254 269 256 274 q 253 261 253 265 q 282 167 253 199 q 360 131 311 136 q 433 182 415 154 q 450 238 450 210 q 449 241 450 240 q 449 243 449 242 l 449 249 q 450 263 450 251 q 448 281 450 274 q 446 301 446 289 q 448 312 446 308 q 450 326 450 315 q 446 332 446 331 l 450 336 q 442 372 440 351 q 432 410 443 393 m 174 353 q 168 359 167 353 q 161 365 169 365 l 158 351 q 164 349 161 351 q 168 346 167 347 q 175 351 175 346 l 174 353 m 171 329 q 165 335 171 335 q 158 328 158 331 q 165 324 158 324 q 171 329 171 324 m 579 306 q 571 311 575 311 q 563 309 565 311 q 558 307 561 307 l 558 304 q 568 303 561 303 l 578 303 l 579 306 m 178 272 l 178 303 l 174 278 q 167 274 169 278 q 163 271 165 271 l 163 268 l 178 272 m 468 57 q 465 63 465 60 q 458 65 464 65 l 458 54 q 464 51 464 51 q 468 54 465 51 l 468 57 m 532 226 q 524 231 528 231 q 521 219 521 231 q 532 224 528 219 l 532 226 m 125 285 q 118 290 122 290 l 113 286 q 121 281 113 281 l 125 285 m 163 385 q 158 374 158 385 q 167 378 165 378 q 168 381 168 378 q 167 383 168 382 q 167 385 167 383 l 163 385 m 185 456 l 179 461 l 169 460 l 178 451 l 185 456 m 158 238 q 154 225 154 231 q 158 221 156 221 q 161 225 161 221 l 158 238 m 503 361 q 499 364 500 363 q 493 365 497 365 l 494 353 l 503 361 m 524 251 q 514 254 521 254 q 511 246 511 246 q 515 244 511 244 q 524 250 524 247 l 524 251 m 535 343 l 525 346 l 521 342 q 528 336 521 336 l 535 343 m 553 268 q 544 271 550 271 l 544 260 q 553 265 549 260 l 553 268 m 138 315 q 125 304 129 315 l 128 304 q 133 307 126 306 q 139 314 139 308 l 138 315 m 199 414 q 196 422 199 419 l 189 421 l 192 415 l 199 414 m 140 356 q 138 361 140 361 l 128 358 q 138 351 135 351 l 140 356 m 114 418 q 108 419 111 419 l 103 419 l 106 414 l 113 411 q 115 415 113 413 l 114 418 m 546 369 q 536 363 536 369 l 543 363 q 547 368 547 364 l 546 369 m 539 185 l 536 190 l 533 190 q 532 185 532 188 q 535 182 532 182 l 539 185 m 568 271 l 561 263 l 564 260 l 568 271 m 201 365 q 194 361 199 365 l 203 353 q 203 358 203 356 q 204 364 204 361 l 201 365 m 181 482 q 176 483 179 483 q 174 478 174 483 l 179 475 l 181 482 m 511 157 q 503 160 508 160 l 501 153 q 511 154 510 153 l 511 157 m 213 454 q 207 457 210 457 l 199 454 q 211 450 203 450 l 213 454 m 126 397 q 122 400 124 399 q 117 401 121 401 l 118 389 l 126 397 m 560 333 q 558 337 560 336 q 556 340 557 338 l 549 333 q 557 331 557 331 q 560 332 558 331 l 560 333 m 528 271 q 521 274 525 274 l 521 265 q 524 264 522 264 q 528 269 528 264 l 528 271 m 189 504 q 181 499 181 504 q 183 498 182 499 q 185 497 183 497 q 190 503 190 497 l 189 504 m 204 494 q 197 497 204 497 q 196 494 196 494 q 203 490 196 490 l 204 494 m 513 399 q 503 401 513 401 l 510 394 l 513 399 m 104 188 q 99 196 101 196 q 97 185 97 194 l 104 188 m 492 424 l 483 415 l 493 414 l 492 424 m 371 101 q 363 97 363 101 q 369 94 365 94 l 371 101 m 529 300 l 521 310 l 521 297 l 529 300 m 149 407 q 139 410 149 410 l 146 403 l 149 407 m 101 379 q 94 385 97 385 q 93 382 93 385 l 101 379 m 188 429 q 181 436 188 436 l 182 431 l 188 429 m 235 519 q 228 522 229 522 q 224 517 224 522 l 235 519 m 107 268 q 103 261 103 268 q 111 264 108 261 l 107 268 m 497 124 l 483 124 l 493 114 l 497 124 m 129 426 l 124 425 l 124 422 l 129 426 m 193 256 l 192 249 q 199 253 199 249 l 193 256 m 590 263 q 588 263 589 263 q 586 264 588 264 q 582 260 582 264 l 590 263 m 192 125 l 193 115 q 199 124 199 118 l 192 125 m 82 344 q 85 351 83 347 q 88 357 86 354 l 85 357 q 83 354 85 356 q 82 351 82 353 l 82 353 l 78 347 l 82 344 m 382 54 l 375 57 l 378 49 l 381 49 l 382 54 m 144 500 l 143 504 l 140 504 q 146 497 140 497 l 144 500 m 240 488 l 235 485 l 235 482 l 240 488 m 190 131 q 185 138 185 136 l 182 138 l 181 132 l 190 131 m 199 331 q 189 326 193 331 q 204 328 203 326 l 199 331 m 369 67 l 367 72 l 364 72 l 363 68 l 369 67 m 147 201 l 144 207 l 142 207 l 140 203 l 147 201 m 439 57 l 432 64 l 429 61 l 439 57 m 136 451 l 133 454 l 129 450 l 132 447 l 136 451 m 193 279 l 192 268 l 199 275 l 193 279 m 181 200 q 188 203 188 201 q 192 207 189 204 q 182 206 183 207 q 181 203 181 204 l 181 200 m 576 368 l 575 379 l 572 379 l 572 369 l 576 368 m 153 344 q 149 353 153 353 l 149 346 l 153 344 m 100 482 q 101 489 101 483 q 99 490 100 490 q 97 483 97 490 l 100 482 m 560 244 l 557 244 l 557 239 l 560 239 l 560 244 m 493 249 l 493 257 l 490 257 l 489 250 l 493 249 m 397 492 q 394 488 394 492 l 397 492 m 578 329 l 581 326 q 583 332 583 329 l 581 332 l 578 329 m 569 221 l 581 221 l 575 226 l 572 226 l 569 222 l 569 221 m 521 317 l 524 317 l 525 321 l 522 321 l 521 317 z "},"7":{"ha":678,"x_min":44,"x_max":633,"o":"m 167 997 q 170 999 169 997 q 174 1000 171 1000 q 181 999 178 1000 q 188 996 185 997 l 186 996 q 203 992 192 992 q 223 994 210 992 q 249 997 236 997 q 274 993 265 997 q 289 997 281 996 q 306 997 297 997 l 321 997 q 331 996 325 996 q 339 996 336 996 l 419 996 q 439 993 425 996 l 500 993 q 507 997 504 997 q 520 995 514 997 q 532 993 526 993 q 549 997 543 993 q 567 1000 554 1000 q 615 990 596 1000 q 633 956 633 981 q 631 934 633 944 q 629 914 629 924 q 632 903 629 906 q 621 851 631 878 q 600 802 611 825 q 578 763 589 779 q 565 742 568 746 q 549 703 556 721 q 537 669 542 686 q 529 638 532 651 l 518 621 q 503 579 504 603 q 480 525 488 556 q 467 465 472 494 q 455 407 461 435 q 436 361 449 379 q 433 351 433 356 q 435 344 433 346 q 409 240 418 296 q 379 139 400 185 q 374 90 379 115 q 360 43 369 64 q 337 8 351 22 q 304 -6 322 -6 q 278 -3 292 -6 q 257 -1 265 -1 q 228 -4 242 -1 q 199 -7 214 -7 q 185 -6 194 -7 q 165 -3 175 -6 q 148 3 156 -1 q 140 17 140 8 q 153 101 140 50 q 183 203 167 151 q 216 296 200 254 q 239 353 232 338 q 258 412 246 383 q 283 467 271 440 q 303 520 294 494 q 315 571 313 546 q 367 676 339 622 q 406 785 394 731 q 403 793 406 790 q 399 799 401 796 l 394 803 q 366 798 383 799 q 338 797 349 797 q 282 800 308 801 q 231 803 256 799 q 201 799 215 799 l 169 799 q 139 800 154 799 q 114 801 124 801 q 97 800 104 801 q 83 799 90 799 q 64 807 71 799 q 53 826 57 815 q 47 847 49 838 q 46 858 46 856 q 47 878 46 868 q 49 900 49 889 q 44 926 49 918 q 45 951 44 939 q 51 974 46 964 q 67 991 57 985 q 99 997 78 997 q 110 997 104 997 q 121 996 115 996 l 143 996 q 167 997 161 996 m 254 153 q 260 158 260 153 q 259 164 260 161 q 258 169 258 167 q 253 160 254 165 q 253 154 253 156 l 254 153 m 301 151 q 292 146 292 151 q 296 144 293 144 q 303 149 299 144 l 301 151 m 328 344 l 332 347 l 332 350 l 325 347 l 328 344 m 342 226 q 332 221 338 226 l 340 219 l 342 226 m 285 217 l 285 219 l 281 222 l 281 219 l 285 217 m 343 182 q 347 193 347 186 l 344 193 l 343 182 m 249 124 q 243 118 243 124 q 250 121 247 118 l 249 124 m 268 188 l 267 193 l 264 193 l 268 188 z "},"8":{"ha":700,"x_min":46,"x_max":656,"o":"m 417 1010 q 475 981 447 994 q 528 949 503 968 q 577 901 554 929 q 619 828 600 872 q 626 782 629 806 q 629 738 622 758 q 624 687 625 711 q 608 647 624 663 q 597 613 606 629 q 574 580 588 596 q 547 550 561 564 q 521 522 533 536 q 530 515 522 521 q 547 501 538 508 q 563 489 556 494 q 572 483 571 483 q 571 486 574 483 q 609 455 596 475 q 630 410 622 435 q 642 361 638 386 q 651 318 646 336 q 649 308 649 315 q 651 294 649 303 l 656 282 q 651 272 656 281 l 651 257 q 649 237 651 244 q 647 218 647 229 l 647 207 q 642 190 647 197 q 638 171 638 182 q 640 161 638 164 q 609 97 628 129 q 561 38 590 65 l 563 38 q 537 20 551 31 q 513 1 522 10 q 431 -26 478 -18 q 349 -35 383 -35 q 328 -32 338 -35 q 308 -29 319 -29 q 304 -30 306 -29 q 301 -31 303 -31 l 271 -26 q 246 -22 256 -26 q 169 21 206 -7 q 106 86 133 49 q 62 170 78 124 q 46 269 46 217 q 66 384 46 331 q 140 483 86 438 q 161 503 150 492 q 172 519 172 514 q 166 532 172 533 q 156 540 160 531 q 106 592 124 564 q 81 650 89 621 q 70 706 72 679 q 68 751 68 732 q 84 831 68 789 q 127 908 100 872 q 190 972 154 944 q 267 1006 226 999 l 274 1006 q 307 1010 285 1006 q 356 1014 329 1014 l 388 1014 q 417 1010 401 1014 m 429 400 q 412 419 422 413 q 390 428 401 425 q 367 433 379 432 q 342 438 354 435 q 287 406 303 421 q 266 372 271 392 q 260 324 261 353 q 253 249 260 294 q 260 212 256 232 q 275 175 265 192 q 301 147 285 158 q 340 136 317 136 q 406 158 383 136 q 438 211 428 181 q 449 275 447 242 q 450 329 450 308 q 440 365 444 346 q 429 400 435 383 m 408 810 q 358 840 390 840 q 340 836 354 836 l 328 836 q 297 823 308 836 q 278 790 285 810 q 268 747 271 769 q 265 706 265 724 q 285 633 265 664 q 349 601 304 601 q 388 613 372 601 q 414 639 404 624 q 428 672 424 654 q 432 701 432 689 q 431 717 432 708 q 429 733 429 725 l 429 740 q 425 747 428 740 q 422 757 422 754 q 425 763 422 760 q 418 786 421 774 q 408 810 415 799 m 525 307 q 518 310 522 310 q 514 307 513 307 l 513 307 q 518 300 513 300 q 525 304 521 300 l 525 307 m 179 269 q 172 274 179 274 q 169 268 169 268 q 175 265 169 265 l 179 269 m 179 232 l 172 219 q 183 225 183 219 l 179 232 m 533 193 q 525 194 529 194 q 522 192 522 194 l 529 185 l 533 193 m 417 57 l 414 68 q 407 57 407 61 l 417 57 m 140 207 q 133 208 139 208 l 131 201 l 138 201 l 140 207 m 349 492 q 343 485 343 492 q 353 488 353 485 l 349 492 m 174 254 q 170 253 171 254 q 168 253 169 253 l 167 251 q 172 247 171 247 q 176 249 175 247 l 174 254 m 540 267 q 533 260 533 267 q 540 263 540 260 l 540 267 m 147 256 q 140 249 140 256 q 149 253 149 249 l 147 256 m 333 57 l 326 50 l 329 47 l 333 57 m 449 124 l 438 125 q 440 115 438 118 l 449 124 m 568 329 q 558 324 558 329 l 567 324 l 568 329 m 174 303 l 176 324 q 180 301 179 303 q 181 301 181 299 l 174 303 m 146 281 q 142 272 142 276 l 147 275 l 146 281 m 513 268 l 514 275 l 517 261 q 517 263 517 263 q 518 264 518 263 l 518 265 l 513 268 m 581 217 l 579 222 l 576 222 l 574 218 l 581 217 m 571 188 l 564 194 l 561 192 l 571 188 m 507 338 q 501 332 501 338 q 508 336 508 332 l 507 338 m 200 365 q 196 368 197 367 q 192 369 194 369 l 193 364 l 200 365 m 494 263 l 497 263 l 500 267 l 497 267 l 494 263 m 183 342 l 181 361 l 178 361 l 181 338 l 183 342 m 450 67 l 449 71 l 446 71 l 446 64 l 450 67 m 149 299 l 147 306 l 144 306 l 144 300 l 149 299 m 228 368 q 224 378 228 374 l 228 368 m 321 97 l 321 100 l 317 101 l 317 99 l 321 97 m 224 76 l 226 76 l 228 90 l 225 90 l 224 79 l 224 76 m 529 328 l 532 326 q 533 332 533 328 l 531 332 l 529 328 z "},"9":{"ha":704,"x_min":44,"x_max":660,"o":"m 392 1019 q 449 1008 418 1019 q 507 979 479 997 q 557 936 535 961 q 590 885 579 911 q 622 842 613 865 q 635 793 631 818 q 642 745 639 768 q 653 707 644 722 q 656 683 653 692 q 660 663 660 674 q 656 649 660 657 q 657 635 657 646 q 656 626 657 631 q 656 618 656 622 l 656 603 q 656 594 656 599 q 657 588 657 590 l 657 575 q 654 520 657 554 q 643 467 651 486 l 643 453 q 632 391 643 431 q 606 310 621 351 q 576 234 590 268 q 553 188 561 200 q 547 165 553 181 q 532 131 540 149 q 513 96 524 114 q 494 67 503 78 q 483 38 490 54 q 467 8 476 22 q 446 -17 458 -7 q 419 -26 433 -26 q 401 -24 408 -26 q 385 -22 393 -22 q 378 -23 381 -22 q 374 -24 376 -24 q 364 -22 371 -22 l 353 -22 q 344 -23 349 -22 q 333 -24 340 -24 q 313 -22 322 -24 q 296 -19 303 -19 q 276 -23 286 -19 q 254 -26 265 -26 q 226 -20 242 -26 q 211 -3 211 -14 q 225 33 211 15 q 258 71 239 51 q 295 111 276 90 q 322 156 314 132 l 322 154 q 341 178 331 168 q 354 203 351 188 q 396 292 374 251 q 429 374 418 332 q 424 382 429 379 l 425 382 q 421 388 421 386 q 383 368 407 375 q 338 361 358 361 l 286 361 l 274 365 q 233 378 251 372 q 196 394 214 385 q 160 416 178 403 q 124 450 143 429 l 124 449 q 105 481 119 468 q 88 510 90 493 q 73 549 81 532 q 59 582 65 565 q 49 619 53 599 q 44 667 44 639 q 47 728 44 697 q 60 793 49 760 q 69 831 69 810 q 88 869 69 851 q 119 918 104 896 q 153 958 135 940 q 197 988 172 975 q 256 1008 222 1000 q 283 1022 267 1019 q 314 1025 299 1025 q 344 1023 329 1025 q 369 1021 358 1021 l 383 1021 q 390 1019 389 1021 l 392 1019 m 374 850 q 364 846 365 846 l 347 850 q 336 853 339 853 q 292 838 308 853 q 267 799 275 822 q 256 751 258 776 q 253 706 253 725 q 253 685 253 693 q 254 674 254 676 l 251 674 q 253 657 253 669 l 253 635 q 280 565 253 593 q 346 533 307 538 q 379 545 361 542 q 412 558 397 549 q 436 588 426 568 q 446 653 446 608 l 446 658 q 450 686 450 675 l 450 694 q 449 701 450 697 q 449 708 449 704 l 449 718 q 433 794 449 758 q 374 850 418 829 m 544 457 q 544 463 544 460 q 538 465 543 465 q 535 456 538 458 q 533 450 533 453 q 538 447 533 447 q 544 451 540 447 l 544 457 m 539 421 q 522 417 526 421 l 525 407 l 539 421 m 513 368 l 511 378 q 503 372 503 375 q 510 367 503 367 l 513 368 m 492 418 q 485 426 492 426 l 482 418 l 492 418 m 517 388 q 524 392 524 388 l 524 401 l 514 393 l 517 388 m 504 311 q 494 304 494 311 q 506 310 504 304 l 504 311 m 504 401 l 493 401 q 503 394 493 394 l 504 401 m 576 458 l 576 442 q 583 449 583 442 l 576 458 m 444 454 l 438 457 q 436 454 436 454 l 436 453 q 443 450 436 450 l 444 454 m 568 515 q 558 519 568 519 l 561 513 q 568 514 567 513 l 568 515 m 496 386 q 493 393 493 389 l 485 385 q 493 382 493 382 q 496 383 494 382 l 496 386 m 515 422 q 510 422 513 422 q 504 421 507 421 l 504 418 l 515 422 m 472 492 q 469 483 469 488 q 472 479 469 479 l 472 492 m 481 465 q 474 457 474 465 q 481 463 481 460 l 481 465 m 556 488 l 547 489 l 547 486 l 556 488 m 493 338 l 486 335 q 492 331 486 331 l 493 338 m 429 425 l 422 418 l 425 415 l 429 425 m 481 372 l 474 365 l 476 363 l 478 364 l 481 372 m 572 432 l 567 429 l 567 426 l 572 432 m 558 399 q 553 386 553 399 q 558 394 556 392 q 560 397 560 396 l 558 399 m 514 336 l 513 326 q 519 328 518 326 l 514 336 m 447 396 l 447 399 l 442 401 l 443 396 l 447 396 m 558 413 l 561 410 q 567 421 567 414 l 558 413 m 517 485 l 515 492 l 513 492 l 513 486 l 517 485 m 464 419 l 464 422 l 461 424 l 460 422 l 464 419 z "}," ":{"ha":357,"x_min":0,"x_max":0,"o":""},"(":{"ha":475,"x_min":44,"x_max":429,"o":"m 392 1019 q 410 1010 400 1011 q 419 990 419 1008 q 412 961 419 976 q 394 931 404 946 q 372 899 383 915 q 351 867 360 883 q 338 834 344 849 q 323 806 331 819 q 309 776 315 792 q 299 742 303 761 l 299 743 q 284 713 289 731 q 275 679 279 696 q 267 656 272 668 q 261 633 261 644 l 261 621 q 254 578 261 597 q 247 535 247 558 l 247 528 q 248 526 247 526 q 249 524 249 525 q 240 486 240 511 l 240 439 q 241 385 240 414 q 244 329 242 357 q 249 276 246 301 q 260 231 253 250 q 257 221 257 228 q 261 209 257 217 q 265 190 265 201 l 265 182 q 276 142 276 163 q 288 106 276 121 l 288 107 q 308 54 300 78 q 324 7 315 31 q 344 -44 332 -17 q 382 -107 357 -71 q 413 -154 397 -131 q 429 -186 429 -178 q 411 -205 429 -201 q 374 -208 393 -208 l 353 -208 q 338 -207 344 -208 q 325 -206 332 -206 q 317 -208 319 -208 q 303 -206 308 -208 q 290 -204 297 -204 q 274 -206 282 -204 q 257 -208 267 -208 q 223 -191 238 -208 q 196 -151 208 -174 q 174 -107 183 -128 q 157 -78 164 -86 q 150 -57 154 -68 q 140 -36 146 -46 l 117 6 q 96 49 104 26 q 88 97 88 71 q 81 111 82 103 q 78 128 79 119 q 76 145 78 136 q 69 161 75 154 l 69 167 q 65 182 69 175 q 61 197 61 189 q 65 206 61 201 q 56 226 58 213 q 51 252 53 239 q 50 277 50 265 q 50 293 50 289 l 50 308 q 53 328 50 314 q 48 337 50 331 q 44 346 46 343 l 44 494 q 50 526 50 510 l 50 550 l 54 571 q 57 586 57 582 q 56 593 57 589 q 54 601 54 597 q 58 621 54 608 q 67 648 63 633 q 76 677 72 663 q 81 700 81 692 l 81 704 q 90 729 82 706 q 110 788 97 753 q 139 863 122 822 q 175 937 156 903 q 217 994 194 971 q 261 1017 239 1017 l 354 1017 q 372 1019 364 1017 l 392 1019 m 135 185 q 140 193 140 185 q 135 199 140 199 q 126 189 126 199 q 132 185 126 185 l 135 185 m 133 483 q 135 485 131 485 q 140 490 140 485 l 139 496 q 126 485 126 489 q 132 482 129 482 l 133 483 m 203 51 l 203 54 q 202 58 200 54 q 196 65 204 61 q 193 58 193 63 q 201 51 193 51 l 203 51 m 203 350 l 203 353 q 201 357 200 353 q 196 361 203 361 l 193 356 q 197 350 193 350 l 203 350 m 182 203 q 172 208 176 208 q 179 197 172 197 l 182 203 m 144 268 q 138 271 142 271 q 135 263 136 263 l 135 260 l 143 260 l 143 261 q 144 265 143 264 l 144 268 m 157 285 q 150 290 157 290 l 149 283 q 153 281 151 281 q 157 283 154 281 l 157 285 m 119 350 l 113 353 q 111 347 111 350 q 115 344 111 344 l 119 350 m 160 399 l 151 401 q 149 394 149 401 q 156 392 151 392 l 160 399 m 129 219 l 129 228 l 119 226 l 129 219 m 108 399 q 101 401 106 401 q 106 389 101 393 l 108 399 m 232 124 l 226 125 q 224 118 224 125 l 232 124 m 194 233 l 186 225 q 194 221 188 221 l 194 233 m 150 414 q 143 419 146 418 q 139 419 140 419 q 136 414 136 419 l 150 414 m 171 354 l 171 357 l 167 358 l 167 356 l 171 354 m 167 308 l 175 311 q 165 315 171 315 l 164 310 l 167 308 m 132 386 q 125 382 125 386 l 132 386 m 219 136 l 213 138 q 218 131 213 131 l 219 136 m 214 158 l 214 161 l 210 160 l 210 157 l 214 158 m 197 339 l 210 328 l 200 328 l 197 339 m 225 63 q 236 68 236 63 l 225 63 m 124 519 l 124 517 q 129 521 129 517 l 124 519 z "},":":{"ha":306,"x_min":44,"x_max":260,"o":"m 231 225 q 247 211 239 221 q 260 194 256 201 q 258 157 257 174 q 256 122 260 140 q 260 107 260 114 q 258 97 260 101 q 257 88 257 93 q 258 74 257 81 q 260 64 260 68 q 259 39 260 51 q 254 15 258 26 q 242 -3 250 4 q 221 -10 235 -10 q 209 -8 214 -10 q 201 -6 204 -6 q 189 -8 194 -6 q 178 -11 183 -11 q 172 -10 174 -11 q 160 -10 165 -10 q 150 -11 154 -11 l 131 -11 q 86 -3 103 -11 l 76 -3 q 56 3 67 -3 q 46 24 46 8 q 48 32 46 28 q 50 43 50 36 q 48 79 50 58 q 46 117 46 100 q 53 131 53 124 q 49 145 53 138 q 44 160 44 153 q 50 174 44 168 l 50 186 q 72 222 50 215 q 118 228 94 228 l 175 228 q 202 226 189 228 q 231 225 215 225 m 171 643 l 169 642 l 169 643 l 171 643 m 147 640 q 169 642 165 640 q 183 638 178 638 q 199 640 194 638 q 214 643 204 643 q 247 631 233 643 q 260 603 260 619 q 256 583 260 593 l 256 561 q 256 538 256 550 q 260 515 257 526 q 256 488 256 500 l 256 432 q 238 413 249 421 q 214 404 228 404 l 208 404 q 206 405 207 404 q 203 406 206 406 q 183 401 190 401 q 164 408 174 401 q 131 407 147 406 q 99 404 114 408 q 67 414 83 406 q 50 444 50 422 q 46 464 50 460 q 47 495 49 479 q 53 526 46 511 q 49 563 49 547 q 58 625 49 607 q 99 643 67 643 q 124 642 110 643 q 147 640 138 640 m 189 124 l 182 121 l 182 118 l 189 124 m 160 61 l 151 60 l 151 57 l 160 61 z "},"A":{"ha":840,"x_min":46,"x_max":794,"o":"m 388 997 q 413 993 404 993 q 435 995 424 993 q 460 997 447 997 q 467 997 464 997 q 474 996 471 996 l 492 996 q 498 997 494 996 q 504 997 501 997 q 542 972 526 997 q 568 916 558 947 q 582 858 578 885 q 586 825 586 831 q 610 746 597 786 q 626 675 624 706 q 634 636 629 658 q 644 607 639 614 l 644 608 q 649 599 647 603 q 651 588 651 594 l 651 579 q 656 571 651 575 q 660 554 660 567 q 683 456 671 506 q 708 361 696 407 q 719 324 710 356 q 741 254 729 293 q 763 179 753 215 q 772 128 772 143 q 771 124 772 125 q 779 103 775 117 q 787 74 783 89 q 792 45 790 58 q 794 25 794 32 q 749 -6 794 -6 q 733 -3 739 -6 q 706 -8 721 -6 q 681 -10 690 -10 q 660 -6 668 -10 q 642 -1 653 -1 q 631 -3 638 -1 q 621 -6 625 -6 q 594 14 606 -6 q 574 58 582 33 q 563 107 567 83 q 560 139 560 131 q 561 156 560 151 q 553 165 556 158 q 547 178 550 171 q 541 190 544 185 q 532 196 538 196 q 528 190 531 196 q 521 193 525 192 q 515 194 517 194 q 507 192 511 194 q 496 190 503 190 l 479 190 q 464 188 469 190 q 454 190 461 189 q 444 190 447 190 l 372 190 q 361 192 364 190 q 357 196 358 194 q 332 186 342 186 q 322 188 326 186 q 311 190 317 190 q 293 183 297 190 q 288 164 289 175 q 286 142 288 153 q 276 124 285 131 q 278 115 276 117 q 279 111 279 114 q 267 67 279 88 q 256 24 256 47 l 256 17 q 227 -3 244 -4 q 193 -7 210 -3 q 167 -1 181 -1 q 145 -3 156 -1 q 124 -6 135 -6 q 108 -3 114 -6 q 88 -10 97 -10 q 53 7 60 -10 q 46 39 46 24 q 65 99 58 68 q 78 161 72 131 q 92 222 85 192 q 111 276 99 251 q 116 298 111 286 q 121 324 121 310 q 120 328 121 326 q 119 332 119 329 q 130 364 124 346 q 143 401 136 382 q 155 435 150 419 q 160 463 160 451 q 158 469 160 467 q 157 475 157 471 q 166 510 157 496 q 175 543 175 525 l 175 550 q 191 584 183 558 q 206 639 199 610 q 217 694 213 668 q 222 729 222 721 q 231 755 226 742 q 239 783 235 768 l 258 860 q 264 897 260 874 q 276 942 268 919 q 294 980 283 964 q 317 996 304 996 l 332 996 q 342 997 339 996 q 347 996 344 996 q 353 994 350 996 q 360 993 357 993 q 388 997 368 993 m 426 738 q 415 743 421 743 q 409 726 413 736 q 402 704 406 715 q 397 684 399 693 q 394 672 394 675 q 391 639 394 653 q 383 613 388 625 q 374 588 378 600 q 371 560 371 575 q 372 547 371 550 l 363 519 l 363 511 q 363 507 363 508 q 364 503 364 506 q 360 474 364 488 q 351 449 356 461 q 343 423 347 436 q 339 396 339 410 q 347 379 339 385 q 381 382 361 382 l 399 382 q 418 378 407 382 q 424 379 419 379 q 428 378 426 379 q 432 378 429 378 l 440 378 q 453 380 447 378 q 467 382 460 382 q 478 380 474 382 q 490 378 483 378 q 501 393 501 382 q 496 437 501 414 q 483 485 490 460 q 468 537 475 510 q 460 594 461 564 q 448 633 449 610 q 444 675 447 656 q 429 721 429 697 l 429 729 q 426 736 426 729 l 426 738 m 539 300 q 533 307 539 306 q 528 313 528 308 l 525 313 q 517 308 521 308 q 511 306 513 307 q 519 303 514 303 l 528 303 q 531 301 529 301 l 532 301 l 539 300 m 274 313 q 261 306 267 306 l 261 303 q 264 299 263 301 q 268 289 265 296 q 274 296 274 289 l 274 313 m 236 308 q 231 315 236 310 q 222 309 222 307 q 214 304 221 311 l 229 304 q 238 297 233 304 q 240 304 240 300 l 236 308 m 246 335 q 233 326 233 335 q 240 325 236 325 q 247 332 247 325 l 246 335 m 306 314 q 303 322 306 319 l 297 328 q 293 322 294 325 q 290 318 292 319 q 297 314 296 313 q 304 313 299 315 l 306 314 m 658 192 q 653 199 658 199 q 650 198 650 199 q 649 197 650 197 l 647 197 l 649 182 l 658 192 m 257 260 l 247 268 l 240 267 l 242 260 q 244 253 244 260 l 251 260 l 257 260 m 183 250 q 175 254 183 254 q 169 250 169 254 q 179 244 169 244 q 183 250 183 244 m 251 354 q 254 360 254 357 q 249 365 254 363 l 243 363 l 243 356 q 244 354 243 354 l 251 354 m 576 357 q 565 349 565 357 q 572 344 565 344 q 576 353 576 353 l 576 357 m 278 358 q 272 354 274 354 l 271 354 q 278 344 271 344 q 282 353 282 353 l 278 358 m 231 268 l 219 263 l 221 257 q 228 260 225 257 l 231 268 m 425 350 q 422 358 419 354 q 419 361 424 361 q 414 353 414 361 q 424 347 414 347 l 425 350 m 213 268 q 207 271 210 271 l 201 268 q 206 260 201 260 q 213 265 213 260 l 213 268 m 378 290 q 371 292 376 292 q 367 283 367 288 q 374 281 369 281 q 378 289 378 281 l 378 290 m 597 313 q 603 318 603 313 q 595 322 596 318 q 594 325 594 326 l 592 325 l 589 319 l 592 317 q 597 313 592 313 m 281 325 l 272 335 q 268 324 268 331 q 271 317 271 322 l 281 325 m 365 268 q 360 271 363 271 q 356 263 356 271 l 361 261 q 365 267 365 261 l 365 268 m 544 331 q 536 335 540 335 l 529 324 q 538 324 536 324 q 540 326 540 325 q 540 327 540 326 q 543 328 540 328 l 544 331 m 329 279 q 319 271 319 279 l 331 271 l 329 279 m 290 289 q 289 296 290 294 q 286 300 288 297 l 278 293 l 283 288 l 290 289 m 508 268 q 503 269 506 269 q 501 269 501 269 q 500 268 501 268 l 499 268 q 503 260 501 260 q 508 265 508 260 l 508 268 m 290 226 q 283 217 283 226 l 292 217 l 290 226 m 199 190 q 194 197 194 192 q 189 185 189 192 l 196 182 l 199 190 m 171 157 q 163 161 167 161 q 158 154 158 161 q 165 153 160 153 q 171 156 171 153 l 171 157 m 676 286 l 671 292 q 665 286 665 292 q 674 281 665 281 l 676 286 m 657 260 q 663 265 663 261 q 661 269 663 268 q 658 272 660 269 q 651 261 651 265 l 657 260 m 192 128 q 190 128 190 129 q 182 135 189 128 q 190 121 182 121 l 192 128 m 664 121 q 656 124 661 124 l 657 114 q 664 117 661 114 l 664 121 m 569 335 q 565 324 565 331 l 579 324 l 569 335 m 525 268 q 521 269 524 269 q 517 261 517 269 q 525 260 518 260 l 525 268 m 192 228 q 181 219 181 228 l 188 219 q 192 225 192 219 l 192 228 m 389 315 q 381 310 385 313 q 378 301 378 308 q 385 306 382 304 q 389 313 389 307 l 389 315 m 257 194 q 260 201 260 197 l 260 210 q 251 200 251 203 l 257 194 m 328 397 l 328 399 q 326 399 326 399 q 324 400 325 400 q 319 394 319 400 q 325 392 325 392 q 329 396 329 392 l 328 397 m 647 225 l 640 228 l 640 217 q 647 221 647 217 l 647 225 m 304 357 q 297 358 300 357 q 292 358 293 358 q 290 356 290 357 q 289 354 290 354 q 297 350 289 350 l 304 357 m 485 347 q 479 342 479 347 q 485 336 479 336 q 488 342 488 339 l 485 347 m 426 283 q 421 272 426 274 q 413 268 415 271 q 432 272 425 268 l 426 283 m 549 267 q 542 268 547 268 q 538 261 538 265 l 547 260 q 549 265 549 261 l 549 267 m 636 344 q 629 353 636 353 q 628 347 628 350 q 633 343 628 343 l 636 344 m 478 275 l 478 264 q 485 271 485 264 l 478 275 m 346 228 q 340 219 340 228 q 350 225 350 222 l 346 228 m 596 358 l 586 357 q 594 350 586 350 q 596 356 596 351 l 596 358 m 628 275 l 624 279 q 619 272 619 279 l 626 265 l 628 275 m 514 335 l 510 335 q 506 331 506 335 q 511 328 511 328 q 517 332 513 328 l 514 335 m 586 222 l 583 222 q 581 217 581 222 l 588 217 l 586 222 m 206 171 q 197 158 199 171 q 203 160 200 158 q 207 169 206 163 l 206 171 m 247 397 l 238 394 q 247 388 238 388 l 247 397 m 276 192 q 275 193 275 192 l 265 192 l 272 185 q 278 190 278 185 l 276 192 m 606 239 l 597 240 q 592 236 592 240 l 597 231 l 606 239 m 286 251 l 296 231 q 300 245 299 242 q 301 251 301 249 l 286 251 m 619 239 l 613 240 l 613 229 l 619 239 m 485 296 q 478 303 485 303 l 479 296 l 485 296 m 246 306 l 254 296 l 265 306 l 246 306 m 222 335 l 213 338 l 215 332 l 222 335 m 588 418 l 581 421 l 581 408 l 588 418 m 450 285 q 443 272 443 278 l 450 271 l 450 285 m 606 408 q 597 401 597 408 q 607 407 607 401 l 606 408 m 188 299 q 182 306 188 306 l 182 296 l 185 296 l 188 299 m 422 328 q 415 333 422 333 q 418 324 415 326 l 422 328 m 257 421 q 249 414 249 421 l 256 415 l 257 421 m 450 258 q 443 254 443 258 l 446 250 l 449 250 l 450 258 m 600 251 l 583 250 l 596 242 l 600 251 m 622 369 q 620 370 621 369 q 618 371 619 371 q 615 364 615 371 q 621 363 617 363 l 622 369 m 689 213 q 693 201 689 201 q 696 208 696 201 l 689 213 m 483 228 l 475 226 q 482 222 478 222 q 488 224 486 222 l 483 228 m 186 346 q 182 339 182 346 q 190 344 190 339 l 186 346 m 482 250 q 475 253 476 253 q 469 247 469 253 l 482 250 m 188 267 q 181 274 188 274 l 182 267 l 188 267 m 504 367 q 493 369 501 369 q 501 363 499 363 q 504 364 503 363 l 504 367 m 299 246 l 299 233 q 306 239 306 233 l 299 246 m 282 399 q 276 390 276 399 q 283 396 283 393 l 282 399 m 638 292 l 638 279 q 644 282 639 279 q 649 283 647 283 l 638 292 m 579 399 q 574 390 574 399 q 581 397 581 390 l 579 399 m 204 372 l 197 365 l 200 363 l 204 372 m 342 344 l 332 363 l 332 344 l 342 344 m 517 249 l 514 249 l 514 239 l 517 239 l 517 249 m 586 254 l 582 254 l 581 249 q 588 253 588 249 l 586 254 m 250 231 q 243 221 243 228 l 250 231 m 626 396 l 624 399 q 621 396 621 396 l 619 394 q 624 392 619 392 l 626 396 m 219 383 q 213 389 219 389 l 215 383 l 219 383 m 346 288 q 340 281 340 288 q 347 286 347 281 l 346 288 m 236 222 l 231 219 l 231 217 l 236 222 m 335 263 l 335 251 q 343 254 340 251 l 335 263 m 140 147 l 138 147 l 140 132 l 143 132 l 143 138 l 140 147 m 594 432 l 588 432 l 588 429 l 593 426 l 594 432 m 538 394 l 540 388 q 544 393 544 388 l 538 394 m 144 207 q 138 201 138 207 l 144 207 m 267 154 l 267 163 l 264 163 l 261 156 l 267 154 m 215 292 l 213 297 l 210 297 l 215 292 m 624 99 q 619 107 624 103 l 619 96 l 624 99 m 236 421 l 229 422 l 232 417 l 236 421 m 311 297 l 308 297 l 307 293 l 310 293 l 311 297 m 550 357 q 543 363 544 360 l 540 360 l 544 354 l 550 357 m 322 236 q 317 240 322 240 l 317 238 l 322 236 m 315 308 q 311 315 315 315 l 315 308 m 636 253 q 632 263 636 258 l 632 253 l 636 253 m 604 151 l 599 149 l 599 146 l 604 151 m 643 379 q 650 385 650 379 l 647 385 l 643 379 m 136 168 l 133 167 q 138 160 135 160 q 139 163 139 161 l 136 168 m 572 188 l 571 193 l 568 193 l 572 188 m 454 358 l 453 364 l 450 364 l 454 358 m 219 357 l 217 364 l 215 353 l 218 353 l 219 357 m 546 417 l 549 414 l 553 418 l 550 421 l 546 417 m 542 226 l 550 224 q 547 229 547 225 l 544 229 l 542 226 m 215 219 l 210 229 l 210 215 l 215 219 m 240 194 l 238 194 l 236 186 l 239 186 q 240 193 240 189 l 240 194 m 606 290 l 608 289 q 611 296 611 292 l 608 296 l 606 290 m 675 122 q 679 128 679 122 l 676 128 l 675 122 m 168 182 l 171 182 l 172 189 l 169 189 l 168 183 l 168 182 m 214 122 l 214 125 l 210 124 l 210 121 l 214 122 z "},"F":{"ha":708,"x_min":44,"x_max":661,"o":"m 256 996 q 263 997 260 996 q 272 997 267 997 q 286 996 282 997 q 313 997 293 997 l 336 997 q 349 997 343 997 q 361 996 354 996 q 376 996 369 996 q 388 997 383 996 q 395 996 390 996 q 404 996 400 996 l 418 996 q 424 997 421 996 q 432 997 428 997 q 449 993 436 997 q 464 996 454 996 l 483 996 q 492 996 488 996 q 500 997 497 996 l 533 997 q 550 997 542 997 q 567 996 558 997 l 599 996 q 610 996 604 996 q 618 997 615 996 q 649 985 639 994 q 661 958 658 975 q 659 943 661 950 q 657 932 657 936 q 658 926 657 929 q 661 921 660 924 q 660 900 660 915 l 660 875 q 657 856 660 864 q 659 840 657 849 q 661 825 661 832 q 655 811 661 817 q 640 801 649 806 q 621 796 631 797 q 606 794 611 794 q 597 796 601 794 q 588 797 592 797 q 581 794 583 797 q 562 797 569 794 q 546 799 554 799 q 532 797 536 799 l 515 797 q 507 798 511 797 q 499 799 503 799 q 478 796 488 799 q 458 793 469 793 q 437 795 446 793 q 417 797 428 797 q 408 794 411 794 q 397 796 403 794 q 389 797 392 797 l 340 797 q 324 795 332 797 q 308 793 317 793 q 297 795 301 793 q 289 797 292 797 q 268 778 271 797 q 265 744 265 760 q 268 728 268 736 q 267 710 268 718 q 265 694 265 703 q 268 678 265 686 q 265 663 265 669 q 269 626 265 646 q 285 606 272 606 q 294 607 290 606 q 304 608 299 608 q 324 606 315 608 q 344 604 333 604 l 363 604 q 381 608 369 604 q 412 605 392 608 q 449 601 432 601 q 466 605 458 601 q 486 608 474 608 q 518 594 510 608 q 526 569 526 579 l 526 554 q 528 544 526 549 q 529 532 529 539 q 525 518 529 526 q 527 503 525 511 q 529 490 529 496 q 525 475 529 488 q 529 444 529 451 q 526 422 529 429 q 517 411 522 414 q 503 407 511 408 q 485 404 494 406 q 471 401 474 401 q 415 405 443 406 q 363 408 386 404 q 333 401 353 401 q 301 404 313 401 l 281 404 q 269 398 269 404 q 258 382 268 392 q 261 376 261 379 l 261 365 q 265 356 261 360 q 268 344 268 351 q 265 325 268 333 q 261 306 261 317 q 263 296 261 301 q 268 288 265 290 l 268 250 q 264 226 268 232 q 268 206 268 218 l 268 132 q 265 114 265 124 l 265 79 q 267 62 265 71 q 268 44 268 53 q 264 21 268 35 l 264 15 q 265 14 264 14 q 253 -1 264 4 q 238 -6 242 -6 q 223 -3 226 -6 q 214 -1 219 -1 q 173 -6 192 -1 q 135 -10 154 -10 q 114 -6 124 -10 q 94 -3 104 -3 l 82 -3 q 57 11 68 -3 q 46 43 46 25 q 48 66 46 51 q 50 92 50 81 l 50 103 q 53 111 53 106 q 49 118 49 115 q 50 121 49 119 l 50 139 q 49 154 50 147 q 46 169 49 161 q 49 184 49 175 q 50 200 50 193 l 50 215 q 44 226 44 221 q 47 238 44 231 q 49 249 49 244 q 47 257 49 253 q 46 265 46 261 q 48 288 46 276 q 50 310 50 299 q 49 315 50 313 q 49 321 49 318 l 49 332 q 51 348 49 340 q 53 365 53 356 q 51 381 53 372 q 50 396 50 389 l 50 453 q 46 472 50 464 q 53 518 53 497 q 46 556 53 535 q 49 571 49 561 q 47 583 49 578 q 46 597 46 589 q 50 615 46 603 q 46 638 46 621 q 49 656 46 649 q 53 674 53 663 q 51 701 53 689 q 49 728 49 714 l 49 761 q 50 781 49 776 l 50 967 q 70 988 57 979 q 99 996 83 996 q 106 994 101 996 q 115 992 110 992 q 121 993 117 992 q 128 996 125 994 l 142 996 q 158 997 150 996 q 175 997 167 997 l 203 997 q 220 997 213 997 q 233 996 228 997 l 256 996 m 147 211 q 140 206 140 211 q 141 201 140 203 q 142 197 142 199 q 151 204 151 197 l 147 211 m 176 350 q 171 356 171 350 l 171 360 q 164 365 171 365 l 164 349 q 165 349 165 349 q 167 350 165 350 l 168 350 q 174 344 168 344 l 176 350 m 107 199 q 97 193 97 199 q 100 183 97 186 q 108 197 108 192 l 107 199 m 168 385 q 158 375 158 385 q 165 372 161 372 q 168 379 168 372 l 168 385 m 215 457 l 211 461 q 204 456 204 461 q 214 450 204 450 l 215 457 m 186 504 q 181 497 181 504 q 188 494 183 494 q 197 499 192 499 q 186 504 192 504 m 147 504 q 140 499 140 504 q 146 494 140 494 q 151 501 151 494 l 147 504 m 194 201 q 186 208 194 208 q 181 201 181 208 l 189 200 l 194 201 m 246 485 q 239 489 246 489 q 233 486 233 489 q 236 479 233 482 q 243 483 243 479 l 246 485 m 193 131 q 188 138 188 136 q 182 140 189 140 l 178 136 q 186 131 178 131 l 193 131 m 125 290 l 117 290 q 119 281 117 281 q 125 283 122 281 l 125 290 m 179 271 q 174 282 179 276 q 172 279 174 281 q 171 276 171 278 q 169 275 171 275 l 171 275 q 165 265 165 272 q 172 268 172 265 q 175 271 171 271 l 179 271 m 200 419 q 193 421 196 421 l 192 421 q 199 411 194 411 l 200 419 m 140 315 l 133 318 q 131 313 132 315 q 128 308 131 311 l 139 308 l 140 315 m 107 493 q 97 485 97 493 q 108 492 108 488 l 107 493 m 183 188 q 176 182 176 188 q 182 171 176 176 l 183 188 m 183 458 q 178 464 183 464 l 176 454 l 183 451 l 183 458 m 236 524 q 229 525 235 525 q 225 517 225 521 q 236 522 236 517 l 236 524 m 183 154 q 178 167 183 167 l 176 160 q 179 154 176 154 l 183 154 m 199 258 q 192 249 192 258 q 199 251 199 249 q 200 257 200 253 l 199 258 m 139 153 l 140 154 q 133 160 140 156 q 131 153 131 157 l 139 153 m 133 128 q 126 132 133 132 q 124 126 124 126 q 128 121 124 125 l 133 126 l 133 128 m 172 329 q 165 335 172 335 q 164 328 164 333 l 171 326 l 172 329 m 204 361 q 200 367 204 367 l 197 358 l 203 356 l 204 361 m 210 199 l 203 200 q 203 193 192 193 l 210 199 m 140 350 l 140 361 q 133 354 133 361 l 140 350 m 208 494 q 197 497 206 497 q 203 490 197 490 l 208 494 m 135 454 l 129 453 l 131 443 q 133 446 132 444 q 135 449 133 447 l 136 450 l 135 454 m 125 396 l 124 404 q 118 396 118 399 l 125 396 m 156 350 l 153 350 q 149 344 149 350 l 156 350 m 236 419 q 229 432 236 425 l 229 421 l 236 419 m 200 124 q 192 118 192 124 l 199 117 l 200 124 m 190 433 q 179 436 188 436 l 188 429 l 190 433 m 225 574 l 225 561 q 233 565 229 561 l 225 574 m 399 482 q 401 489 401 485 l 396 488 l 399 482 m 97 226 q 90 217 90 226 l 97 226 m 118 414 l 108 421 l 106 418 l 118 414 m 226 551 q 219 546 219 551 l 225 544 l 226 551 m 158 221 q 163 224 163 221 l 163 226 l 160 226 l 158 221 m 203 553 q 193 551 194 553 q 192 543 192 549 l 203 553 m 101 383 q 97 385 100 385 q 94 379 94 385 l 101 383 m 182 479 l 182 481 q 179 488 182 482 q 178 479 178 483 q 182 475 178 475 l 182 479 m 151 264 q 149 256 149 260 q 151 251 149 251 l 151 264 m 151 404 q 150 408 151 407 q 147 411 149 408 q 146 406 146 408 q 150 403 146 403 l 151 404 m 172 649 q 164 654 169 654 q 171 647 165 647 l 172 649 m 167 165 l 164 165 l 161 160 l 164 160 l 167 165 m 161 526 l 164 526 q 157 519 157 522 q 161 517 157 517 l 161 526 m 154 174 l 154 175 q 149 186 154 179 q 150 174 149 175 l 154 174 m 106 257 q 110 264 110 261 q 107 267 110 267 l 106 257 m 231 263 l 231 272 l 228 272 l 231 263 m 229 226 l 228 218 q 235 225 235 219 l 229 226 m 129 429 l 126 419 q 133 422 131 419 l 129 429 m 117 119 q 113 122 114 121 q 108 124 111 124 l 110 118 l 117 119 m 160 236 l 160 233 q 163 232 163 232 q 169 236 165 232 l 160 236 m 129 193 l 126 193 l 125 189 l 128 189 l 129 193 m 153 471 l 154 474 l 150 476 l 150 474 l 153 471 m 229 342 l 232 342 l 235 346 l 232 346 l 229 342 m 194 329 l 194 326 q 200 331 200 326 l 194 329 m 204 428 l 207 428 l 208 432 l 206 432 l 204 428 m 144 542 l 147 542 l 149 546 l 146 546 l 144 542 z "},"K":{"ha":831,"x_min":44,"x_max":783,"o":"m 256 982 q 268 954 268 969 q 260 926 268 939 q 263 922 261 924 q 264 918 264 921 q 263 910 264 914 q 261 903 261 906 q 264 889 261 897 l 268 876 q 265 853 268 864 q 261 832 261 843 q 265 817 261 824 q 268 807 268 811 q 266 796 268 800 q 264 785 264 792 q 265 775 264 776 l 265 763 q 265 755 265 758 q 264 746 264 751 q 266 713 264 729 q 268 681 268 696 l 264 664 q 262 656 263 660 q 261 649 261 653 q 263 631 261 639 q 265 611 265 622 q 261 576 265 586 q 264 565 265 572 q 274 554 263 557 q 296 593 289 569 q 321 635 303 617 q 333 662 325 649 q 351 690 342 675 q 369 721 360 704 q 386 760 378 738 l 386 758 q 447 860 422 817 q 491 935 472 904 q 523 981 510 965 q 550 996 536 996 l 569 996 q 590 997 581 996 q 608 997 599 997 l 646 997 q 665 994 654 996 q 685 993 676 993 q 713 997 696 993 q 730 991 721 996 q 739 971 739 986 q 723 926 739 956 q 685 863 707 896 q 644 799 664 829 q 615 751 624 768 q 580 685 601 719 q 538 621 558 651 q 503 565 518 590 q 489 522 489 539 q 502 484 489 504 q 531 445 515 464 q 559 409 546 426 q 572 378 572 392 q 600 338 594 361 q 613 307 606 315 q 644 268 629 292 q 672 220 660 244 q 693 178 685 196 q 704 158 701 160 q 726 125 713 144 q 753 85 740 106 q 774 47 765 65 q 783 19 783 29 q 776 3 783 8 q 757 -4 768 -1 q 735 -7 746 -7 q 718 -7 724 -7 q 697 -4 708 -7 q 676 -1 686 -1 q 667 -1 672 -1 q 658 -3 661 -1 l 567 -3 q 538 22 553 4 q 508 63 522 40 q 481 109 494 85 q 458 153 468 133 l 438 194 q 392 263 418 224 q 353 339 365 303 q 330 372 339 354 q 312 408 321 390 q 292 440 303 425 q 265 467 282 456 q 265 453 265 460 q 264 442 264 447 l 264 411 q 265 407 264 408 q 265 403 265 406 l 261 401 q 265 374 264 390 q 265 346 265 357 q 263 326 265 335 q 260 306 260 317 q 261 296 260 299 q 260 282 260 292 q 263 262 260 272 q 265 239 265 251 q 263 225 265 232 q 260 214 260 218 q 263 201 260 204 q 265 190 265 197 q 263 183 265 186 q 261 175 261 179 q 263 167 261 171 q 264 158 264 163 q 260 151 264 156 q 265 138 265 146 q 263 122 265 126 q 261 107 261 117 q 263 101 261 104 q 265 94 264 97 q 261 51 261 74 q 262 43 261 47 q 263 33 263 39 q 253 13 263 22 q 235 -3 244 3 l 171 -3 q 167 -2 168 -3 q 164 -1 165 -1 q 144 -4 149 -1 q 132 -7 139 -7 q 97 -5 122 -7 q 60 6 72 -3 q 49 32 49 17 q 44 64 49 47 q 47 74 46 68 q 49 82 49 79 q 47 94 49 88 q 46 104 46 100 q 49 124 46 115 q 53 142 53 132 q 51 155 53 147 q 50 169 50 163 l 50 199 q 48 219 50 210 q 46 242 46 229 q 47 265 46 253 q 49 286 49 276 l 49 296 q 44 324 44 310 l 44 342 q 45 352 44 347 q 46 364 46 357 q 46 376 46 371 q 44 386 46 382 q 49 393 49 390 q 47 398 49 396 q 46 403 46 400 q 49 410 46 407 q 46 421 46 415 q 48 434 46 428 q 50 449 50 440 q 48 474 50 460 q 46 496 46 488 q 49 515 46 507 q 53 531 53 522 q 51 538 53 533 q 49 550 49 543 q 50 560 49 557 l 50 644 q 49 658 49 647 l 49 681 q 46 694 49 689 q 49 708 49 703 q 47 726 49 718 q 44 742 44 733 q 49 763 44 753 q 53 785 53 772 q 51 838 53 810 q 46 890 49 867 q 47 905 46 897 q 49 919 49 913 q 44 947 49 932 q 58 982 46 968 q 82 996 69 996 q 96 994 90 996 q 111 992 101 992 q 117 993 113 992 q 124 996 121 994 l 138 996 q 154 997 146 996 q 171 997 163 997 l 201 997 q 227 995 207 997 q 256 982 247 993 m 165 353 q 160 358 157 353 q 150 363 163 363 l 149 350 q 155 347 153 350 q 164 344 157 344 q 167 351 167 347 l 165 353 m 139 204 l 136 207 q 133 208 133 207 q 131 208 132 208 q 126 203 126 208 l 129 196 q 139 201 139 196 l 139 204 m 182 208 q 169 207 171 208 q 175 197 169 197 q 182 201 179 201 l 182 208 m 460 347 l 460 350 q 456 358 456 351 l 447 361 l 447 350 l 460 347 m 183 258 q 178 251 178 258 l 186 249 q 190 256 190 249 l 183 258 m 115 286 q 106 290 115 290 l 106 281 l 114 281 l 115 286 m 190 421 q 182 422 189 422 l 182 418 q 188 411 182 411 q 190 419 190 414 l 190 421 m 172 156 q 165 167 172 167 l 164 160 q 171 154 164 154 l 172 156 m 168 274 q 161 278 168 278 l 157 274 l 158 274 q 154 272 156 272 q 153 265 153 272 q 162 269 161 265 q 167 272 163 272 l 168 274 m 157 382 q 151 385 154 385 q 149 376 149 385 q 156 372 150 372 q 157 381 157 376 l 157 382 m 92 185 q 97 193 92 193 q 90 199 97 199 q 86 186 86 194 l 92 185 m 179 136 q 169 140 175 140 l 169 131 q 179 135 179 131 l 179 136 m 190 124 l 181 125 l 181 117 q 190 119 190 117 l 190 124 m 172 460 l 167 461 q 164 454 164 461 q 172 451 167 451 l 172 460 m 203 160 q 192 154 192 160 q 201 153 193 153 l 203 160 m 194 368 l 188 358 l 190 356 l 194 368 m 186 331 q 183 332 183 332 q 181 326 181 332 q 185 324 183 324 q 193 329 188 324 l 192 332 q 188 329 186 329 l 186 331 m 129 357 l 128 363 q 122 357 122 363 q 128 351 122 351 l 129 357 m 181 432 q 176 435 178 433 q 172 436 175 436 q 171 431 171 433 q 175 426 171 426 l 181 432 m 151 236 q 147 231 144 236 q 142 226 150 226 q 151 221 147 221 l 151 229 q 153 233 151 232 l 151 236 m 389 493 q 383 479 383 493 q 393 492 390 486 l 389 493 m 161 331 q 153 333 158 333 l 154 324 q 161 329 161 324 l 161 331 m 93 492 q 86 479 86 492 l 93 492 m 596 154 l 597 156 l 596 165 l 593 165 q 592 162 593 163 q 592 158 592 161 q 593 153 592 154 l 596 154 m 219 265 l 219 274 q 213 269 213 274 q 217 264 213 264 l 219 265 m 135 243 q 138 250 136 246 q 139 261 139 254 q 135 253 132 254 q 131 247 138 251 l 135 243 m 222 518 q 210 524 222 524 l 217 517 l 222 518 m 217 250 q 208 253 208 253 q 206 247 206 253 l 217 250 m 136 508 q 131 500 131 503 q 136 497 131 497 l 136 508 m 101 418 q 92 421 101 421 l 99 414 l 101 418 m 204 453 q 199 456 199 456 l 197 456 l 192 454 q 199 450 192 450 l 204 453 m 188 285 q 181 269 181 278 q 188 278 188 271 l 188 285 m 118 157 q 124 150 118 150 q 125 156 125 151 l 118 157 m 207 394 l 200 401 l 197 399 l 207 394 m 88 229 l 81 222 l 83 219 l 88 229 m 231 190 q 228 191 229 190 q 226 192 228 192 q 224 185 224 192 l 231 190 m 128 239 q 126 240 126 239 q 124 240 125 240 q 121 233 121 240 l 128 239 m 129 313 q 122 315 129 315 q 126 308 124 308 l 129 311 l 129 313 m 133 328 q 129 329 132 329 q 126 324 126 329 l 133 328 m 450 333 l 451 326 q 457 332 457 326 l 450 333 m 483 356 q 492 368 492 356 l 483 356 m 565 196 l 568 189 q 572 194 572 189 l 565 196 m 421 425 l 413 422 l 413 419 l 421 425 m 168 500 q 174 499 169 499 q 183 504 178 499 l 168 500 m 90 261 q 99 263 97 261 q 100 271 100 265 l 90 261 m 119 128 l 117 128 l 114 124 l 117 124 l 119 128 m 553 271 l 556 263 l 558 263 l 553 271 m 421 447 l 418 453 l 415 453 l 421 447 m 165 172 q 175 176 175 172 l 165 172 m 214 222 l 214 219 q 224 224 219 219 l 222 226 l 214 222 m 101 117 q 96 124 101 124 l 96 121 l 101 117 m 143 349 l 140 357 l 138 357 l 140 346 l 143 349 m 217 425 l 219 425 l 222 432 l 219 432 l 217 428 l 217 425 m 185 296 l 188 294 q 190 301 190 297 l 188 301 l 185 296 m 169 471 l 172 471 l 171 475 l 168 475 l 169 471 m 535 267 l 535 264 q 540 268 540 264 l 535 267 m 144 303 q 149 308 149 303 l 146 308 l 144 303 z "},"P":{"ha":733,"x_min":44,"x_max":688,"o":"m 236 997 q 254 997 246 997 q 272 996 263 996 l 290 996 q 300 996 294 996 q 308 997 306 996 q 325 994 317 997 q 342 992 333 992 q 353 994 349 992 q 364 996 357 996 q 385 994 374 996 q 408 992 397 992 q 417 992 413 992 q 425 993 422 992 q 488 977 454 988 q 551 951 521 967 q 606 912 582 935 q 642 860 631 889 l 649 849 q 665 823 658 835 q 671 796 671 811 q 669 790 671 790 q 668 783 668 789 q 681 758 676 761 q 685 742 685 754 q 684 738 685 739 q 683 733 683 736 l 683 725 q 685 709 683 718 q 688 693 688 700 q 684 660 688 676 q 681 626 681 644 q 683 611 681 617 q 681 606 681 608 q 681 603 681 603 q 682 601 682 603 q 661 547 665 575 q 640 493 657 519 l 553 414 q 451 375 510 375 q 439 370 446 371 q 428 369 432 369 l 401 369 q 386 370 394 369 q 369 371 378 371 q 349 367 358 371 q 332 363 339 363 q 322 365 326 363 q 314 367 318 367 q 305 365 310 367 q 296 363 300 363 q 285 367 293 363 q 270 360 274 367 q 264 347 267 354 l 264 349 q 263 346 263 347 q 261 343 263 344 q 264 321 264 335 q 262 292 264 306 q 260 263 260 278 q 262 242 260 251 q 264 222 264 233 q 262 194 264 207 q 260 167 260 182 q 263 155 260 160 q 265 143 265 150 q 263 113 263 129 q 263 82 263 97 l 263 60 q 255 13 263 32 q 218 -6 247 -6 q 198 -4 206 -6 q 182 -3 190 -3 q 165 -6 174 -6 q 151 -4 156 -6 q 139 -3 146 -3 q 122 -7 131 -3 q 104 -6 119 -6 l 88 -6 q 65 6 75 -6 q 49 28 54 17 l 49 118 q 53 132 53 122 q 51 149 53 142 q 49 169 49 157 q 51 200 49 186 q 53 231 53 214 q 50 253 53 242 q 53 263 53 256 q 51 275 53 269 q 50 289 50 281 l 49 317 q 44 338 49 329 q 50 372 50 354 q 49 381 50 376 q 49 388 49 385 l 49 400 q 49 412 49 407 q 50 422 50 417 l 50 449 q 46 467 46 457 q 48 484 46 476 q 50 503 50 492 q 50 511 50 507 q 49 518 50 515 q 51 525 50 521 q 53 532 53 529 q 51 540 53 535 q 49 550 50 546 l 49 583 q 44 617 49 606 q 47 635 44 624 q 49 658 49 647 q 47 680 49 669 q 44 701 44 690 q 49 729 47 714 q 50 760 50 744 q 44 801 50 781 q 49 835 49 822 q 47 851 49 843 q 44 867 44 858 q 47 872 46 869 q 49 876 49 874 q 47 883 49 879 q 44 892 44 886 q 47 899 44 896 q 49 907 49 903 l 49 926 q 49 935 49 931 q 50 943 49 940 q 49 947 49 944 q 72 993 49 974 q 77 992 75 993 q 82 992 79 992 l 92 992 q 103 994 99 992 q 115 996 108 996 l 143 996 q 150 997 147 996 q 156 997 153 997 l 165 997 q 171 997 168 997 q 176 996 174 996 l 189 996 q 201 997 199 996 l 236 997 m 289 814 l 282 814 q 261 793 261 814 q 265 769 261 786 q 261 749 261 754 q 263 723 261 738 q 265 700 265 708 q 265 691 265 694 q 264 683 264 688 l 264 667 q 265 654 264 657 q 264 647 264 651 q 264 639 264 643 l 264 611 q 267 599 267 600 q 268 594 268 597 q 266 583 268 589 q 264 569 264 578 q 278 546 264 550 q 297 547 283 547 l 319 547 q 350 548 335 547 q 381 554 365 549 q 385 553 383 554 q 389 553 386 553 q 422 567 407 553 q 446 601 436 581 q 460 641 456 621 q 465 674 465 661 q 461 706 465 686 q 463 713 461 710 q 464 724 464 717 q 456 758 464 746 q 435 779 447 771 q 407 794 422 788 q 378 813 392 801 l 289 814 m 183 199 l 175 203 l 176 203 q 169 207 174 206 q 158 208 165 208 l 158 194 q 167 200 164 200 l 171 196 q 179 193 174 193 q 185 196 182 193 l 183 199 m 154 353 q 149 356 149 353 l 149 361 q 142 365 149 365 l 138 350 l 146 350 q 149 344 149 350 q 156 351 156 344 l 154 353 m 131 203 q 125 208 122 206 q 118 211 128 211 l 117 203 q 117 199 117 201 q 118 194 118 197 l 131 203 m 196 453 q 186 460 192 460 q 179 456 183 460 l 189 446 l 196 453 m 172 497 q 158 504 172 504 l 158 494 l 172 497 m 231 468 q 219 457 219 461 l 226 454 q 228 458 226 457 q 231 464 231 460 l 231 468 m 179 417 q 169 422 179 422 l 169 415 q 175 410 169 410 q 179 417 179 414 m 151 328 q 146 335 151 335 q 140 329 140 335 q 147 324 140 324 l 151 328 m 217 421 q 207 429 213 429 q 204 424 204 429 q 211 418 204 418 l 217 421 m 94 290 l 94 281 q 104 290 104 281 l 94 290 m 81 185 q 84 188 83 188 q 85 196 85 188 q 75 186 75 196 l 81 185 m 179 253 q 172 258 179 258 q 169 247 169 256 q 179 253 179 250 m 161 456 l 160 461 q 157 463 157 463 q 153 454 153 463 q 160 451 156 451 l 161 456 m 222 488 l 213 488 l 213 479 l 222 479 l 222 488 m 168 136 q 158 140 164 140 l 158 131 l 165 131 l 168 136 m 161 160 q 154 167 161 167 q 153 158 153 165 l 158 154 l 161 160 m 196 156 q 185 161 190 161 q 183 157 183 160 q 190 153 183 153 l 196 156 m 183 336 q 173 330 176 329 q 169 321 169 331 q 180 325 176 328 q 183 329 183 322 l 183 336 m 157 275 q 151 278 154 278 l 142 269 q 146 265 143 265 q 151 269 149 265 q 156 272 153 272 l 157 275 m 179 278 q 172 282 179 282 q 169 274 172 276 q 174 272 171 272 q 179 278 179 272 m 243 388 q 233 390 243 390 l 233 382 q 243 388 243 382 m 194 397 l 188 404 l 185 394 q 192 392 190 392 q 196 394 193 392 l 194 397 m 213 525 q 199 518 206 525 l 207 517 q 213 522 213 517 l 213 525 m 183 497 l 174 497 q 172 494 172 496 q 182 490 172 490 l 183 497 m 149 667 l 146 667 l 142 651 q 149 646 143 651 l 149 667 m 179 124 l 167 124 l 176 117 l 179 124 m 161 254 l 157 258 q 153 251 153 258 l 158 249 l 161 254 m 290 463 l 288 463 l 285 453 l 288 453 l 290 463 m 183 368 l 174 356 q 183 360 183 356 l 183 368 m 125 503 q 118 508 125 508 q 124 497 118 497 l 125 503 m 372 492 l 372 482 q 378 483 381 482 q 383 492 376 485 l 372 492 m 119 357 l 117 363 q 113 357 113 363 q 118 351 113 351 l 119 357 m 214 460 q 212 459 213 460 q 210 458 211 458 l 208 458 l 206 457 l 206 454 q 211 451 211 451 q 215 458 215 451 l 214 460 m 208 265 l 208 274 q 201 269 201 274 q 206 264 201 264 l 208 265 m 233 422 q 229 418 229 419 q 235 415 229 415 l 239 419 l 233 422 m 160 476 q 154 488 160 482 q 161 467 154 474 l 160 476 m 142 236 q 137 233 135 236 q 131 221 139 229 q 141 226 140 221 q 143 233 142 232 l 142 236 m 131 353 l 121 350 q 129 346 126 346 q 133 351 133 346 l 131 353 m 204 251 q 197 254 201 254 l 196 247 l 203 247 l 204 251 m 133 465 q 126 476 133 476 l 129 467 l 133 465 m 183 67 q 174 69 183 69 l 181 63 l 183 67 m 228 371 q 222 367 224 367 l 221 367 l 221 364 l 226 363 l 228 371 m 219 189 q 215 190 218 190 q 213 185 213 190 l 219 189 m 117 238 q 113 239 115 239 q 110 233 110 239 l 117 238 m 78 492 l 75 485 q 83 490 83 485 l 78 492 m 192 465 q 188 474 192 474 l 185 467 l 192 465 m 129 258 q 122 253 122 258 l 129 258 m 125 328 q 122 328 122 328 q 119 329 121 329 q 117 324 117 329 l 125 328 m 174 303 l 174 292 q 179 300 179 297 l 174 303 m 176 551 q 169 553 175 553 l 172 547 l 176 551 m 251 401 l 247 406 l 244 403 l 249 396 l 251 401 m 175 154 l 175 157 l 171 160 l 171 157 l 175 154 m 279 421 l 274 418 l 274 415 l 279 421 m 194 232 q 185 228 189 232 l 194 232 m 132 303 q 139 308 139 303 l 136 308 l 132 303 m 260 496 l 261 488 l 264 488 l 260 496 z "},"V":{"ha":844,"x_min":44,"x_max":800,"o":"m 231 996 q 252 972 244 988 q 264 940 260 957 q 272 908 268 924 q 279 879 275 892 q 285 865 282 872 q 289 847 289 857 l 289 836 q 306 793 297 818 q 321 741 314 768 q 333 690 328 714 q 340 650 338 665 l 340 642 q 347 603 340 625 q 363 559 354 582 q 378 513 371 536 q 386 471 385 490 q 393 449 392 463 q 397 420 394 436 q 406 386 400 404 q 424 350 411 368 q 439 382 439 365 q 446 417 439 399 q 444 424 444 418 q 452 472 444 442 q 469 537 460 503 q 490 604 479 571 q 504 661 500 638 q 517 715 507 690 q 533 768 528 740 l 567 903 q 569 913 567 910 q 574 921 571 917 l 574 919 q 579 935 579 928 q 578 942 579 940 q 581 957 578 947 q 589 976 583 967 q 604 991 594 985 q 626 997 614 997 l 672 997 q 682 996 679 997 q 697 997 685 997 q 725 993 708 997 q 751 997 742 997 q 782 989 767 997 q 800 967 797 981 l 792 942 q 785 919 789 932 q 778 904 781 907 l 778 892 q 764 827 778 860 q 744 763 750 794 q 736 732 736 751 l 736 724 q 724 701 736 710 q 717 656 724 679 q 702 608 710 632 q 688 564 694 585 q 681 526 681 543 q 667 476 681 503 q 649 421 653 449 l 649 411 q 644 380 649 396 q 633 348 639 364 q 623 315 628 332 q 617 285 618 299 q 589 201 597 236 q 576 139 581 165 q 566 95 571 113 q 550 68 561 78 l 550 58 q 547 40 550 50 q 540 20 544 29 q 530 4 536 11 q 515 -3 524 -3 l 508 -3 q 506 -2 507 -3 q 503 -1 506 -1 q 484 -3 492 -1 q 468 -6 476 -6 q 454 -3 460 -6 q 444 -7 450 -7 q 436 -3 438 -7 q 392 -6 417 -6 q 351 -7 368 -7 q 319 3 332 -7 q 299 26 307 13 q 289 53 292 39 q 286 79 286 68 q 281 97 286 90 q 274 118 276 103 q 270 139 274 133 q 267 156 267 144 q 250 197 256 176 q 240 236 244 217 q 232 276 236 256 q 221 317 228 296 q 213 348 215 336 q 209 369 211 360 q 205 385 207 378 q 199 401 203 392 q 175 481 183 428 q 169 512 172 496 q 157 540 165 528 l 157 539 q 149 566 153 549 q 143 602 146 583 q 135 637 140 621 q 125 660 131 653 q 113 697 125 674 q 101 744 101 721 q 87 788 97 772 q 76 825 76 803 q 77 830 76 828 q 78 833 78 832 l 78 839 q 55 901 65 868 q 44 965 44 935 q 50 983 44 974 q 71 996 56 992 q 88 992 75 992 q 101 996 97 992 l 114 996 q 130 997 122 996 q 144 997 138 997 l 174 997 q 203 996 196 997 l 231 996 m 421 204 q 417 208 418 204 q 417 215 417 213 l 401 207 q 410 199 410 201 q 403 194 406 194 l 383 194 q 394 183 394 188 l 397 183 q 406 189 401 189 q 413 181 413 185 q 417 174 414 176 l 415 171 q 421 165 415 164 q 426 158 426 165 l 443 158 q 438 165 439 164 q 435 167 436 167 q 431 167 433 167 q 426 171 429 168 l 426 183 q 417 193 417 183 q 421 201 417 199 l 421 204 m 453 179 q 449 189 449 183 l 446 189 q 442 185 443 185 l 442 182 q 446 178 446 179 q 444 169 446 172 q 442 160 442 165 q 449 153 442 154 q 456 157 453 157 q 461 144 461 157 q 464 149 463 147 q 468 154 465 151 q 472 161 471 157 l 456 161 q 449 167 449 161 q 452 172 449 171 q 458 176 456 174 l 453 179 m 472 200 q 460 213 465 200 q 456 209 457 210 q 453 207 454 208 q 448 208 451 208 q 443 208 444 208 q 447 201 447 204 l 447 193 l 450 193 q 458 200 453 200 q 463 194 463 196 l 468 193 q 476 190 474 193 q 479 197 479 193 q 476 200 479 200 l 472 200 m 404 263 l 411 256 q 413 253 411 254 q 414 250 414 251 q 397 240 407 240 l 397 238 q 400 236 399 236 q 401 229 401 236 l 413 240 q 419 236 415 240 l 418 246 q 420 255 418 254 q 422 263 422 256 l 404 263 m 469 254 q 463 258 465 258 q 453 256 457 258 q 443 254 449 254 l 446 247 q 449 248 447 247 q 453 249 450 249 l 461 249 q 460 244 461 246 q 458 242 458 243 q 464 238 458 238 q 465 244 464 240 q 468 249 465 249 l 469 254 m 393 178 q 392 169 392 176 q 394 163 392 165 l 399 158 q 393 150 399 156 l 404 149 l 410 161 q 398 170 399 164 q 397 179 397 176 l 393 178 m 381 194 q 378 200 381 201 q 374 207 376 199 q 363 196 371 196 q 374 181 363 183 l 374 188 q 379 192 378 192 l 381 194 m 504 226 q 497 229 500 231 q 490 231 494 228 l 489 228 q 490 222 490 226 q 490 218 490 219 q 489 215 489 217 l 489 208 q 492 207 490 207 q 496 210 499 207 q 504 224 493 213 l 504 226 m 453 143 q 447 135 447 143 q 454 128 447 129 q 461 121 461 128 l 469 114 q 463 128 469 129 q 457 135 457 128 l 463 140 l 453 143 m 436 232 q 424 239 436 239 q 421 221 424 226 l 432 219 q 433 229 432 228 l 436 232 m 508 194 q 499 185 499 194 q 511 182 503 182 q 513 190 513 183 l 508 194 m 385 268 q 379 271 382 271 q 372 265 372 271 q 372 261 371 263 q 378 253 372 257 q 381 260 378 263 q 385 267 385 258 l 385 268 m 374 217 q 360 228 367 228 l 360 217 l 374 217 m 394 286 q 392 292 394 292 q 387 291 389 292 q 382 290 385 290 q 386 281 382 281 q 390 282 388 282 l 394 286 m 401 133 l 392 133 l 392 121 q 401 128 401 121 l 401 133 m 488 185 q 478 188 485 188 l 479 182 q 472 174 479 181 q 476 168 474 171 l 478 167 l 481 167 q 488 182 481 171 l 488 185 m 442 346 q 435 361 442 361 q 431 354 431 361 l 442 346 m 501 271 q 493 275 497 275 q 492 271 492 274 q 492 266 492 268 q 493 257 493 264 q 501 269 501 265 l 501 271 m 386 124 l 378 124 q 375 124 376 124 q 371 125 374 125 l 371 117 l 385 117 l 386 124 m 439 60 l 439 63 q 433 68 439 68 l 431 54 l 439 51 l 439 54 q 438 57 438 56 q 439 60 439 58 m 449 275 q 442 278 446 278 q 433 271 442 271 q 435 261 435 267 l 438 261 q 444 269 438 265 l 449 274 l 449 275 m 381 217 q 369 219 378 219 l 376 204 q 383 213 378 213 l 383 215 q 381 217 382 215 m 446 210 q 436 215 440 215 l 428 208 l 446 210 m 475 146 l 483 156 l 476 165 l 471 160 q 474 153 471 156 l 475 146 m 392 219 q 386 215 388 215 q 410 206 386 206 q 394 218 394 214 l 392 219 m 501 297 q 497 306 501 301 l 490 303 q 496 294 490 294 q 501 297 501 294 m 381 171 q 371 175 372 175 l 371 164 l 379 164 l 381 171 m 521 271 q 514 261 514 267 q 521 258 518 261 q 525 264 525 263 q 524 266 525 265 q 524 268 524 267 l 521 271 m 417 132 q 407 144 417 138 l 407 133 l 411 129 l 417 132 m 472 333 q 461 326 461 333 l 469 324 q 474 332 474 328 l 472 333 m 519 171 q 510 158 510 171 q 519 167 519 161 l 519 171 m 404 111 l 404 108 l 408 106 q 419 114 413 106 l 404 111 m 496 175 l 501 188 q 488 183 492 188 l 496 175 m 310 217 l 310 229 l 307 229 q 306 227 307 228 q 304 225 304 226 l 304 226 q 300 217 300 222 l 310 217 m 497 250 q 494 256 497 256 l 483 250 l 490 243 q 496 249 492 249 l 497 250 m 458 176 q 462 175 461 176 q 472 174 463 174 q 465 181 465 181 q 461 182 464 182 q 458 181 458 182 l 458 176 m 540 260 q 543 265 543 263 q 540 274 540 267 q 533 263 533 267 q 539 260 533 260 l 540 260 m 551 304 l 543 313 q 534 308 538 306 q 531 303 531 310 l 551 304 m 468 279 q 458 271 461 279 l 465 268 l 468 279 m 390 138 l 390 147 q 382 140 382 147 l 386 136 l 390 138 m 328 153 q 324 152 325 153 q 322 151 324 151 l 322 149 q 328 147 325 147 q 331 151 331 147 l 328 153 m 386 246 q 375 250 382 250 l 378 238 l 386 246 m 419 275 q 424 264 419 265 l 431 272 q 424 275 428 275 l 419 275 m 342 242 l 339 242 q 331 238 335 242 q 338 236 333 236 q 346 238 343 236 l 346 240 l 342 242 m 347 275 q 343 276 346 276 q 339 271 339 276 q 343 268 342 268 q 347 271 344 268 l 347 275 m 485 238 q 471 231 475 228 q 467 222 467 233 l 472 225 q 477 226 475 226 q 482 228 479 226 l 485 238 m 399 310 q 392 301 392 306 l 394 301 q 397 303 396 301 l 400 306 l 399 306 q 403 308 401 307 q 406 317 406 310 l 399 310 m 436 89 q 429 76 429 89 q 438 88 438 82 l 436 89 m 357 249 l 357 260 q 350 253 350 260 l 357 249 m 344 397 l 343 397 l 339 397 q 336 394 336 397 q 342 392 342 392 q 346 394 343 392 l 344 397 m 519 365 q 507 369 519 369 q 517 364 513 364 q 519 365 519 364 m 481 131 q 472 133 481 133 q 478 128 476 128 q 481 131 481 128 m 435 133 l 433 125 q 439 124 436 124 q 442 129 442 124 l 435 133 m 332 128 l 325 121 q 339 125 339 121 l 332 128 m 394 97 q 392 106 394 103 l 385 99 q 392 94 389 94 q 393 97 393 96 l 394 97 m 347 218 q 343 210 343 218 q 350 214 350 210 l 347 218 m 504 125 l 501 131 l 499 131 l 497 118 l 504 125 m 467 365 l 467 353 q 474 364 474 360 l 467 365 m 315 357 q 307 358 314 358 q 310 351 307 351 q 315 356 315 351 l 315 357 m 346 101 l 336 104 l 343 97 l 346 101 m 469 294 l 469 303 q 463 296 463 303 l 469 294 m 363 143 l 356 136 l 358 133 l 363 143 m 506 342 l 497 350 l 499 338 l 501 338 l 506 342 m 346 203 q 339 197 339 203 q 344 196 340 196 l 346 203 m 292 324 l 290 331 q 285 325 285 331 l 292 324 m 358 346 l 350 356 l 350 346 l 358 346 m 474 64 q 467 68 474 68 q 471 61 468 61 q 474 63 472 61 l 474 64 m 560 393 q 551 394 558 394 q 557 389 556 389 q 560 392 560 389 l 560 393 m 410 58 q 403 68 410 61 q 404 58 403 60 q 408 57 406 57 l 410 58 m 307 294 l 300 294 l 300 292 l 304 289 l 307 294 m 317 322 l 313 322 l 311 313 l 318 319 l 317 322 m 519 251 q 513 244 513 251 l 518 247 l 519 251 m 536 386 l 518 386 l 528 382 l 536 386 m 353 325 l 346 322 l 346 319 l 351 319 l 353 325 m 513 244 l 510 246 l 508 242 l 511 242 l 513 244 m 532 338 q 531 337 531 338 q 529 336 531 336 l 524 335 l 524 332 q 526 331 525 332 q 528 331 526 331 q 533 335 529 331 l 532 338 m 438 181 q 429 182 435 182 q 424 181 425 182 l 438 181 m 314 432 l 308 429 l 308 426 l 314 432 m 296 392 l 299 392 l 301 400 l 299 400 l 296 396 l 296 392 m 315 199 q 319 189 315 193 l 315 199 m 369 85 l 367 90 l 364 90 l 369 85 m 408 354 l 408 357 l 404 358 l 404 356 l 408 354 m 433 90 l 432 96 l 429 96 l 433 90 m 544 368 q 549 374 549 368 l 546 374 l 544 368 z "},"[":{"ha":476,"x_min":44,"x_max":431,"o":"m 310 997 q 331 1001 321 1001 q 353 1004 342 1000 q 378 1000 365 1000 q 403 996 392 1000 q 423 978 415 992 q 431 932 431 964 q 429 915 431 918 l 429 908 q 411 885 429 893 q 379 876 393 876 q 355 878 368 876 q 329 881 342 881 q 310 878 318 881 l 250 878 q 242 872 243 875 q 240 863 240 868 q 240 853 240 858 q 236 842 240 847 q 238 831 238 839 q 237 826 238 828 q 236 821 236 824 l 236 813 q 238 788 236 801 q 240 764 240 775 q 233 733 240 747 q 236 717 236 725 q 235 701 236 708 q 233 686 233 693 q 237 651 233 671 q 240 617 240 632 q 239 563 240 588 q 238 510 238 538 l 238 492 q 236 485 236 489 q 236 476 236 481 l 236 467 q 237 435 236 454 q 238 394 238 415 q 240 352 239 374 q 240 314 240 331 q 238 309 239 311 q 236 304 236 307 q 238 288 236 296 q 240 274 240 281 l 240 239 q 238 231 239 236 q 236 222 236 226 q 240 208 236 213 l 240 151 q 235 142 238 144 q 233 138 233 140 q 237 121 233 128 q 240 103 240 114 q 238 93 240 99 q 236 83 236 88 q 237 75 236 79 q 238 68 238 71 l 238 60 q 235 46 238 53 q 233 35 233 39 q 235 9 233 21 q 238 -12 238 -3 q 235 -24 238 -17 q 233 -35 233 -31 q 242 -51 233 -46 q 262 -60 250 -57 q 287 -63 274 -62 q 308 -64 300 -64 l 325 -64 q 344 -60 333 -64 q 396 -69 381 -64 q 416 -80 411 -74 q 421 -96 421 -86 q 426 -118 421 -106 q 422 -148 422 -133 q 406 -178 421 -162 l 400 -178 q 397 -177 397 -178 q 393 -176 396 -176 q 371 -181 379 -176 q 353 -185 363 -185 q 331 -183 342 -182 q 308 -181 319 -185 q 289 -189 296 -189 q 274 -185 281 -189 q 257 -182 267 -182 q 238 -183 246 -182 q 221 -185 229 -185 q 200 -183 210 -185 q 183 -181 190 -181 q 171 -184 176 -181 q 158 -187 165 -187 q 133 -181 144 -187 l 126 -185 q 118 -187 121 -187 q 106 -184 111 -187 q 96 -181 101 -181 q 92 -182 94 -181 q 86 -185 89 -183 q 60 -167 71 -182 q 49 -143 49 -151 q 53 -133 49 -137 q 49 -105 50 -119 q 49 -75 49 -90 l 49 -47 q 50 -40 50 -44 q 50 -32 50 -36 q 48 -13 50 -21 q 46 4 46 -6 q 49 15 46 10 q 46 31 46 21 q 49 57 46 44 q 53 83 53 69 q 51 103 53 94 q 49 124 49 113 q 53 147 49 139 q 49 169 49 157 l 49 243 q 46 260 49 249 q 51 297 49 279 q 53 332 53 315 q 51 353 53 340 q 49 379 49 367 l 49 396 q 46 418 49 407 q 49 428 49 421 l 49 435 q 53 444 49 442 q 49 463 50 454 q 49 481 49 471 l 49 499 q 51 524 53 510 q 53 551 50 538 q 49 558 49 556 q 51 568 49 564 q 53 578 53 572 q 51 594 53 586 q 49 614 49 603 l 49 657 q 47 667 49 661 q 46 678 46 674 q 48 691 46 685 q 50 704 50 697 q 47 716 50 710 q 44 729 44 722 q 49 740 44 732 l 49 839 q 51 844 50 842 q 53 849 53 846 q 51 857 53 853 q 49 867 49 861 q 51 876 49 872 q 53 886 53 879 q 51 910 53 896 q 49 938 49 924 q 63 983 49 965 q 122 1001 76 1001 q 150 997 131 1001 q 163 999 157 997 q 175 1000 168 1000 q 186 997 181 1000 q 214 1001 200 1001 q 244 1004 228 1000 l 265 997 q 279 999 272 997 q 293 1000 286 1000 q 310 997 301 1000 m 174 201 q 167 206 167 203 q 161 210 168 210 q 158 208 158 208 l 164 197 l 174 201 m 193 353 l 193 354 q 189 364 193 357 l 182 353 q 185 349 182 349 q 190 350 188 349 l 193 353 m 129 199 q 119 196 119 199 q 119 190 119 193 q 124 185 119 185 q 129 194 129 190 l 129 199 m 192 63 q 188 68 192 68 q 185 54 185 65 l 193 51 l 193 54 q 192 58 192 54 l 192 63 m 156 122 q 146 132 156 132 q 144 125 144 129 q 151 121 144 121 l 156 122 m 147 -8 q 140 -3 147 -3 q 138 -8 138 -6 q 146 -14 138 -14 l 147 -8 m 131 268 q 125 261 125 268 q 132 260 128 260 q 136 263 136 260 q 133 268 136 265 l 131 268 m 129 -99 q 121 -104 121 -99 q 124 -112 121 -112 l 129 -99 m 161 71 l 151 60 l 158 53 q 161 60 161 56 l 161 71 m 156 160 q 150 153 150 160 q 157 150 153 150 l 160 156 l 156 160 m 147 288 l 140 289 q 138 285 138 286 q 142 281 138 281 q 147 283 144 281 l 147 288 m 186 88 q 181 81 181 88 q 190 86 190 83 l 186 88 m 126 493 q 121 488 121 493 l 122 478 q 127 483 125 482 q 129 492 129 485 l 126 493 m 124 82 l 124 92 q 117 83 117 92 l 124 82 m 121 219 l 119 228 q 113 221 113 228 l 121 219 m 97 396 q 93 401 97 401 q 90 396 90 396 q 96 392 90 392 l 97 396 m 108 51 q 103 60 108 54 l 101 47 l 107 46 l 108 51 m 119 -71 q 113 -76 113 -71 q 118 -78 114 -78 l 119 -71 m 179 47 l 172 54 l 169 51 l 179 47 m 197 31 l 190 38 l 188 35 l 197 31 m 136 -31 l 126 -33 l 126 -36 l 136 -31 m 136 414 q 133 419 136 419 l 131 419 l 131 417 l 136 414 m 147 397 q 142 401 147 401 l 140 394 q 143 393 142 393 q 147 397 147 393 m 160 354 l 160 357 l 156 358 l 156 356 l 160 354 m 154 188 l 156 197 q 147 188 140 188 l 154 188 m 183 229 l 181 229 q 179 224 179 226 q 183 221 179 221 l 183 229 m 136 118 q 128 124 136 124 l 128 121 l 136 118 m 175 -72 q 179 -75 178 -75 q 183 -64 183 -75 l 175 -72 m 147 101 q 142 103 144 103 q 140 97 140 103 l 147 101 m 100 67 l 93 74 l 90 71 l 100 67 m 96 97 l 96 100 l 92 101 l 92 99 l 96 97 m 194 331 l 185 333 l 192 326 l 194 331 m 171 -53 q 165 -43 171 -49 l 171 -53 m 121 379 l 124 389 l 117 382 l 121 379 m 164 -86 q 174 -96 164 -96 l 164 -86 m 90 122 l 90 125 l 85 128 l 86 122 l 90 122 m 175 108 q 167 113 171 113 l 167 110 l 175 108 m 164 243 q 171 249 171 243 l 168 249 l 164 243 m 94 -24 l 97 -26 q 100 -21 100 -24 l 97 -21 l 94 -24 z "},"a":{"ha":765,"x_min":44,"x_max":722,"o":"m 364 899 q 383 900 375 899 q 403 901 392 901 q 420 900 413 901 q 439 899 428 899 l 451 899 q 493 882 482 899 q 508 844 504 865 q 515 800 513 822 q 529 767 518 778 l 529 768 q 545 708 539 742 q 557 642 551 675 q 569 582 563 610 q 586 540 576 554 l 586 542 q 635 362 617 431 q 662 253 653 293 q 674 193 671 213 q 679 162 676 174 q 687 138 682 150 q 704 99 692 125 q 714 60 708 76 q 722 21 719 44 q 708 3 718 13 q 690 -7 697 -7 q 665 -4 676 -7 q 639 -1 653 -1 q 617 -7 628 -1 q 606 -6 613 -6 q 593 -6 600 -6 q 580 -6 586 -6 q 571 -7 574 -6 q 537 19 550 -6 q 516 72 524 43 q 506 126 508 101 q 504 156 504 151 q 491 165 497 163 q 475 172 485 167 q 453 167 469 167 q 444 167 449 167 q 438 168 440 168 l 424 168 q 419 167 421 168 q 414 167 417 167 l 404 167 q 387 169 394 167 q 368 171 379 171 q 356 167 361 171 q 344 164 350 164 q 320 167 332 164 q 296 171 308 171 q 269 158 278 171 q 255 125 260 144 q 247 82 250 106 q 240 39 244 58 q 224 6 235 19 q 194 -7 214 -7 q 181 -5 188 -7 q 167 -3 174 -3 q 147 -6 158 -6 l 107 -6 q 99 -6 103 -6 q 88 -7 94 -7 q 58 -1 71 -7 q 44 31 44 6 q 52 83 44 56 q 69 140 60 111 q 86 194 78 168 q 97 244 94 221 q 113 283 106 257 q 119 324 119 310 q 136 398 119 361 q 157 475 153 435 q 179 565 174 518 q 204 654 185 611 q 216 713 208 685 q 231 765 224 742 l 231 764 q 248 807 246 783 q 254 851 250 831 q 272 887 258 872 q 325 901 286 901 q 342 900 335 901 q 364 899 350 899 m 390 646 q 385 655 383 651 q 379 658 388 658 q 363 601 368 631 q 351 542 358 571 l 351 535 q 344 515 351 525 q 336 492 336 506 q 338 488 338 489 q 339 486 339 488 q 320 423 328 460 q 311 349 313 386 q 328 340 311 342 q 346 343 336 343 q 367 342 357 343 q 388 340 376 340 q 408 343 400 340 q 419 342 414 343 q 432 340 425 340 q 446 342 442 340 q 450 357 450 344 q 444 391 450 375 q 438 425 438 407 q 440 440 438 432 q 426 487 432 464 q 413 532 421 510 l 413 554 q 410 572 413 560 q 403 597 407 583 q 396 622 400 610 q 390 644 392 635 l 390 646 m 540 306 q 532 311 538 306 l 521 311 q 514 304 514 311 l 519 303 q 524 303 522 303 q 526 304 525 304 q 533 300 533 304 l 540 306 m 243 306 q 229 310 239 310 q 219 303 219 310 l 231 303 q 238 300 235 303 l 243 306 m 525 271 q 517 261 517 271 q 525 260 519 260 q 531 263 528 260 l 525 271 m 244 333 q 236 326 236 333 q 242 324 239 324 q 247 332 247 324 l 244 333 m 254 267 q 244 271 249 267 l 244 254 q 253 258 249 258 l 254 267 m 543 333 q 533 328 533 331 q 540 324 533 324 l 543 333 m 511 268 l 501 268 l 501 260 q 511 265 511 260 l 511 268 m 481 274 q 475 268 475 274 l 479 264 q 485 266 482 265 q 488 271 488 267 l 481 274 m 453 258 q 443 249 446 258 q 451 249 450 249 q 454 251 453 250 l 453 258 m 486 349 l 479 343 q 488 336 479 336 q 488 340 488 339 q 489 344 489 342 l 486 349 m 567 154 q 567 158 567 157 q 568 163 568 160 q 561 167 568 167 l 561 154 l 567 154 m 183 306 q 181 300 181 306 q 186 296 182 296 q 190 303 190 296 l 183 306 m 521 246 l 515 247 q 513 242 513 247 q 521 238 513 238 l 521 246 m 225 274 l 224 261 q 228 260 225 260 q 232 267 232 260 l 225 274 m 479 254 q 469 247 469 254 l 476 247 q 482 250 482 247 l 479 254 m 190 271 q 181 274 188 274 l 181 265 l 189 265 l 190 271 m 301 328 l 299 328 q 296 321 296 325 q 301 315 296 315 l 301 328 m 151 125 q 149 118 149 125 q 156 117 150 117 q 157 124 157 118 l 151 125 m 549 268 q 540 260 540 268 l 547 261 l 549 268 m 294 221 l 292 226 q 288 221 288 226 q 293 215 289 215 l 294 221 m 333 272 q 326 278 333 278 q 325 275 325 275 l 325 274 q 332 271 325 271 l 333 272 m 540 193 l 536 206 l 533 206 l 533 194 l 540 193 m 183 250 q 179 254 183 254 q 174 247 174 254 q 183 250 183 247 m 224 236 l 224 246 q 215 240 215 246 l 224 236 m 222 338 l 213 335 q 219 331 213 331 l 222 338 m 603 315 l 596 322 l 593 319 l 603 315 m 594 217 l 593 225 q 582 217 582 222 l 594 217 m 200 189 q 190 192 200 192 l 197 185 l 200 189 m 279 329 l 272 331 q 271 324 271 329 l 279 329 m 504 365 q 496 369 504 369 q 503 363 499 363 q 504 365 504 364 m 171 156 q 167 160 171 160 l 164 153 q 171 156 171 153 m 290 289 l 290 300 l 283 292 l 290 289 m 490 301 l 479 292 l 482 297 l 490 301 m 447 268 q 451 275 451 272 q 450 278 451 278 q 447 282 449 279 l 447 268 m 350 219 l 347 226 l 344 226 l 344 221 l 350 219 m 142 135 l 144 135 l 143 147 l 140 147 l 140 138 l 142 135 m 575 188 l 572 193 l 569 193 l 575 188 m 578 351 l 569 354 l 574 357 l 574 354 l 578 351 m 247 388 l 247 397 l 244 397 l 243 389 l 247 388 m 597 235 l 600 235 l 603 239 l 600 239 l 597 235 m 350 188 q 357 193 357 188 l 354 193 l 350 188 m 625 97 l 625 100 l 621 101 l 621 99 l 625 97 m 610 151 l 601 149 l 601 146 l 610 151 z "},"f":{"ha":650,"x_min":44,"x_max":606,"o":"m 238 899 q 253 901 243 901 q 267 900 260 901 q 282 899 275 899 q 297 901 292 899 l 542 901 q 587 888 569 901 q 604 828 604 874 q 600 808 604 821 l 600 790 q 601 782 600 786 q 601 772 601 778 l 601 763 q 606 756 606 758 q 598 736 606 744 q 580 723 590 728 q 558 716 569 718 q 538 714 546 714 l 526 714 q 524 715 525 714 q 520 715 521 715 q 518 714 519 714 l 517 714 l 506 714 q 501 715 503 714 q 496 715 499 715 l 486 715 q 480 715 483 715 q 472 714 476 714 q 456 718 468 714 q 422 715 436 718 q 392 711 407 711 q 372 714 381 711 q 333 710 351 711 q 297 710 314 710 l 283 710 q 276 710 281 710 q 269 711 272 711 q 243 694 244 711 q 244 667 244 689 l 244 635 q 247 610 244 621 q 244 593 244 601 q 251 556 244 568 q 278 544 257 544 l 290 544 q 297 545 293 544 q 304 546 300 546 l 310 546 q 325 548 317 547 q 342 549 333 549 l 375 549 q 385 544 376 546 q 396 542 393 542 q 404 546 400 542 q 411 543 407 544 q 417 542 415 542 q 434 544 425 542 q 451 546 443 546 q 472 536 463 546 q 482 515 482 526 q 481 506 482 511 q 479 494 479 500 q 482 481 479 489 q 479 461 479 467 l 479 400 q 435 358 479 358 q 407 360 419 358 q 381 361 394 361 q 353 358 364 361 q 325 360 338 358 q 301 363 313 363 q 294 360 296 363 q 289 358 292 358 l 286 361 l 271 361 q 266 362 268 361 q 261 363 264 363 q 246 349 249 363 q 243 324 243 336 q 244 315 243 321 q 247 306 246 310 q 244 290 244 300 q 246 270 244 281 q 247 253 247 260 q 244 231 247 239 q 247 201 247 217 l 247 186 q 244 174 247 182 q 248 150 247 163 q 249 126 249 138 q 246 87 249 106 q 243 51 243 68 q 245 37 243 43 q 247 24 247 31 q 237 3 247 13 q 214 -6 226 -6 l 194 -6 q 182 -7 185 -6 q 172 -6 178 -6 q 158 -6 165 -6 q 147 -6 151 -6 q 136 -7 142 -7 l 118 -7 q 94 -3 103 -7 q 83 -4 89 -3 q 75 -6 78 -6 q 53 9 60 -6 q 46 32 46 24 q 47 44 46 39 q 49 53 49 49 q 47 74 49 63 q 46 99 46 85 q 54 139 46 122 q 48 182 44 160 q 46 229 51 204 q 49 263 49 244 q 50 296 50 281 q 48 316 50 307 q 46 336 46 325 q 50 354 46 347 q 48 372 50 364 q 46 389 46 379 q 47 412 46 400 q 49 436 49 424 q 46 464 49 450 q 47 487 49 475 q 50 511 46 499 q 49 518 49 513 q 51 526 49 522 q 53 535 53 531 q 51 542 53 538 q 49 551 49 546 q 51 565 49 558 q 53 579 53 572 q 50 590 53 585 q 53 601 53 596 q 51 611 53 604 q 49 622 49 618 q 53 633 49 625 q 47 657 49 644 q 46 682 46 669 l 46 714 q 45 722 46 718 q 44 729 44 726 l 44 738 q 49 752 44 744 q 53 771 53 760 q 50 779 50 774 l 50 793 q 48 817 50 804 q 46 847 46 831 q 53 883 46 867 q 86 899 61 899 l 122 899 q 147 901 136 899 q 171 899 158 899 q 192 900 182 899 q 214 901 203 901 q 238 899 226 901 m 167 350 q 163 356 160 350 q 154 363 165 363 l 153 349 l 154 349 q 156 347 157 349 q 163 344 156 344 q 168 347 165 344 l 167 350 m 189 421 l 181 418 q 189 411 181 411 q 192 419 192 411 l 189 421 m 181 500 q 175 504 181 504 q 169 500 169 504 q 174 494 169 494 q 181 500 181 494 m 168 467 l 165 454 l 172 451 q 175 460 175 454 l 168 467 m 179 429 q 176 438 179 435 q 169 432 169 433 q 175 426 169 426 l 179 429 m 169 275 q 163 276 167 276 q 159 274 157 276 q 150 271 161 271 q 160 265 157 265 q 164 268 161 265 l 168 272 l 169 275 m 139 197 q 129 214 139 206 q 132 203 129 208 q 133 197 133 200 l 139 197 m 203 453 q 196 460 203 460 q 193 451 193 457 q 201 450 194 450 l 203 453 m 207 400 l 200 401 l 197 394 l 206 392 q 208 397 208 392 l 207 400 m 193 333 q 179 328 186 333 q 183 327 182 328 q 186 326 183 326 q 194 332 194 326 l 193 333 m 132 356 q 128 361 132 361 l 122 358 l 125 351 q 132 356 132 351 m 228 424 l 221 431 q 218 421 218 422 q 224 418 218 418 l 228 424 m 93 186 q 95 190 93 188 q 97 194 97 192 q 96 199 97 197 q 89 190 89 199 q 90 185 89 186 l 93 186 m 229 489 q 225 482 225 489 l 231 479 q 235 488 235 479 l 229 489 m 110 294 l 108 283 q 114 281 111 281 q 117 288 117 281 l 110 294 m 161 381 q 158 383 158 382 q 154 385 157 385 q 150 372 150 385 l 161 381 m 117 432 l 114 419 q 125 424 121 419 l 117 432 m 172 164 q 168 165 171 165 q 165 158 165 165 l 172 151 l 172 164 m 200 429 q 193 432 200 432 l 193 424 q 203 428 203 424 l 200 429 m 161 329 q 160 332 160 331 l 150 329 q 157 324 156 324 q 161 326 158 324 l 161 329 m 104 418 q 97 421 104 421 q 96 418 96 418 l 96 417 q 103 414 96 414 l 104 418 m 151 231 q 146 224 146 231 q 150 222 147 222 q 153 229 153 222 l 151 231 m 92 482 q 96 492 96 482 q 89 486 89 492 l 92 482 m 196 496 q 186 497 196 497 l 193 490 l 196 496 m 229 369 l 238 361 q 240 369 240 364 l 229 369 m 183 249 l 190 251 l 188 261 l 181 251 l 183 249 m 189 353 l 199 363 l 189 365 l 189 353 m 264 396 q 257 401 264 401 l 257 399 l 264 396 m 139 499 q 136 503 136 500 l 133 503 q 138 494 133 494 l 139 499 m 131 453 l 115 453 q 124 447 121 447 l 131 453 m 178 207 q 172 201 172 207 q 176 200 174 200 q 181 206 181 200 l 178 207 m 194 124 l 183 121 l 183 118 l 194 124 m 224 519 q 214 524 224 524 l 221 517 l 224 519 m 301 461 q 297 457 297 461 l 297 456 l 300 456 l 301 461 m 257 385 q 251 389 253 389 q 249 385 249 389 l 257 385 m 271 371 l 268 379 l 265 379 l 265 369 l 271 371 m 238 464 q 232 457 232 464 q 239 463 239 460 l 238 464 m 110 401 l 113 394 q 117 400 117 394 l 110 401 m 179 135 q 169 139 179 139 l 176 131 l 179 135 m 149 349 q 144 351 146 350 q 140 353 143 353 l 142 346 l 149 349 m 167 472 q 171 471 168 471 q 175 476 175 471 l 167 472 m 175 174 q 169 179 175 179 l 169 176 l 175 174 m 92 379 q 86 389 92 383 l 92 379 m 139 249 l 136 249 l 133 244 l 136 244 l 139 249 m 153 522 q 149 531 153 526 l 149 519 l 153 522 m 260 415 q 271 421 271 415 l 260 415 m 249 419 l 249 422 l 243 425 l 244 419 l 249 419 m 336 444 l 339 444 l 342 453 l 339 453 l 336 447 l 336 444 m 142 468 l 144 468 l 147 472 l 144 472 l 142 468 m 126 408 l 129 408 l 132 417 l 129 417 l 126 411 l 126 408 m 136 253 q 140 258 140 253 l 138 258 l 136 253 m 117 128 l 119 128 l 121 132 l 118 132 l 117 128 m 201 479 l 204 479 l 207 483 l 204 483 l 201 479 z "},"k":{"ha":760,"x_min":44,"x_max":715,"o":"m 244 868 q 243 851 243 864 q 245 828 243 840 q 247 807 247 817 q 246 796 247 800 q 244 788 244 792 q 247 772 244 779 q 249 757 249 765 q 244 740 249 750 q 249 721 249 732 q 247 699 249 710 q 244 678 244 689 q 247 658 244 667 q 244 653 244 656 q 247 643 244 647 q 249 635 249 639 l 249 606 q 251 586 249 594 q 247 550 249 569 q 244 514 244 531 l 253 508 q 294 572 276 538 q 329 642 313 607 l 329 640 q 347 660 342 649 q 358 683 353 671 q 369 707 363 694 q 386 731 375 719 q 395 758 388 746 q 412 782 403 771 q 428 804 421 793 q 440 831 436 815 q 451 853 446 840 q 465 876 457 865 q 485 894 474 888 q 515 901 497 901 q 540 899 528 901 q 567 897 553 897 q 588 901 576 897 q 611 898 600 899 q 633 897 622 897 l 640 897 q 644 898 643 897 q 649 899 646 899 q 664 893 657 897 q 672 881 671 889 q 663 848 669 863 q 647 819 656 833 q 628 790 638 804 q 613 760 618 776 l 613 761 q 590 725 597 744 q 565 688 583 706 q 527 618 553 651 q 485 542 501 585 q 460 510 474 525 q 447 471 447 494 q 469 435 454 450 q 489 401 485 419 q 507 376 497 392 q 525 347 517 361 q 539 319 533 332 q 544 300 544 306 q 594 229 568 268 q 645 152 621 190 q 688 79 669 114 q 715 22 707 44 q 696 1 707 10 q 665 -7 685 -7 q 644 -5 654 -7 q 621 -3 633 -3 q 599 -7 607 -3 q 591 -6 596 -6 q 582 -6 586 -6 q 574 -6 578 -6 q 565 -7 569 -7 l 554 -7 q 536 -3 542 -7 q 524 -7 528 -7 q 491 10 506 -7 q 464 51 476 28 q 440 98 451 75 q 418 132 428 121 l 418 131 q 392 184 406 161 q 363 232 378 207 q 346 273 358 254 q 319 310 333 292 q 290 350 304 329 q 268 397 275 371 l 254 414 q 247 397 247 410 l 244 304 q 249 285 249 289 q 247 265 249 274 q 244 249 244 257 q 248 233 244 240 q 251 221 251 225 q 249 212 251 217 q 247 203 247 207 q 249 194 247 197 q 243 178 243 183 q 246 159 243 167 q 251 140 249 151 q 250 133 251 140 q 248 118 249 126 q 246 102 247 110 q 244 92 244 94 q 246 65 244 78 q 247 40 247 53 q 240 10 247 19 q 223 -2 233 1 q 201 -5 213 -6 q 178 -7 189 -4 q 151 -1 164 -1 q 131 -3 140 -1 q 111 -6 122 -6 q 94 -3 100 -6 q 83 -7 88 -7 q 61 2 72 -7 q 44 25 50 11 q 47 36 44 28 q 49 43 49 40 q 47 60 49 53 q 44 76 44 68 q 47 92 44 85 q 50 110 50 100 q 48 126 50 117 q 46 147 46 136 q 49 167 46 158 q 46 178 46 169 q 48 194 46 183 q 50 214 50 206 q 48 238 50 225 q 46 263 46 250 q 48 321 46 290 q 50 381 50 351 q 49 393 49 383 l 49 406 q 49 412 49 408 q 50 419 50 415 q 49 427 50 422 q 46 435 47 432 q 49 449 49 440 q 47 465 49 458 q 46 481 46 472 q 49 494 49 489 q 47 508 49 500 q 46 522 46 515 q 47 533 46 529 q 49 539 47 536 q 46 546 46 542 l 46 554 q 44 564 46 563 q 49 593 49 581 q 44 625 49 604 l 49 642 l 49 653 q 50 667 49 664 q 44 701 44 679 q 47 720 44 713 q 50 740 50 728 q 48 756 50 747 q 46 772 46 764 q 49 785 46 779 q 45 806 46 797 q 44 822 44 814 q 46 848 44 835 q 52 872 47 861 q 67 891 57 883 q 96 899 78 899 q 103 898 100 899 q 111 897 107 897 l 128 897 q 156 901 140 897 q 182 899 168 899 q 208 898 196 900 q 231 890 221 896 q 244 868 240 883 m 147 199 q 133 208 139 199 q 122 201 122 208 q 131 200 129 201 q 135 197 132 199 l 133 197 q 143 193 138 193 q 149 196 146 193 l 147 199 m 115 347 l 107 363 q 103 354 103 358 q 106 352 104 353 q 108 350 107 351 l 108 351 l 110 346 l 115 347 m 176 226 q 169 231 172 231 q 165 219 165 231 q 176 224 172 219 l 176 226 m 140 254 q 135 256 138 256 q 131 249 131 256 l 139 249 l 140 254 m 410 349 q 401 361 410 361 l 401 351 q 408 347 406 347 l 410 349 m 168 251 q 161 254 165 254 l 158 244 q 168 250 168 244 l 168 251 m 149 361 l 140 369 l 138 358 q 144 356 140 356 l 149 361 m 139 271 q 140 285 140 272 l 129 274 q 138 271 132 271 l 139 271 m 179 369 l 189 361 q 192 369 192 364 l 179 369 m 172 269 q 165 274 172 274 q 163 267 163 268 q 167 265 163 265 l 172 269 m 124 167 q 118 158 118 161 q 124 154 118 154 l 124 167 m 113 328 q 106 333 113 333 l 106 324 q 113 326 110 324 l 113 328 m 129 135 q 122 139 129 139 l 122 131 q 129 135 129 131 m 140 419 q 136 421 139 421 q 133 415 133 421 q 139 414 135 414 l 140 419 m 157 399 q 147 401 157 401 l 154 394 l 157 399 m 179 343 l 169 346 l 169 333 l 179 343 m 149 168 l 149 153 q 157 156 154 153 l 149 168 m 147 329 q 139 333 147 333 q 146 326 142 326 q 147 329 147 328 m 175 424 l 172 432 l 169 432 q 174 419 169 419 l 175 424 m 222 371 l 219 381 l 217 381 l 217 369 l 222 371 m 215 267 q 213 267 214 267 q 211 268 213 268 q 208 261 208 268 l 215 267 m 343 485 l 342 494 q 336 482 336 489 l 343 485 m 140 124 q 133 118 133 124 q 139 117 135 117 l 140 124 m 100 222 q 104 232 104 226 q 97 226 97 229 l 100 222 m 172 301 l 169 301 l 169 296 l 172 296 l 172 301 m 193 267 l 194 268 l 194 267 l 193 267 m 193 267 l 192 272 l 189 272 l 192 263 l 193 267 m 124 454 l 121 460 l 118 460 l 124 454 m 204 332 q 199 338 201 338 l 199 335 l 204 332 m 128 431 l 128 433 l 124 436 l 124 433 l 128 431 m 183 488 l 178 485 l 178 482 l 183 488 m 469 226 l 464 224 l 464 221 l 469 226 m 135 329 l 135 326 q 140 331 140 326 l 135 329 m 225 392 l 228 392 l 231 400 l 228 400 l 225 393 l 225 392 m 368 451 l 371 451 l 374 456 l 371 456 l 368 451 m 103 379 l 106 379 l 108 383 l 106 383 l 103 379 z "},"p":{"ha":674,"x_min":46,"x_max":629,"o":"m 214 901 q 235 898 225 899 q 254 897 244 897 q 290 899 272 897 q 325 901 307 901 q 488 870 415 901 q 603 750 560 839 q 618 713 613 731 q 624 682 624 696 q 622 674 624 676 q 621 667 621 672 q 626 649 624 658 q 629 631 628 639 l 629 626 q 624 615 626 621 q 621 601 621 608 q 624 581 621 588 q 628 563 628 574 q 626 551 628 556 q 624 543 624 547 l 624 538 q 599 458 624 496 q 539 392 575 421 q 459 347 503 364 q 376 331 415 331 l 363 331 q 355 330 358 331 q 346 329 351 329 l 294 329 q 261 326 278 329 q 244 304 244 324 q 246 292 244 297 q 247 281 247 288 q 245 267 247 274 q 243 254 243 261 q 246 235 243 244 q 249 217 249 226 q 244 199 249 211 q 246 174 246 186 q 246 150 246 161 l 246 125 q 247 103 246 110 q 245 93 247 99 q 243 83 243 88 q 244 75 243 76 q 244 72 244 72 q 243 71 243 72 q 245 47 243 54 q 247 28 247 39 q 227 -1 247 4 q 183 -7 207 -7 q 163 -3 171 -7 q 143 -6 154 -6 l 110 -6 q 103 -6 107 -6 q 96 -7 100 -7 q 68 2 81 -7 q 49 24 56 11 l 49 38 q 49 47 49 42 q 50 58 50 51 q 46 82 50 69 q 49 97 46 92 q 53 115 53 101 q 46 132 46 125 q 47 146 46 139 q 49 160 49 153 q 46 174 49 168 q 47 193 49 185 q 50 211 46 201 q 49 233 49 215 q 51 262 49 249 q 53 290 53 275 q 50 314 53 303 q 53 322 51 317 q 54 328 54 326 q 52 348 54 339 q 50 368 50 357 l 50 407 q 51 415 50 411 q 53 424 53 419 q 49 455 53 439 q 46 490 46 471 q 51 498 49 493 q 53 507 53 503 q 51 515 53 510 q 46 525 49 521 q 49 560 49 542 q 50 594 50 579 q 46 611 50 607 q 47 635 49 622 q 53 657 46 647 q 50 715 50 686 q 46 774 50 744 q 49 781 47 776 q 50 789 50 786 l 50 800 q 53 813 50 807 q 49 825 49 821 q 51 840 49 832 q 53 856 53 849 q 50 869 53 864 q 67 889 60 879 q 96 899 74 899 l 138 899 q 155 900 147 899 q 174 901 163 901 q 188 900 182 901 q 201 899 194 899 q 214 901 208 899 m 297 729 q 264 733 274 729 q 247 710 247 722 q 249 702 247 706 q 251 694 251 699 q 249 678 251 686 q 247 661 247 669 q 248 645 247 653 q 249 631 249 638 l 249 601 q 248 579 249 589 q 244 558 247 569 q 249 543 249 551 q 248 537 249 540 q 247 531 247 533 l 247 518 q 260 498 247 501 q 285 494 274 494 q 329 497 306 494 q 374 509 353 499 q 408 540 394 519 q 422 597 422 561 q 426 613 422 606 q 423 655 426 635 q 410 691 419 675 q 385 717 401 707 q 344 726 369 726 l 333 726 q 321 729 326 726 l 297 729 m 160 199 q 147 208 151 199 q 136 201 136 208 q 148 197 147 201 q 156 193 149 193 q 161 196 158 193 l 160 199 m 129 350 q 122 356 124 350 q 117 363 119 363 l 117 349 q 118 349 118 349 q 119 350 118 350 l 121 350 q 126 344 121 344 l 129 350 m 172 399 q 161 401 169 401 q 165 390 161 390 l 171 392 q 172 397 172 393 l 172 399 m 160 328 q 154 333 160 333 q 149 328 149 333 q 156 325 151 325 q 160 326 158 325 l 160 328 m 136 164 q 129 167 133 167 q 126 158 126 164 q 136 154 131 154 l 136 164 m 218 385 q 210 390 218 390 l 208 383 q 210 379 210 382 q 218 385 218 379 m 190 339 q 183 347 188 347 q 181 342 181 347 q 186 336 181 336 l 190 339 m 178 254 q 170 251 171 254 q 169 247 169 249 q 174 244 169 244 q 181 250 181 244 l 178 254 m 204 368 q 199 371 204 371 q 193 363 193 371 q 204 368 204 363 m 188 228 q 178 224 178 228 l 182 219 q 188 225 188 219 l 188 228 m 246 388 l 246 397 q 238 388 238 397 l 246 388 m 150 258 q 144 249 144 258 q 152 250 151 249 q 153 254 153 251 l 150 258 m 190 425 l 182 426 q 179 419 179 421 q 183 418 179 418 l 189 419 l 190 425 m 168 157 q 158 161 164 161 l 158 153 q 168 154 167 153 l 168 157 m 167 453 q 161 460 167 460 l 158 451 q 164 450 163 451 l 167 453 m 235 421 q 231 422 232 421 q 229 422 231 422 q 225 415 225 422 l 233 415 l 235 421 m 117 225 l 117 233 l 114 233 q 113 231 113 232 q 110 228 113 231 q 114 221 110 221 l 117 225 m 213 408 q 208 411 210 410 q 204 413 207 413 l 204 400 l 213 408 m 139 451 l 129 464 l 129 453 l 139 451 m 214 401 l 222 393 q 226 401 226 397 l 214 401 m 282 399 l 275 397 l 276 388 q 282 396 282 393 l 282 399 m 160 496 q 150 497 160 497 l 157 490 l 160 496 m 125 331 q 122 333 124 332 q 114 333 121 333 l 122 326 l 125 331 m 151 285 l 143 274 q 151 271 146 271 l 151 285 m 215 422 l 206 422 l 206 419 l 210 418 l 215 422 m 214 331 l 210 333 l 210 335 l 210 332 l 214 331 m 149 421 l 149 408 q 153 419 153 413 l 149 421 m 142 136 l 138 136 l 136 131 q 143 135 143 131 l 142 136 m 214 306 q 221 304 217 304 q 226 310 226 304 l 214 306 m 185 301 l 182 301 l 181 296 l 183 296 l 185 301 m 296 432 q 288 426 288 432 q 297 431 297 426 l 296 432 m 139 504 q 136 497 136 504 q 144 501 140 497 l 139 504 m 317 400 q 324 393 321 393 q 326 397 326 393 l 317 400 m 129 472 q 133 471 131 471 q 139 476 139 471 l 129 472 m 143 433 l 133 436 l 140 429 l 143 433 m 119 156 l 140 165 l 117 165 l 119 156 m 201 263 l 204 263 l 207 267 l 204 267 l 201 263 m 235 368 l 232 374 l 229 374 l 235 368 m 236 328 l 239 326 q 240 332 240 328 l 238 332 l 236 328 z "},"v":{"ha":769,"x_min":44,"x_max":724,"o":"m 179 901 q 216 888 204 894 q 235 867 228 882 q 249 826 242 853 q 272 751 256 799 q 285 701 275 724 q 296 654 296 679 q 315 603 308 631 q 326 549 321 576 q 335 496 331 522 q 351 444 340 469 q 357 418 354 438 q 364 378 360 399 q 372 342 368 358 q 383 326 376 326 q 398 351 389 326 q 416 410 407 376 q 433 477 425 443 q 444 531 440 511 q 462 594 451 563 q 472 646 472 625 q 474 660 472 653 q 481 675 475 668 q 486 712 481 693 q 498 749 492 731 q 510 786 504 768 q 517 822 515 804 q 524 842 521 831 q 533 866 528 854 q 545 888 538 878 q 567 901 553 897 l 589 901 q 597 902 593 901 q 606 903 601 903 q 644 897 624 903 q 672 901 661 901 q 724 856 724 901 q 718 821 724 839 q 706 784 713 803 q 692 747 699 765 q 685 710 686 728 q 667 659 675 689 q 651 601 658 629 q 639 551 644 572 q 632 528 633 529 l 632 519 q 633 517 632 518 q 633 514 633 517 q 629 493 633 503 q 621 475 625 483 q 613 458 617 467 q 608 439 608 449 l 608 431 q 597 398 603 417 q 584 359 590 379 q 573 320 578 339 q 565 289 568 301 l 561 269 q 564 261 561 264 q 546 213 551 236 q 537 166 540 189 q 529 121 533 143 q 513 76 525 99 q 510 62 513 75 q 501 33 507 49 q 484 6 494 18 q 458 -7 474 -7 q 440 -5 447 -7 q 425 -3 433 -3 q 408 -7 417 -3 l 397 -7 q 369 -8 382 -7 q 342 -10 357 -10 q 297 -1 311 -10 q 278 19 283 7 q 270 44 272 32 q 260 65 268 57 l 260 72 q 253 101 260 82 q 239 142 247 119 q 224 188 231 164 q 218 233 218 213 q 213 263 218 249 q 201 292 207 278 q 190 322 194 307 q 185 356 185 338 l 185 368 q 140 506 156 454 q 116 588 124 558 q 106 631 108 618 q 103 653 104 644 q 98 672 101 663 q 85 704 94 682 q 81 742 85 721 q 70 784 76 763 q 57 828 64 806 q 44 868 50 850 q 65 893 47 883 q 96 903 82 903 q 132 897 108 897 q 156 898 143 897 q 179 901 169 899 m 368 129 l 361 139 q 349 131 349 139 q 349 128 349 129 q 350 124 350 126 q 343 121 350 121 q 349 113 343 113 q 357 118 357 113 q 356 120 357 119 q 354 122 354 121 q 361 129 357 129 l 368 129 m 426 193 q 422 199 424 196 q 418 206 421 203 q 407 196 418 200 l 410 190 q 411 181 410 182 l 421 181 l 421 188 q 425 192 425 192 l 426 193 m 394 114 q 390 122 394 124 q 385 132 385 121 q 372 122 372 129 q 381 119 372 121 q 390 114 390 117 l 394 114 m 418 217 q 414 226 415 222 q 406 231 413 231 l 403 224 q 406 217 406 221 l 418 217 m 331 161 l 331 167 q 323 164 321 167 q 318 154 325 161 q 326 150 319 150 q 333 154 331 154 l 331 161 m 463 206 q 460 207 460 207 q 458 208 458 207 l 457 211 q 451 208 451 208 q 451 206 450 207 q 456 199 454 200 l 457 197 l 454 192 q 461 189 457 189 q 464 201 461 199 l 463 206 m 394 140 q 383 144 390 144 q 382 139 382 143 q 383 133 382 136 q 383 128 383 131 q 391 133 388 132 q 394 139 394 133 l 394 140 m 429 267 q 422 271 429 271 q 417 267 418 267 l 418 257 q 424 260 421 256 q 428 265 426 265 l 429 267 m 375 151 q 371 156 375 156 q 364 152 368 150 q 360 147 360 154 q 365 139 360 144 q 370 146 365 147 q 375 151 375 144 m 376 240 l 376 235 q 381 228 376 229 l 385 236 l 392 236 q 401 240 397 236 l 376 240 m 342 189 q 331 196 342 196 l 331 188 q 338 185 336 185 q 342 189 342 185 m 440 285 q 438 292 440 289 q 432 288 435 289 q 429 283 429 288 l 435 279 q 440 285 440 279 m 357 215 q 351 229 357 224 q 348 223 351 222 q 344 219 344 224 q 349 215 344 215 l 357 215 m 394 272 q 389 278 394 278 q 383 271 383 278 q 390 268 389 268 q 394 271 392 268 l 394 272 m 390 106 q 381 102 382 106 q 381 97 381 99 q 385 94 381 94 q 390 99 390 94 l 390 106 m 458 243 q 464 249 464 243 l 464 260 q 457 250 457 257 l 457 244 l 458 243 m 354 153 l 354 165 q 344 153 344 158 l 354 153 m 394 199 q 389 204 394 204 q 383 197 383 204 q 390 196 386 196 q 394 199 394 196 m 489 350 q 484 358 483 356 q 478 361 485 361 q 488 347 478 349 l 489 350 m 357 189 q 367 185 363 189 l 367 194 q 369 200 367 197 l 367 203 l 357 189 m 429 121 q 418 125 425 125 l 418 117 q 429 119 429 117 l 429 121 m 363 250 l 353 256 l 351 253 l 363 236 l 363 250 m 357 190 q 349 189 351 190 q 342 188 347 188 q 353 182 347 182 l 357 190 m 446 122 q 444 130 446 128 q 438 135 442 132 l 438 122 l 446 122 m 431 218 l 418 218 l 424 207 l 431 218 m 450 160 l 443 157 q 444 149 443 150 q 449 149 446 149 q 450 156 450 150 l 450 160 m 297 306 q 289 310 297 310 q 285 307 288 307 q 290 303 285 303 q 297 304 296 303 l 297 306 m 374 113 q 363 103 363 113 q 372 107 369 110 q 375 111 375 104 l 374 113 m 339 225 q 337 227 340 226 q 333 229 333 228 l 331 229 l 331 219 q 339 225 339 219 m 353 289 q 346 294 353 294 l 346 292 l 353 289 m 307 267 l 304 260 q 314 265 314 260 l 307 267 m 476 231 l 467 221 q 476 225 476 221 l 476 231 m 507 207 l 499 208 q 494 201 494 208 l 507 207 m 363 317 q 360 326 363 324 l 354 319 q 360 315 354 315 l 363 317 m 353 254 q 344 256 351 256 q 343 253 343 254 q 351 249 343 249 l 353 254 m 344 103 l 338 96 l 344 89 q 347 97 347 96 q 347 99 347 97 l 344 103 m 365 239 q 360 243 364 239 l 360 232 l 368 235 l 365 239 m 413 93 l 404 85 l 414 83 l 413 93 m 401 251 l 399 258 l 396 258 l 396 250 l 401 251 m 442 218 q 431 213 436 218 l 442 210 l 442 218 m 339 329 l 333 331 q 331 324 331 331 l 338 324 l 339 329 m 403 175 l 394 181 l 392 179 q 396 172 394 172 l 397 169 l 403 175 m 426 168 l 419 169 l 418 164 l 425 164 l 426 168 m 444 164 l 442 171 q 438 165 438 171 l 444 164 m 299 185 l 306 192 q 299 196 306 196 l 299 185 m 406 121 l 407 110 q 413 119 413 115 l 406 121 m 322 197 q 317 210 322 204 l 317 197 l 322 197 m 438 194 l 439 185 q 444 193 444 190 l 438 194 m 408 133 l 406 140 q 401 135 401 140 l 408 133 m 319 124 q 311 118 311 124 l 319 124 m 393 217 l 390 217 l 390 206 q 394 214 394 206 l 393 217 m 389 72 q 382 74 388 74 l 383 68 l 389 72 m 440 99 q 435 107 440 101 l 435 97 l 440 99 m 325 214 l 322 214 l 319 207 l 322 207 l 325 214 m 363 88 l 365 88 q 361 96 365 96 l 363 88 m 482 324 l 482 336 l 479 336 l 478 329 l 482 324 m 265 263 l 268 263 l 271 267 l 268 267 l 265 263 m 435 140 l 435 143 l 431 144 l 431 142 l 435 140 m 399 53 l 396 53 l 394 49 l 397 49 l 399 53 m 300 329 l 303 326 q 306 332 306 329 l 303 332 l 300 329 m 468 169 l 465 179 l 463 179 l 468 169 m 515 369 l 513 369 q 513 366 513 367 q 514 364 514 365 l 517 364 l 515 369 m 406 281 q 410 286 410 281 l 407 286 l 406 281 z "},"{":{"ha":519,"x_min":44,"x_max":474,"o":"m 469 974 q 472 960 469 967 q 474 947 474 954 q 471 943 474 946 q 472 935 471 936 l 472 936 q 473 934 472 935 q 474 932 474 933 q 472 924 474 928 q 471 915 471 919 l 471 896 q 465 865 471 881 q 435 850 458 850 l 417 850 q 403 849 406 850 q 389 850 399 850 q 347 832 360 850 q 335 789 335 814 l 335 781 q 332 769 332 775 q 333 759 332 765 q 335 749 335 753 q 331 733 335 742 q 333 719 331 725 q 335 706 335 713 q 331 692 335 696 q 335 678 335 683 q 333 666 335 671 q 332 654 332 661 q 335 644 332 647 l 335 521 q 331 506 332 514 q 328 492 331 497 q 313 478 324 489 q 291 455 303 468 q 268 428 279 442 q 251 406 257 414 q 264 386 253 394 l 288 371 q 327 317 317 351 q 336 257 338 282 q 335 229 336 235 l 335 118 q 336 94 336 113 q 335 81 336 88 q 335 68 335 75 l 335 44 q 342 1 335 17 q 361 -25 350 -15 q 387 -37 372 -35 q 417 -40 401 -40 q 429 -37 424 -40 q 461 -58 451 -39 q 471 -92 471 -76 q 470 -103 471 -99 q 469 -114 469 -108 l 469 -142 q 470 -144 469 -143 q 471 -147 471 -144 q 462 -166 471 -154 q 443 -178 453 -178 l 436 -178 q 421 -183 426 -178 q 411 -187 415 -187 q 385 -186 400 -187 q 365 -181 371 -185 q 338 -185 349 -185 q 274 -165 306 -185 q 217 -117 242 -144 q 176 -64 192 -90 q 161 -25 161 -37 l 161 32 q 164 51 164 40 l 164 75 q 167 92 164 83 q 165 110 167 103 q 164 131 164 118 q 167 150 164 142 q 164 167 164 158 q 165 181 164 174 q 167 197 167 188 q 164 214 167 206 q 165 224 164 218 q 167 235 167 231 q 161 263 167 249 q 146 290 156 278 q 123 310 136 303 q 94 318 110 318 q 83 315 89 318 q 60 332 75 319 q 44 357 46 344 l 44 374 q 45 392 44 383 q 49 408 46 401 q 46 425 46 414 q 64 467 46 454 q 103 488 82 479 q 143 510 125 497 q 161 556 161 524 q 163 570 161 563 q 164 583 164 578 q 163 603 164 594 q 161 621 161 611 q 167 654 161 639 q 164 672 164 663 l 164 694 q 161 713 164 704 q 163 732 163 721 q 163 753 163 743 l 163 772 q 164 793 163 786 q 163 808 164 800 q 161 824 161 817 q 177 882 161 853 q 216 934 193 911 q 262 972 239 957 q 300 986 285 986 q 325 994 314 989 q 353 1000 336 1000 l 376 1000 q 388 1001 383 1000 q 396 1001 392 1001 l 413 1001 q 469 974 457 1001 m 249 53 q 245 58 244 53 q 239 69 246 63 q 236 61 236 63 q 236 58 236 60 q 249 50 236 56 l 249 53 m 258 158 q 251 164 258 164 q 250 158 250 163 q 251 154 250 154 q 258 158 258 154 m 264 207 l 256 208 l 256 197 q 264 203 264 200 l 264 207 m 275 124 l 269 125 q 265 118 265 125 l 274 117 l 275 124 m 264 131 q 256 140 264 140 l 256 135 q 257 133 256 133 l 264 131 m 240 81 q 241 84 240 83 q 242 86 242 85 q 238 89 242 89 q 235 85 238 85 l 233 78 q 240 81 238 78 m 236 231 q 229 224 229 231 q 236 221 232 221 l 236 231 m 279 68 q 272 67 272 68 q 271 63 271 65 q 278 61 272 61 l 279 68 m 250 31 l 242 39 q 238 31 238 35 l 250 31 m 215 57 q 208 64 215 64 l 210 58 l 215 57 m 179 188 l 176 197 l 174 197 l 174 189 l 179 188 m 286 153 l 286 164 l 276 154 l 286 153 m 175 485 q 181 489 181 485 l 174 488 l 175 485 m 222 199 q 217 208 222 208 l 222 199 m 175 379 q 169 389 175 383 l 175 379 m 267 251 l 267 249 q 276 254 271 249 l 267 251 z "},"":{"ha":710,"x_min":46,"x_max":665,"o":"m 556 1006 q 606 988 585 996 q 639 971 626 981 q 658 948 651 961 q 664 914 664 935 l 664 847 l 661 843 q 663 834 661 835 q 665 831 665 833 q 664 826 665 828 q 665 822 664 824 q 665 819 665 821 q 653 797 665 808 q 631 785 642 785 q 609 794 621 785 q 594 806 597 803 q 548 817 572 817 q 500 825 524 818 q 475 821 486 821 q 451 818 464 821 q 409 803 428 817 q 376 772 390 790 q 353 731 363 753 q 340 692 344 710 l 336 690 q 357 672 336 672 q 378 674 368 672 q 400 676 389 676 q 420 674 411 676 q 440 672 429 672 q 453 675 447 672 q 464 672 458 672 q 478 674 471 672 q 492 675 486 675 q 503 672 497 675 q 515 675 508 675 q 532 673 524 675 q 550 671 540 671 q 564 674 558 671 q 579 676 569 676 q 610 663 603 676 q 617 633 617 649 q 613 599 617 619 q 597 559 608 578 q 565 526 585 540 q 514 513 544 513 q 471 519 492 513 q 440 515 456 515 l 411 515 q 381 517 396 515 q 356 519 365 519 q 335 517 340 519 q 329 508 329 515 l 329 506 q 317 482 329 499 q 329 461 317 467 l 447 461 q 464 458 456 458 q 485 460 474 458 q 510 463 496 463 q 541 452 529 463 q 554 431 553 442 q 545 385 549 408 q 533 344 542 363 q 508 313 525 325 q 458 301 492 301 l 393 301 q 362 300 381 301 q 340 289 343 299 q 353 244 343 268 q 377 199 363 219 q 410 164 392 178 q 447 150 428 150 q 458 153 453 150 q 476 149 463 149 l 496 149 q 510 146 501 149 q 538 154 521 151 q 572 160 554 157 q 606 169 589 163 q 635 188 622 175 q 638 188 638 188 q 639 189 638 189 q 658 174 650 189 q 665 142 665 158 q 665 128 665 135 q 664 114 664 121 l 664 72 q 645 4 664 32 q 574 -29 626 -24 q 569 -28 571 -29 q 564 -28 567 -28 q 544 -33 550 -28 q 531 -37 538 -37 l 514 -37 q 501 -39 504 -37 q 492 -37 500 -37 q 488 -38 489 -37 q 483 -39 486 -39 l 475 -39 q 464 -35 465 -39 q 449 -39 456 -39 q 369 -26 408 -39 q 294 12 329 -12 q 230 71 258 36 q 183 150 201 106 q 176 167 179 158 q 168 183 172 176 l 168 190 q 158 222 168 208 q 149 258 149 236 q 150 263 149 261 q 151 271 151 265 q 144 281 144 275 q 142 291 143 286 q 135 299 142 296 q 110 303 129 303 l 75 303 q 55 310 64 303 q 46 329 46 318 q 53 353 46 344 q 61 376 61 361 l 61 385 l 65 397 q 85 438 72 418 q 121 461 97 458 q 128 481 128 468 l 128 504 q 118 515 128 514 q 96 511 103 511 q 63 522 79 511 q 46 547 46 532 q 50 572 46 551 q 63 615 54 592 q 86 656 72 638 q 119 675 100 675 q 142 697 132 675 q 160 749 151 719 q 177 810 168 779 q 199 857 186 840 q 246 917 221 889 q 301 967 271 946 q 371 1001 332 989 q 458 1014 410 1014 q 496 1009 478 1014 q 532 1004 514 1004 q 540 1005 536 1004 q 546 1006 543 1006 l 556 1006 m 226 350 q 219 359 221 356 q 214 363 218 363 q 210 357 210 363 l 210 350 l 225 344 l 226 350 m 517 64 q 510 65 515 65 l 508 56 q 514 50 508 50 q 519 51 517 50 q 522 51 521 51 q 518 58 519 56 q 517 63 517 60 l 517 64 m 256 326 q 254 335 256 333 l 247 335 q 240 329 240 335 q 243 324 240 326 l 256 326 m 329 307 q 321 311 325 311 q 311 303 311 311 q 329 304 328 303 l 329 307 m 301 369 q 289 363 289 369 q 294 360 294 360 q 301 364 297 360 l 301 369 m 254 358 l 251 369 q 244 361 244 365 q 250 356 244 356 l 254 358 m 192 356 q 189 361 192 361 q 181 354 181 361 q 186 351 183 351 q 192 356 192 351 m 286 340 q 279 347 286 347 q 278 340 278 344 q 282 335 278 335 l 286 340 m 232 456 l 231 461 l 224 460 q 221 454 221 454 q 226 451 221 451 l 232 456 m 244 422 l 240 418 q 246 411 240 411 q 250 419 250 411 l 244 422 m 314 332 q 311 339 314 336 q 304 333 304 339 q 310 328 304 328 l 314 332 m 271 399 q 257 394 257 399 l 267 392 l 271 399 m 333 374 q 326 375 332 375 q 324 369 324 369 q 329 367 324 367 q 333 372 333 368 l 333 374 m 282 301 q 275 303 281 303 q 274 300 274 300 l 274 299 q 279 294 274 294 l 282 301 m 425 100 q 415 104 421 104 q 419 93 415 94 q 424 97 421 97 l 425 100 m 235 504 q 229 497 229 504 q 239 503 239 497 l 235 504 m 217 324 q 219 328 219 324 l 218 333 l 215 333 q 213 328 213 328 q 217 324 213 324 m 285 425 l 283 425 q 274 429 283 429 l 281 419 l 285 425 m 489 57 q 485 68 485 63 q 479 58 479 63 l 489 57 m 247 249 l 246 257 l 243 257 l 240 251 l 247 249 m 282 271 q 275 274 279 274 l 275 265 l 282 271 m 238 431 l 238 433 l 232 436 q 229 431 229 431 q 235 429 229 429 l 238 431 m 342 400 l 335 393 l 338 390 l 342 400 m 315 392 q 308 387 308 389 q 307 381 307 385 l 310 381 l 315 392 m 282 228 q 272 221 279 228 q 283 226 283 221 l 282 228 m 242 267 l 251 276 q 247 281 247 278 l 244 281 l 242 267 m 218 379 l 217 382 q 211 381 214 381 l 211 378 l 218 379 m 276 249 l 276 251 l 265 251 q 272 247 265 247 l 276 249 m 322 396 q 317 401 322 401 l 317 399 l 322 396 m 554 68 l 546 65 l 546 63 l 554 68 m 178 419 l 179 422 l 175 425 l 175 422 l 178 419 m 331 74 l 329 86 l 326 86 l 326 75 l 331 74 m 279 313 l 279 325 q 275 314 275 321 l 279 313 m 199 403 q 193 413 199 407 l 199 403 m 397 108 l 397 106 q 406 111 406 106 l 397 108 m 231 478 q 225 488 231 482 l 231 478 m 196 503 l 193 503 l 192 499 l 194 499 l 196 503 m 204 344 q 200 356 204 351 l 200 346 l 204 344 m 149 479 q 153 490 153 483 l 150 490 l 149 486 l 149 479 m 258 493 q 250 497 254 497 l 250 494 l 258 493 m 238 207 q 233 203 233 207 l 238 207 m 303 267 l 300 267 l 299 263 l 301 263 l 303 267 m 279 564 q 275 574 279 569 l 279 564 m 417 125 l 408 124 l 408 121 l 417 125 m 300 406 l 303 403 q 306 408 306 406 l 303 408 l 300 406 m 372 97 l 375 94 q 378 100 378 97 l 375 100 l 372 97 m 308 419 l 308 422 l 304 421 l 304 418 l 308 419 z "},"":{"ha":511,"x_min":44,"x_max":467,"o":"m 326 1004 q 376 954 351 985 q 422 894 401 924 q 454 842 442 864 q 467 817 467 819 q 453 794 467 797 q 428 785 440 792 l 419 785 q 413 785 417 785 q 404 786 408 786 q 386 784 393 786 q 368 782 379 782 q 335 790 349 782 q 310 813 321 799 q 288 844 299 826 q 263 878 276 861 l 257 881 q 240 865 250 881 q 218 833 231 850 q 189 800 206 815 q 151 785 172 785 l 94 785 q 44 806 69 785 q 54 832 44 815 q 76 866 64 849 q 102 899 89 883 q 124 922 115 914 q 141 946 132 932 q 160 973 150 960 q 181 995 169 986 q 203 1004 192 1004 q 228 1002 218 1004 q 249 1000 238 1000 q 283 1002 265 1000 q 317 1004 300 1004 l 326 1004 z "},"":{"ha":314,"x_min":44,"x_max":268,"o":"m 257 976 q 252 941 256 961 q 242 901 249 921 q 228 865 236 882 q 213 840 221 849 q 214 833 213 835 q 215 825 215 831 q 209 799 215 810 q 197 774 203 789 q 217 758 197 758 l 224 758 q 226 759 225 758 q 231 760 228 760 q 256 745 244 760 q 268 719 267 731 q 265 710 265 714 l 265 701 q 263 674 265 686 q 261 646 261 661 q 264 621 261 638 q 268 604 267 604 q 267 583 268 589 q 265 569 265 578 l 265 563 q 257 546 265 551 q 238 529 249 540 q 197 531 215 529 q 156 532 178 532 q 121 528 139 532 q 86 525 103 525 q 58 535 67 525 q 47 558 50 546 q 45 583 44 571 q 44 599 46 594 q 49 624 49 614 q 50 644 50 633 q 48 689 50 668 q 46 733 46 710 q 55 782 46 754 q 76 835 64 810 q 98 878 88 860 q 113 901 108 897 q 121 937 113 919 q 142 968 129 954 q 167 991 154 982 q 190 1000 181 1000 q 199 997 193 1000 q 218 1001 207 1001 q 239 997 226 1001 l 238 997 l 257 976 z "},"":{"ha":550,"x_min":46,"x_max":503,"o":"m 494 974 q 503 947 503 963 q 492 904 503 929 q 463 857 481 879 q 425 819 446 835 q 383 803 404 803 q 323 810 347 803 q 279 828 299 818 q 242 845 260 838 q 201 853 224 853 q 171 844 182 853 q 151 826 160 836 q 135 807 143 815 q 114 797 126 799 q 106 799 111 799 q 96 799 100 799 l 76 799 q 58 802 71 799 q 46 821 46 806 q 56 864 46 838 q 83 917 65 890 q 126 962 101 943 q 179 981 150 981 q 202 979 190 981 q 225 978 214 978 l 231 978 q 297 951 261 968 q 360 933 332 933 q 381 941 371 933 q 400 958 390 949 q 419 977 410 968 q 439 989 429 986 l 467 989 q 494 974 483 989 z "},"":{"ha":635,"x_min":44,"x_max":592,"o":"m 585 914 q 589 900 589 903 q 581 870 589 888 q 565 834 574 853 q 549 798 557 815 q 542 768 542 781 q 530 726 542 746 q 518 690 518 707 q 527 650 518 671 q 548 608 536 629 q 569 567 560 588 q 578 524 578 546 q 563 498 578 504 q 538 492 547 492 q 520 494 528 492 q 503 496 513 496 l 496 496 q 492 497 493 496 q 468 494 476 494 q 452 490 460 493 q 438 478 444 486 q 419 451 431 469 q 410 433 414 443 q 406 413 406 424 q 406 408 406 410 q 407 406 407 407 q 390 376 397 394 q 376 338 382 357 q 365 303 369 319 q 358 279 361 288 q 332 217 347 250 q 313 165 317 183 q 324 150 313 154 q 349 146 336 146 q 399 171 379 146 q 421 229 418 196 q 444 245 431 244 q 472 251 457 246 q 488 249 478 249 q 508 251 499 249 q 528 253 517 253 q 572 243 551 253 q 592 210 592 233 q 589 192 592 200 q 586 174 586 185 q 589 158 586 164 q 577 118 581 139 q 558 82 574 97 q 501 22 538 43 q 431 -10 465 1 l 421 -10 q 392 -17 407 -10 l 389 -18 l 374 -18 q 340 -21 357 -18 q 308 -24 324 -24 q 271 -14 285 -24 q 242 -32 256 -14 q 217 -77 229 -50 q 196 -136 206 -104 q 178 -197 186 -168 l 178 -196 q 155 -221 168 -210 q 126 -232 142 -232 q 113 -231 124 -232 q 91 -226 103 -231 q 69 -215 79 -222 q 60 -194 60 -207 q 65 -172 60 -183 q 76 -150 69 -161 q 87 -126 82 -139 q 93 -100 92 -114 q 103 -74 99 -87 q 117 -47 108 -61 l 117 -40 q 128 -10 117 -25 q 139 24 139 6 q 129 45 139 28 q 106 83 119 63 q 81 125 93 104 q 63 157 68 146 q 57 199 56 172 q 50 243 58 225 q 48 260 50 250 q 46 282 46 271 q 50 311 46 294 q 44 332 44 318 l 44 346 q 45 353 44 349 q 46 361 46 357 q 46 371 46 365 q 44 379 46 376 q 47 414 44 394 q 53 449 49 433 q 49 458 50 456 q 49 464 49 461 q 51 481 49 475 q 54 499 54 488 q 53 503 54 501 q 53 508 53 506 q 60 535 57 519 q 64 563 63 551 q 91 624 76 594 q 135 675 106 654 q 158 701 143 689 q 192 722 174 713 q 231 737 211 731 q 264 744 250 743 q 274 743 265 743 q 281 744 278 743 q 289 746 285 744 l 306 750 q 317 747 311 750 q 332 750 322 750 q 367 745 351 750 q 408 740 383 740 q 431 786 422 757 q 449 846 440 815 q 472 900 458 876 q 510 931 486 924 l 543 931 q 566 928 554 931 q 585 913 578 925 l 585 914 m 357 564 q 329 575 342 575 q 278 553 304 575 q 253 503 253 532 l 253 496 q 249 457 247 478 q 243 419 250 436 q 245 352 243 383 q 251 289 247 321 q 274 327 267 304 q 288 376 282 350 q 302 427 294 401 q 326 474 310 453 q 343 520 333 499 q 357 563 353 542 l 357 564 m 189 203 q 172 208 183 208 l 169 201 q 172 197 172 200 q 175 198 174 197 q 178 199 176 199 q 179 200 179 199 q 182 196 182 200 q 186 192 182 192 q 192 194 189 192 q 197 196 194 196 l 197 199 q 188 203 193 200 l 189 203 m 167 347 l 167 350 q 161 358 164 353 q 154 363 158 363 l 153 357 q 151 354 151 354 l 151 351 q 156 349 154 351 q 165 347 158 347 l 167 347 m 267 103 q 261 108 267 108 q 253 99 253 108 l 258 97 q 261 98 260 97 q 265 99 263 99 l 267 103 m 250 121 q 249 130 250 128 q 246 135 247 132 q 240 129 243 128 q 238 125 238 131 q 246 118 238 118 l 250 121 m 175 161 q 174 164 175 163 l 164 161 q 172 153 164 153 q 175 156 175 156 q 176 158 175 157 l 175 161 m 231 194 q 221 185 224 194 l 226 185 q 231 183 228 183 q 235 190 235 183 l 231 194 m 226 228 q 210 231 224 231 q 215 222 215 225 q 214 219 215 221 l 217 217 q 224 222 222 222 q 226 226 226 222 l 226 228 m 192 253 q 186 258 192 258 q 178 249 178 258 l 183 247 q 192 251 188 247 l 192 253 m 203 163 q 205 174 203 172 q 207 183 207 176 l 199 178 q 196 169 196 175 l 203 163 m 204 154 q 199 164 204 164 l 190 161 q 197 146 197 154 l 204 154 m 219 169 q 217 160 219 163 q 211 154 214 157 q 217 150 215 150 q 221 154 221 150 q 231 158 221 158 l 219 169 m 228 124 q 219 133 228 133 q 218 129 218 132 q 219 125 218 126 q 219 121 219 124 q 228 122 226 121 l 228 124 m 117 290 q 111 292 115 292 l 106 290 q 110 281 106 281 l 115 283 l 117 290 m 139 204 q 131 210 132 210 q 129 206 129 210 q 133 196 129 200 q 139 201 139 196 l 139 204 m 221 188 q 213 182 213 188 q 219 174 213 174 q 221 180 219 181 q 222 186 222 179 l 221 188 m 151 236 q 146 231 146 236 l 146 218 q 153 229 153 225 l 156 235 l 151 236 m 92 196 q 86 190 86 196 q 92 185 86 185 q 96 194 96 185 l 92 196 m 236 171 q 234 166 236 165 q 232 160 232 167 q 236 154 232 154 l 239 160 q 240 165 239 164 l 236 171 m 140 260 q 133 250 133 256 l 133 243 q 140 250 140 243 l 140 260 m 192 279 q 186 282 189 282 q 182 274 182 282 q 188 271 185 271 q 192 278 192 271 l 192 279 m 181 131 q 172 143 181 143 l 172 131 l 181 131 m 192 118 q 179 125 192 125 q 182 119 181 122 q 190 113 183 115 l 192 118 m 165 185 q 167 174 165 174 q 172 174 169 174 q 181 176 178 174 q 171 186 171 176 l 165 185 m 288 64 l 286 69 q 279 68 281 69 q 286 58 279 58 l 288 64 m 193 333 q 179 328 186 333 q 183 327 182 328 q 186 326 183 326 q 194 332 194 326 l 193 333 m 224 265 q 215 274 224 274 q 213 268 213 268 q 217 265 213 265 l 224 265 m 274 78 l 265 86 l 264 74 l 272 74 l 274 78 m 171 275 q 151 265 161 275 q 162 266 160 265 q 164 268 164 267 q 164 270 164 269 q 167 271 164 271 l 171 275 m 283 92 q 281 103 283 100 l 275 92 q 282 89 283 89 l 283 90 l 283 92 m 301 169 q 296 153 296 164 q 303 158 303 153 l 301 169 m 203 128 q 193 138 203 131 q 201 126 193 126 l 203 128 m 218 250 q 215 253 218 253 q 209 252 213 253 q 206 249 206 251 l 213 242 q 215 247 213 247 l 218 250 m 156 167 q 150 158 150 167 q 160 164 160 158 l 156 167 m 238 267 l 240 257 q 246 268 246 263 l 238 267 m 193 417 l 186 424 l 178 415 l 189 414 l 193 417 m 208 100 q 206 103 208 103 l 201 103 l 200 94 q 208 97 206 94 l 208 100 m 129 357 l 122 358 l 125 353 l 129 357 m 233 100 l 236 93 q 240 101 240 93 l 233 100 m 290 124 q 283 121 286 124 l 285 111 q 292 122 292 118 l 290 124 m 267 125 l 258 124 l 267 115 q 271 122 271 119 l 267 125 m 160 332 l 150 331 l 158 322 q 161 329 161 325 l 160 332 m 243 69 q 233 72 240 72 l 232 65 q 242 67 239 65 l 243 69 m 103 268 q 93 260 93 267 q 100 261 100 260 q 103 265 100 263 l 103 268 m 256 88 q 246 92 256 92 q 253 85 249 85 q 256 86 254 85 l 256 88 m 211 206 q 215 211 215 206 l 215 218 q 210 207 210 213 l 211 206 m 360 107 q 357 99 357 103 q 363 94 357 94 l 360 107 m 314 94 q 319 100 319 94 l 313 100 l 314 94 m 249 175 q 243 168 243 175 q 251 169 250 168 l 249 175 m 197 361 q 193 364 194 363 q 189 365 192 365 l 189 353 l 197 361 m 121 419 l 119 426 q 114 421 114 426 l 121 419 m 203 235 q 200 228 200 235 q 207 233 207 228 l 203 235 m 179 433 q 174 438 175 433 l 171 432 q 174 429 171 429 q 181 432 181 429 l 179 433 m 197 64 l 189 72 l 189 61 l 197 64 m 92 485 q 96 492 96 485 q 89 486 89 492 l 92 485 m 183 178 l 188 174 l 185 182 l 182 182 l 179 178 l 183 178 m 272 196 l 272 178 q 276 188 275 185 q 278 193 278 190 l 272 196 m 149 349 q 144 351 146 350 q 140 353 143 353 l 142 346 l 149 349 m 361 69 l 358 75 l 356 75 l 356 68 l 361 69 m 104 418 q 97 421 101 421 l 99 415 l 104 418 m 189 154 l 189 157 l 182 160 l 185 154 l 189 154 m 125 318 l 122 308 q 129 311 126 308 l 125 318 m 161 210 l 160 217 l 157 217 l 157 207 l 161 210 m 92 379 q 86 389 92 383 l 92 379 m 154 383 q 150 372 150 379 l 156 378 l 154 383 m 188 306 l 188 292 q 192 300 192 296 l 188 306 m 222 299 q 217 303 222 303 l 217 300 l 222 299 m 172 454 l 171 460 l 168 460 l 172 454 m 176 499 l 179 499 l 181 503 l 178 503 l 176 499 m 204 231 l 178 228 l 193 225 l 204 231 z "},"":{"ha":511,"x_min":46,"x_max":467,"o":"m 463 896 q 465 879 463 888 q 467 863 467 871 q 465 846 467 853 q 463 831 463 839 l 463 825 q 454 807 463 814 q 434 797 446 800 q 408 794 422 794 q 383 793 394 793 l 357 793 q 329 797 343 793 q 318 793 321 793 q 295 801 303 793 q 283 821 288 810 q 278 845 279 832 q 278 867 278 858 q 281 882 278 874 q 283 899 283 890 q 283 903 283 901 q 282 907 282 904 l 282 915 q 288 951 282 938 q 305 971 294 964 q 329 980 315 978 q 357 982 343 982 q 420 976 393 982 q 463 942 447 969 l 463 896 m 171 978 q 190 976 179 976 q 208 971 200 975 q 222 959 217 967 q 228 935 228 951 q 226 922 228 926 q 225 911 225 918 l 225 819 q 199 799 217 804 q 165 793 182 793 q 156 794 160 793 q 149 794 153 794 l 135 794 q 127 794 131 794 q 121 793 124 793 l 114 793 q 110 794 111 793 q 107 794 110 794 q 103 796 104 794 q 80 803 90 799 q 62 815 69 807 q 50 839 54 824 q 46 879 46 854 l 46 938 q 60 961 54 954 q 72 971 67 968 q 84 976 78 974 q 100 982 90 978 q 109 981 103 981 q 122 981 115 981 l 147 981 q 167 978 158 981 l 171 978 z "},"":{"ha":499,"x_min":44,"x_max":454,"o":"m 285 965 q 353 935 322 960 q 407 878 385 911 q 442 809 429 846 q 454 742 454 772 q 442 674 454 711 q 407 603 429 636 q 353 547 385 569 q 285 525 322 525 l 272 525 q 260 523 265 525 q 249 521 256 521 q 165 541 203 521 q 101 594 128 561 q 59 671 74 628 q 44 760 44 714 q 51 785 44 772 q 57 813 57 797 l 57 821 q 91 882 69 854 q 138 930 113 910 q 193 961 164 950 q 249 972 222 972 q 268 965 257 972 l 285 965 m 278 857 q 267 854 272 854 q 251 857 258 854 q 235 860 244 860 q 197 845 213 860 q 173 810 182 831 q 160 767 164 789 q 157 732 157 746 q 163 697 158 715 q 176 665 167 679 q 203 642 186 651 q 250 633 221 633 q 322 667 301 633 q 343 746 343 700 q 340 765 343 756 q 338 785 338 774 q 339 796 338 793 q 315 831 329 813 q 278 857 301 850 z "},"":{"ha":793,"x_min":44,"x_max":750,"o":"m 421 997 q 428 996 424 996 q 436 996 432 996 q 456 998 447 996 q 476 1000 465 1000 q 502 998 489 1000 q 531 996 515 996 q 546 997 542 996 q 551 994 549 996 q 556 993 553 993 q 560 994 557 993 q 567 997 564 996 q 615 995 592 997 q 661 993 639 993 q 685 995 672 993 q 708 997 697 997 q 735 989 724 997 q 747 951 747 981 q 743 935 747 943 q 744 922 744 932 q 744 917 744 919 q 743 911 743 914 l 743 900 q 745 889 743 896 q 747 879 747 882 q 744 852 747 864 q 740 831 740 840 q 743 814 740 822 q 740 807 742 811 q 739 797 739 803 q 741 785 739 790 q 743 772 743 779 l 743 738 q 745 717 743 726 q 747 697 747 708 l 743 672 q 741 663 742 669 q 740 653 740 656 q 742 642 740 647 q 744 633 743 636 q 742 617 744 624 q 740 599 740 610 q 745 571 740 583 q 747 565 750 558 q 745 550 747 557 q 743 535 743 543 q 745 524 743 531 q 747 514 747 517 q 745 496 747 504 q 743 481 743 488 q 744 468 743 471 q 742 450 744 460 q 740 431 740 440 q 744 413 740 421 q 747 397 747 404 q 743 376 747 388 q 739 363 739 365 q 744 344 739 353 l 740 328 q 742 308 740 315 q 744 290 744 301 q 742 270 744 279 q 740 250 740 261 q 744 207 740 228 q 747 163 747 186 q 740 115 747 140 q 743 83 743 101 l 743 44 q 743 28 743 36 q 744 15 743 21 q 743 3 743 13 q 745 -12 743 -4 q 747 -25 747 -19 q 743 -39 747 -31 l 743 -64 q 744 -76 743 -74 q 743 -86 743 -79 q 745 -97 743 -92 q 747 -107 747 -101 q 743 -118 747 -110 q 744 -128 744 -121 q 742 -142 744 -135 q 740 -156 740 -149 q 743 -167 740 -161 q 733 -195 743 -178 q 713 -217 724 -212 q 706 -215 710 -215 q 697 -215 701 -215 q 681 -217 689 -215 q 663 -219 674 -219 q 650 -217 656 -219 l 626 -217 q 588 -207 603 -217 q 572 -156 572 -197 q 574 -131 572 -143 q 576 -99 576 -118 q 575 -92 575 -97 q 578 -77 575 -83 q 581 -64 581 -71 q 578 -51 581 -60 q 575 -36 575 -43 q 577 -12 575 -24 q 579 13 579 0 q 577 28 579 19 q 575 43 575 36 q 578 69 575 56 q 581 96 581 82 q 578 120 581 108 q 575 146 575 132 q 576 174 575 160 q 579 206 576 189 q 572 238 572 222 q 574 257 572 249 q 576 278 576 265 q 575 290 575 281 q 576 300 575 296 q 576 308 576 304 l 576 318 q 576 328 576 322 q 575 336 576 333 q 576 349 576 339 q 576 356 576 353 q 575 363 575 360 l 575 374 q 576 379 575 376 q 576 385 576 382 l 576 393 q 576 403 576 399 q 575 411 575 407 l 575 421 q 576 435 575 432 q 576 471 576 453 q 575 508 575 489 l 575 581 q 576 588 576 582 q 574 598 576 592 q 572 611 572 604 q 576 624 572 618 q 579 638 579 631 q 577 651 579 646 q 575 667 575 657 q 576 681 575 678 q 574 708 576 694 q 572 736 572 721 q 574 763 572 750 q 576 793 576 776 q 574 818 576 804 q 556 832 571 832 q 547 829 551 832 q 539 826 543 826 q 531 828 535 826 q 524 829 526 829 q 499 825 514 829 q 485 808 485 821 l 485 799 q 485 794 485 796 q 486 789 486 792 q 483 776 486 785 q 479 767 479 768 q 481 752 479 760 q 482 740 482 744 q 479 728 482 733 q 482 713 482 722 q 480 697 482 704 q 478 678 478 689 q 478 654 478 665 q 481 632 479 643 l 485 586 q 484 572 485 578 q 482 560 483 565 q 485 547 485 554 l 481 531 q 478 523 479 526 q 478 515 478 519 q 480 506 478 511 q 485 499 482 501 q 483 483 485 490 q 482 468 482 475 q 485 453 482 461 q 478 419 479 442 q 480 386 478 403 q 482 353 482 369 q 479 329 482 340 q 482 297 482 315 q 481 265 482 281 q 479 229 479 249 q 482 209 479 217 q 485 193 485 201 q 482 173 485 181 q 479 154 479 165 q 482 136 479 144 q 485 119 485 128 l 481 94 q 478 83 479 88 q 478 71 478 78 q 482 20 478 46 q 486 -12 486 -6 q 481 -47 486 -31 q 475 -83 475 -62 q 476 -95 475 -90 q 478 -106 476 -100 l 482 -126 q 481 -131 482 -129 q 479 -139 479 -133 q 482 -156 482 -147 q 475 -194 482 -175 q 447 -217 468 -214 q 435 -215 443 -215 q 419 -215 428 -215 q 406 -216 413 -215 q 393 -217 400 -217 l 368 -217 q 330 -208 349 -217 q 311 -171 311 -200 q 315 -153 311 -161 q 318 -137 318 -146 q 317 -129 318 -135 q 314 -119 315 -124 q 315 -112 315 -117 q 315 -104 315 -108 q 315 -100 315 -101 q 314 -96 314 -99 l 314 -86 q 318 -68 314 -83 q 311 -35 311 -51 q 315 -6 311 -21 l 319 24 q 317 44 319 35 q 315 67 315 54 q 318 86 315 78 q 314 99 314 94 q 315 103 314 100 q 318 114 315 107 q 314 143 314 131 q 315 160 314 153 q 318 175 315 167 q 314 193 314 181 q 316 209 314 201 q 318 226 318 217 q 317 233 318 231 q 315 238 315 235 q 320 245 318 240 q 322 253 322 250 l 318 265 q 315 276 315 274 q 317 285 315 281 q 318 293 318 289 l 318 332 q 319 360 318 354 q 317 389 319 374 q 301 410 315 404 q 286 408 297 408 q 204 426 240 408 q 141 472 168 444 q 96 532 114 499 q 66 595 78 565 q 49 648 54 625 q 44 678 44 671 q 50 706 44 694 q 46 733 46 724 q 50 753 46 740 l 50 761 q 66 827 50 793 q 107 891 82 861 q 163 943 132 921 q 222 974 193 965 q 288 993 250 989 q 356 997 325 997 q 364 996 357 996 l 369 996 q 372 997 371 996 q 376 997 374 997 l 421 997 m 244 651 q 246 654 246 654 q 238 658 246 658 l 236 653 q 239 644 236 644 q 242 647 242 644 q 244 650 243 649 l 244 651 m 357 603 q 344 607 349 607 q 335 603 339 607 q 347 600 338 600 l 357 600 l 357 603 m 310 525 q 299 517 299 525 q 310 518 308 517 l 310 525 m 299 574 l 296 565 q 308 561 296 561 l 299 574 m 325 557 l 331 561 l 329 571 l 319 561 l 325 557 m 367 564 q 360 557 360 564 q 369 560 369 557 l 367 564 m 269 553 q 264 546 264 553 l 272 549 l 269 553 m 274 569 q 268 576 274 576 l 265 568 l 274 569 m 303 646 l 303 633 q 311 638 307 633 l 303 646 m 324 661 l 324 664 l 318 667 l 318 664 l 324 661 m 299 603 q 303 592 299 592 l 299 603 m 340 631 q 335 633 335 633 l 333 633 l 331 632 l 335 628 l 340 631 m 256 500 q 260 499 257 499 q 264 504 264 499 l 256 500 m 267 624 q 278 628 278 624 l 265 626 l 267 624 m 244 624 l 244 626 l 239 626 l 239 624 l 244 624 m 213 651 l 211 657 l 208 657 l 213 651 z "},"":{"ha":839,"x_min":44,"x_max":792,"o":"m 510 997 q 542 972 528 997 q 565 917 556 947 q 578 861 574 888 q 582 832 582 835 l 582 824 q 594 794 588 808 q 601 765 601 781 q 601 761 601 763 q 600 758 600 760 l 600 753 q 615 715 606 729 q 625 678 625 700 l 625 663 q 633 635 625 656 q 647 599 640 614 q 644 588 644 593 q 654 531 644 563 q 676 469 664 500 q 697 409 688 438 q 707 361 707 381 l 707 354 q 731 284 725 324 q 744 214 736 244 q 755 171 750 194 q 765 125 760 147 q 776 85 771 103 q 786 61 781 67 q 785 58 786 58 q 785 57 785 58 l 785 58 q 783 53 783 57 q 788 31 783 44 q 792 18 792 17 q 781 1 790 7 q 761 -6 772 -6 q 742 -3 751 -6 q 724 -1 732 -1 q 716 -3 717 -1 q 713 -6 715 -6 l 710 -3 q 686 -7 697 -7 q 662 -5 676 -7 q 635 -3 647 -3 q 626 -4 631 -3 q 618 -6 622 -6 q 590 15 600 -6 q 573 60 579 35 q 563 108 567 85 q 557 136 560 131 q 558 148 557 143 q 560 158 560 153 q 549 178 554 171 q 536 194 543 186 q 499 190 519 190 l 463 190 q 419 192 442 190 q 379 194 397 194 q 369 193 372 194 q 361 192 365 192 q 351 197 353 192 q 333 192 344 192 l 318 192 q 292 180 297 192 q 285 151 286 168 q 281 117 283 135 q 265 88 278 99 q 247 15 265 36 q 197 -7 229 -7 q 169 -3 186 -7 q 158 -4 165 -3 q 143 -6 150 -6 q 128 -3 133 -6 q 113 -5 119 -3 q 99 -7 107 -7 q 83 -3 92 -7 q 72 -6 78 -6 q 54 1 64 -6 q 44 24 44 8 q 51 74 44 46 q 68 134 58 103 q 88 197 78 165 q 101 257 97 229 q 110 292 108 274 q 119 325 113 310 q 124 358 119 340 q 133 394 128 376 q 146 426 139 411 q 157 449 153 440 q 156 460 156 451 q 158 488 156 476 q 165 510 161 500 q 172 528 168 519 q 176 549 175 538 q 179 568 178 558 q 185 586 181 578 q 230 749 215 683 q 250 828 244 815 q 258 877 251 849 q 273 931 264 906 q 292 975 282 957 q 314 993 303 993 l 324 993 q 349 994 336 993 q 374 996 361 996 q 404 993 393 996 q 413 994 407 994 q 422 994 419 994 q 431 993 425 993 q 439 993 436 993 q 454 997 447 993 q 467 1000 461 1000 q 478 997 474 1000 q 490 993 483 993 q 494 994 492 993 q 500 997 497 996 l 510 997 m 296 1274 q 313 1275 299 1275 q 331 1273 322 1275 q 353 1271 340 1271 q 360 1272 356 1271 q 369 1275 365 1274 q 404 1253 386 1274 q 439 1208 422 1233 q 467 1160 456 1183 q 482 1128 479 1136 q 492 1102 482 1113 q 503 1082 503 1092 q 493 1064 503 1072 q 472 1056 483 1056 q 457 1063 467 1056 q 432 1058 449 1058 q 407 1063 415 1058 q 396 1060 401 1060 q 367 1074 385 1060 q 330 1108 349 1088 q 295 1149 311 1128 q 274 1183 279 1169 l 253 1204 q 229 1230 240 1217 q 215 1258 218 1243 q 234 1272 222 1272 q 257 1275 246 1271 q 263 1274 258 1274 q 269 1274 267 1274 q 274 1275 271 1275 q 296 1274 292 1275 m 429 719 q 424 735 422 728 q 415 746 426 742 q 406 728 411 732 q 401 714 401 725 q 403 707 401 708 q 386 653 390 681 q 380 602 382 626 q 374 557 378 578 q 360 524 369 536 q 361 514 360 517 q 363 507 363 511 q 359 483 363 499 q 351 453 356 468 q 343 427 347 439 q 339 415 339 415 q 338 406 339 413 q 336 396 336 399 q 349 379 336 381 q 360 382 354 382 q 368 381 364 382 q 379 379 372 379 q 389 382 386 379 q 417 378 397 378 q 439 380 428 378 q 460 382 450 382 q 472 380 467 382 q 483 378 476 378 q 494 381 488 378 q 501 392 501 383 q 497 428 501 411 q 492 464 492 444 q 478 484 485 469 q 468 515 472 499 q 462 547 464 532 q 460 569 460 563 q 456 590 456 578 q 450 613 456 601 l 450 614 l 450 619 q 448 627 450 624 q 446 635 446 631 q 449 640 446 638 q 439 679 449 664 q 429 718 429 694 l 429 719 m 524 315 q 515 308 521 308 q 507 304 510 307 l 515 303 q 518 303 517 303 q 522 304 519 304 q 531 299 525 304 q 539 303 535 303 l 524 315 m 240 304 q 231 313 238 306 q 225 317 228 315 q 217 307 225 308 l 217 304 l 229 303 q 233 300 233 303 l 236 300 l 240 304 m 271 307 q 260 306 268 306 l 260 303 q 265 295 265 300 q 265 289 264 290 q 274 297 274 289 q 271 304 271 300 l 271 307 m 585 251 q 588 240 585 244 q 592 233 592 236 l 599 232 q 600 239 600 233 q 594 242 594 239 q 595 247 594 244 q 596 251 596 249 l 585 251 m 650 199 q 643 193 643 199 q 647 187 646 190 q 649 183 647 183 q 656 197 656 183 l 650 199 m 647 222 q 639 231 647 231 q 636 225 636 231 q 642 217 638 217 q 647 221 647 217 l 647 222 m 246 332 q 239 335 246 335 q 232 326 232 335 q 239 325 235 325 q 246 332 246 325 m 543 328 q 538 335 543 335 q 529 326 529 335 q 536 322 535 322 q 539 325 536 322 l 538 325 q 539 326 539 325 q 542 326 539 326 l 543 328 m 275 358 q 268 351 268 358 q 275 344 268 344 q 279 354 279 349 l 275 358 m 199 188 q 193 194 199 194 q 188 189 188 194 q 192 181 188 181 l 199 188 m 600 314 q 589 326 600 321 l 586 321 q 589 315 586 315 q 599 313 592 315 l 600 314 m 218 332 l 219 338 q 214 339 217 339 q 208 331 208 339 l 218 332 m 569 357 q 564 354 568 354 q 571 344 564 344 q 576 356 576 350 l 569 357 m 568 293 l 568 301 q 564 307 568 307 q 556 306 563 306 l 556 303 q 564 290 564 300 l 568 293 m 363 268 q 357 271 360 271 q 351 260 351 271 q 363 267 363 260 l 363 268 m 253 264 q 247 265 249 264 l 238 264 q 246 256 238 256 q 253 261 246 258 l 253 264 m 375 289 q 369 292 375 292 q 364 285 364 292 q 372 281 368 281 q 375 289 375 281 m 301 318 l 303 318 q 300 322 303 321 q 297 326 297 324 q 292 321 292 326 q 299 313 292 313 q 303 315 300 313 l 301 318 m 575 322 q 565 336 575 326 l 564 328 q 565 319 564 321 l 575 322 m 547 360 q 542 367 547 367 q 538 361 538 367 q 542 356 538 356 q 547 358 544 356 l 547 360 m 585 289 q 583 299 585 297 l 576 297 l 576 288 l 585 289 m 672 290 q 661 285 661 290 q 669 281 665 281 q 674 289 674 281 l 672 290 m 550 263 q 542 268 544 268 q 536 260 536 268 l 543 257 l 550 263 m 250 357 q 243 365 250 365 l 244 353 l 247 353 l 250 357 m 521 271 q 514 263 514 267 q 519 260 514 260 q 525 267 525 260 l 521 271 m 629 272 q 617 278 624 278 q 615 272 615 276 q 622 268 615 268 l 629 272 m 268 336 l 265 328 q 272 322 265 322 q 278 326 278 322 l 268 336 m 660 268 q 654 271 657 271 q 649 258 649 271 q 656 263 654 261 l 658 265 l 660 268 m 219 249 l 217 249 q 213 247 217 246 q 210 240 210 247 q 219 238 213 238 l 219 249 m 511 339 q 504 335 507 335 q 501 332 501 335 q 507 328 501 328 q 515 332 511 328 l 511 339 m 211 267 q 206 271 211 271 q 200 260 200 271 q 211 265 206 260 l 211 267 m 618 374 q 613 368 613 374 q 618 363 613 363 q 622 369 622 364 l 618 374 m 325 275 l 321 275 q 317 271 317 275 l 322 271 q 328 268 325 268 q 331 274 331 268 l 325 275 m 288 290 q 285 300 288 297 l 275 290 q 282 288 278 288 q 288 289 286 288 l 288 290 m 246 393 q 240 394 243 394 q 236 388 236 394 l 244 388 l 246 393 m 596 357 q 585 358 594 358 l 585 350 l 592 351 l 596 357 m 226 264 q 222 272 222 265 q 215 263 215 265 q 221 260 215 260 q 228 261 226 260 l 226 264 m 635 349 q 629 353 635 353 l 624 346 q 632 343 626 343 q 635 349 635 346 m 258 214 q 251 201 251 207 q 253 196 251 197 q 258 201 258 196 l 258 214 m 618 240 l 608 240 q 611 232 608 232 q 614 233 614 232 q 617 233 614 233 l 618 240 m 169 156 q 160 161 164 161 q 157 154 157 161 q 165 153 158 153 l 169 156 m 185 301 q 181 306 185 306 q 178 299 178 297 q 183 294 178 294 l 188 299 l 185 301 m 589 222 q 575 224 588 224 l 585 217 l 589 222 m 190 369 l 197 363 q 204 367 204 363 l 190 369 m 682 160 q 675 153 675 160 q 682 150 678 150 q 683 158 683 151 l 682 160 m 190 128 q 181 129 189 129 q 183 121 181 121 q 190 126 190 121 l 190 128 m 300 356 q 289 358 297 358 l 288 351 l 294 350 l 300 356 m 476 251 l 475 251 l 472 251 q 471 253 471 251 q 467 247 467 253 q 478 250 478 247 l 476 251 m 333 353 q 328 344 328 353 q 338 350 338 344 l 333 353 m 143 135 l 139 143 l 136 143 l 136 131 l 143 135 m 183 274 q 176 269 176 274 l 178 264 q 185 272 185 264 l 183 274 m 421 353 q 414 361 421 361 q 419 350 414 350 l 421 353 m 579 399 l 572 397 l 574 392 l 576 392 l 579 399 m 735 136 q 728 139 735 139 l 728 131 q 738 135 738 131 l 735 136 m 663 121 q 649 124 660 124 l 657 117 l 663 121 m 678 128 l 675 132 l 672 132 q 671 119 671 129 l 678 128 m 507 267 q 503 268 506 268 q 497 258 497 268 l 507 267 m 547 299 q 558 304 553 299 l 542 306 q 544 303 543 303 q 546 301 546 303 l 546 300 l 547 299 m 167 247 l 178 249 l 178 251 l 167 247 m 288 256 q 281 258 285 258 l 281 249 q 288 253 288 249 l 288 256 m 581 258 l 578 249 q 585 253 585 249 l 581 258 m 239 196 q 232 185 232 193 l 239 196 m 449 285 q 442 269 442 278 l 449 285 m 282 399 q 275 390 275 399 q 282 396 282 390 l 282 399 m 546 394 q 536 400 542 394 l 533 385 l 546 394 m 253 297 l 263 306 l 244 306 l 253 297 m 640 290 q 636 279 636 290 q 643 286 643 281 l 640 290 m 619 124 q 614 126 617 125 q 606 128 611 128 l 613 121 l 619 124 m 482 271 q 475 274 479 274 l 478 265 l 481 265 l 482 271 m 218 358 l 210 358 q 217 351 210 351 l 218 358 m 335 258 l 332 251 q 339 257 339 251 l 335 258 m 254 421 q 247 414 247 421 l 253 415 l 254 421 m 525 375 q 528 367 525 367 q 532 374 532 367 l 525 375 m 449 256 q 436 249 443 256 q 449 253 449 249 l 449 256 m 482 296 q 475 303 482 303 l 478 296 l 482 296 m 561 451 q 557 464 561 460 l 554 453 l 561 451 m 188 349 l 181 342 l 183 339 l 188 349 m 346 285 q 340 293 346 288 l 339 281 q 346 285 346 281 m 325 369 l 317 369 l 319 364 l 322 364 l 325 369 m 604 408 q 596 403 596 408 l 603 403 l 604 408 m 624 396 q 617 401 624 401 l 619 393 l 624 396 m 608 296 l 606 296 q 601 294 604 294 q 608 289 601 289 l 608 296 m 267 451 q 263 463 267 458 l 260 453 l 267 451 m 322 403 l 322 392 q 326 397 326 392 l 322 403 m 694 203 q 693 205 693 204 q 692 207 693 206 q 689 208 690 208 q 686 201 686 203 q 690 200 686 200 l 694 203 m 414 333 l 415 326 q 421 332 421 326 l 414 333 m 571 189 q 561 194 571 194 l 568 185 l 571 189 m 153 124 l 146 125 l 149 118 l 151 118 l 153 124 m 478 339 l 483 340 l 483 343 l 478 339 m 599 383 q 604 382 601 382 q 608 386 608 382 l 599 383 m 340 228 l 343 217 q 347 226 347 221 l 340 228 m 600 207 q 596 200 596 207 q 603 201 601 200 l 600 207 m 222 231 l 215 228 q 221 224 215 224 l 222 231 m 274 188 q 268 194 274 194 l 274 188 m 540 415 q 550 417 549 415 q 551 421 551 418 l 540 415 m 235 219 q 228 224 235 224 l 229 218 l 235 219 m 601 151 l 597 149 l 597 146 q 604 150 604 146 l 601 151 m 585 421 l 578 414 l 581 411 l 585 421 m 624 100 l 617 107 l 619 96 l 624 100 m 628 214 l 619 214 l 624 210 l 626 210 l 628 214 m 297 251 l 289 251 q 296 247 289 247 l 297 251 m 599 193 l 599 200 l 596 200 q 593 196 596 199 l 599 193 m 592 432 l 586 429 l 586 426 l 592 432 m 226 401 l 221 426 l 221 396 l 226 401 m 656 165 l 654 175 l 651 175 l 651 167 l 656 165 m 631 325 l 625 322 l 625 319 l 631 325 m 143 207 l 138 204 l 138 201 l 143 207 m 288 418 q 283 413 283 418 l 286 413 l 288 418 m 517 242 l 515 246 l 513 246 l 513 239 l 517 242 m 471 221 q 482 226 482 221 l 471 221 m 203 250 l 200 250 l 197 246 l 200 246 l 203 250 m 307 407 l 306 415 l 303 415 l 304 403 l 307 407 m 675 188 l 674 193 l 671 193 l 675 188 m 643 379 q 647 385 647 379 l 644 385 l 643 379 m 238 421 l 229 418 l 229 415 l 238 421 m 643 88 l 646 88 l 647 100 l 644 100 l 643 90 l 643 88 m 429 274 l 426 278 l 424 278 l 426 272 l 429 274 m 376 306 l 376 303 q 385 307 381 303 l 376 306 m 660 417 l 657 417 l 656 413 l 658 413 l 660 417 m 614 419 l 614 422 l 610 421 l 610 418 l 614 419 z "},"":{"ha":1239,"x_min":44,"x_max":1192,"o":"m 526 997 q 548 995 538 997 q 569 993 558 993 q 591 995 579 993 q 617 997 603 997 q 622 994 619 996 q 626 993 625 993 q 635 995 631 993 q 647 1000 639 997 q 661 996 647 999 q 681 993 675 993 q 701 997 690 993 q 716 994 710 997 q 732 992 722 992 q 744 994 739 992 q 756 996 749 996 l 803 996 q 813 993 806 993 q 826 995 819 993 q 839 997 832 997 q 860 994 854 997 q 872 992 865 992 q 885 994 879 992 q 900 997 892 997 q 905 997 903 997 q 910 996 907 996 l 919 996 q 943 998 931 996 q 967 1000 956 1000 q 1005 998 986 1000 q 1044 996 1024 996 l 1054 996 q 1069 994 1061 996 q 1085 992 1078 992 q 1092 993 1088 992 q 1101 996 1097 994 q 1119 992 1108 993 q 1140 988 1129 990 q 1158 978 1150 985 q 1167 961 1165 972 q 1164 950 1164 956 q 1167 943 1167 947 q 1164 936 1165 940 q 1163 929 1163 932 l 1163 924 q 1164 892 1164 917 q 1163 883 1164 888 q 1163 875 1163 879 l 1163 860 q 1163 852 1163 856 q 1164 846 1164 849 l 1164 839 q 1146 808 1164 815 q 1114 801 1128 801 l 1107 801 q 1103 802 1104 801 q 1099 803 1101 803 q 1093 801 1097 801 l 1086 801 q 1084 802 1085 801 q 1081 803 1083 803 q 1076 801 1078 803 q 1072 799 1075 800 q 1058 800 1064 799 q 1046 801 1053 801 l 1017 797 q 1002 795 1010 796 q 988 794 994 794 q 971 797 982 794 l 954 801 q 946 799 950 801 q 938 797 942 797 q 922 799 931 797 q 904 801 914 801 q 896 800 901 801 q 886 797 890 799 q 872 799 879 797 q 856 801 865 801 q 819 799 839 801 q 799 783 799 797 q 803 769 803 779 l 803 704 q 799 665 803 675 q 801 634 800 649 q 807 608 803 619 q 836 599 819 600 q 863 597 853 597 q 890 599 878 597 q 915 601 901 601 q 934 599 926 601 q 951 597 942 597 q 965 599 958 597 q 979 601 972 601 q 1017 590 999 601 q 1036 538 1036 578 q 1035 512 1036 525 q 1033 490 1033 499 q 1035 472 1033 481 q 1038 453 1038 464 q 1022 417 1038 429 q 990 404 1006 406 q 983 407 988 406 q 978 408 979 408 q 970 407 972 408 q 965 406 968 406 q 957 408 960 406 l 886 408 q 860 413 869 413 q 817 406 835 413 q 800 368 800 399 q 803 346 800 356 q 806 325 806 336 q 803 309 806 318 q 800 296 800 300 q 803 276 800 283 q 806 261 806 268 q 803 244 806 257 q 794 225 800 231 q 803 215 803 221 q 806 203 804 208 q 814 195 807 199 q 843 192 821 192 q 874 194 858 192 q 907 197 889 197 q 922 195 914 197 q 939 193 931 193 l 956 193 q 971 192 968 193 q 1002 192 983 192 q 1040 192 1021 192 q 1078 193 1060 193 q 1110 193 1097 193 q 1116 190 1113 192 q 1121 189 1119 189 q 1140 193 1132 189 q 1149 196 1149 197 q 1153 194 1151 196 q 1160 192 1156 192 q 1162 192 1161 192 q 1164 193 1163 193 q 1172 185 1167 190 q 1182 176 1178 179 l 1186 172 q 1185 164 1186 168 q 1183 156 1183 160 q 1186 135 1183 147 q 1192 111 1189 122 q 1189 84 1188 100 q 1188 56 1190 68 q 1192 35 1192 43 q 1180 4 1192 14 q 1153 -6 1168 -6 q 1127 -3 1140 -6 q 1104 -1 1114 -1 q 1092 -3 1097 -1 q 1081 -6 1088 -6 q 1065 -3 1072 -6 q 1049 -1 1058 -1 q 1020 -3 1035 -1 q 993 -6 1006 -6 q 972 -3 981 -6 q 951 -1 963 -1 q 929 -3 940 -1 q 907 -6 918 -6 q 888 -3 896 -6 q 858 -6 874 -6 l 821 -6 q 805 -6 813 -6 q 792 -7 797 -6 l 790 -3 q 777 -4 785 -3 q 764 -6 769 -6 q 758 -4 760 -6 q 751 -3 756 -3 l 746 -6 l 742 -6 q 737 -3 739 -4 q 732 -1 735 -1 q 720 -4 726 -1 q 708 -7 714 -7 q 686 -4 696 -7 q 665 -1 676 -1 q 651 -3 657 -1 q 638 -6 644 -6 q 600 28 600 -6 l 600 49 q 598 78 600 64 q 596 107 596 92 q 599 128 596 118 q 603 150 603 139 q 601 163 603 156 q 599 178 599 171 q 600 190 599 188 q 583 214 600 208 q 556 219 567 219 q 527 216 540 219 q 499 213 514 213 q 486 215 492 213 q 476 213 481 214 q 464 213 471 213 q 456 215 460 213 q 444 218 453 218 q 436 215 439 218 l 438 215 q 431 213 432 213 q 424 217 425 213 q 417 211 421 211 q 405 213 410 211 q 393 215 400 215 l 368 215 q 349 218 357 215 q 328 206 336 215 q 316 184 321 196 q 308 160 311 172 q 303 143 306 149 q 296 121 300 131 q 286 101 292 111 l 286 103 q 271 64 275 85 l 267 51 q 250 13 260 32 q 217 -6 240 -6 q 202 -3 207 -6 q 190 -1 197 -1 q 181 -3 185 -1 q 171 -6 176 -6 q 159 -3 165 -6 q 147 -1 153 -1 q 134 -4 142 -1 q 119 -7 126 -7 q 69 -1 94 -7 q 44 21 44 4 q 51 49 44 36 q 64 76 57 63 q 78 104 71 90 q 88 135 85 118 q 122 213 107 181 q 148 272 136 246 q 167 320 160 299 q 181 365 175 342 l 181 364 q 225 452 207 407 q 257 540 243 497 q 283 619 271 582 q 311 686 294 657 l 311 685 q 331 728 328 704 q 350 775 333 753 q 360 803 353 790 q 374 831 367 817 l 382 849 q 388 875 382 856 q 403 915 394 894 q 421 954 413 936 q 433 976 429 972 q 463 996 444 992 q 492 1000 481 1000 q 503 997 499 1000 q 515 993 508 993 q 526 997 518 993 m 596 808 q 583 818 592 813 q 558 802 568 817 q 549 776 549 788 q 544 759 549 767 q 535 743 540 751 q 526 726 531 735 q 521 704 522 717 q 494 631 506 668 q 458 561 482 593 q 444 506 458 536 q 419 453 431 475 l 419 447 q 415 431 419 439 q 410 415 410 424 q 422 401 410 403 q 443 399 435 399 q 475 406 458 399 q 483 403 478 403 q 492 399 489 404 q 513 402 503 401 q 532 403 522 403 q 545 402 539 403 q 558 401 551 401 l 582 401 q 597 425 594 406 q 599 463 599 444 q 594 492 599 472 q 596 501 596 494 q 596 514 596 507 l 596 533 q 595 546 596 540 q 594 558 594 551 q 597 578 594 569 q 599 599 599 588 q 597 617 599 610 q 596 636 596 625 q 599 644 599 639 q 596 653 599 650 q 597 681 599 667 q 600 708 596 694 q 592 733 592 725 q 595 753 592 744 q 599 769 599 763 q 597 788 599 781 q 596 807 596 794 l 596 808 m 686 347 q 681 358 686 357 q 675 365 675 360 l 672 365 l 671 358 q 678 353 675 356 q 681 344 681 351 q 677 338 681 339 q 670 336 674 336 q 663 335 667 336 q 660 331 660 335 l 672 332 l 676 331 q 683 335 681 331 q 689 343 685 339 l 689 346 l 686 347 m 715 263 q 716 257 715 258 q 717 254 717 256 q 714 247 717 251 q 708 240 711 243 l 704 235 q 725 263 725 240 l 715 263 m 779 199 q 765 208 771 200 q 751 201 751 208 l 756 197 l 761 200 l 765 196 q 774 193 768 193 q 781 196 778 193 l 779 199 m 781 497 l 774 496 q 766 501 768 496 q 761 506 764 506 q 753 503 756 506 l 753 501 q 751 496 753 497 l 761 497 l 765 493 l 765 494 q 774 489 767 489 q 781 490 779 489 l 781 497 m 753 167 q 744 160 744 164 q 753 153 744 153 q 763 160 758 153 l 753 167 m 568 303 l 550 315 q 545 309 547 310 q 542 308 543 308 l 542 306 l 568 303 m 725 204 q 713 208 718 208 q 710 193 713 196 l 718 185 q 725 201 718 194 l 725 204 m 674 221 q 661 231 674 231 l 661 217 q 674 221 674 217 m 725 410 l 713 410 q 704 408 706 410 q 713 401 704 401 q 724 403 719 401 l 725 410 m 739 365 q 735 360 735 365 l 735 350 q 739 348 738 349 q 743 344 740 347 l 749 347 l 749 350 q 743 361 743 350 l 739 365 m 761 143 q 751 131 751 143 q 760 129 753 129 l 765 140 l 761 143 m 868 96 q 858 101 868 101 q 854 94 854 97 q 863 89 854 89 q 868 96 868 89 m 688 265 q 685 271 688 271 q 672 264 679 271 q 682 256 672 256 q 688 264 682 260 l 688 265 m 654 278 l 643 279 q 640 274 640 276 q 649 268 640 268 q 654 272 654 268 l 654 278 m 1046 54 q 1038 61 1038 58 q 1033 71 1039 64 l 1032 54 q 1039 50 1036 50 q 1042 51 1042 50 q 1044 51 1042 51 l 1046 54 m 701 283 q 694 290 697 290 l 682 290 q 686 285 683 288 l 688 283 q 686 282 686 282 l 701 283 m 707 124 q 704 131 707 128 l 696 133 l 693 121 q 707 122 706 121 l 707 124 m 265 303 l 265 306 l 253 311 q 248 308 253 308 q 243 304 243 308 l 265 303 m 715 356 q 713 367 715 364 q 708 362 710 363 q 706 357 706 361 q 708 350 706 350 q 715 354 711 350 l 715 356 m 663 353 q 658 354 660 353 q 657 356 657 354 l 650 346 q 663 340 656 340 l 663 353 m 747 53 q 744 57 744 54 q 744 62 744 60 q 742 66 744 64 q 735 68 740 68 q 746 50 735 54 l 747 53 m 682 493 q 676 496 679 496 q 671 493 674 496 l 671 482 q 682 492 682 485 l 682 493 m 404 289 q 397 292 404 292 q 392 286 392 292 q 397 281 392 281 q 404 289 404 281 m 947 100 l 947 108 l 940 106 l 938 94 q 949 97 946 94 l 947 100 m 704 425 l 704 426 q 697 428 701 428 q 693 421 693 428 q 703 418 693 418 q 706 424 706 421 l 704 425 m 736 236 q 734 237 735 236 q 732 238 733 238 q 728 229 728 238 q 728 227 728 228 q 729 225 729 226 q 724 224 729 224 q 735 219 728 219 l 735 229 q 738 233 735 231 l 736 236 m 833 124 q 828 129 833 129 q 822 124 822 129 q 832 118 822 118 l 833 124 m 847 103 l 847 104 q 842 111 847 106 q 836 106 840 106 l 839 97 l 846 99 l 847 103 m 711 160 l 704 161 q 702 156 704 157 q 700 153 700 156 q 703 149 700 149 q 711 150 710 149 l 711 160 m 325 351 q 315 358 325 358 q 313 353 313 353 q 317 350 313 350 l 325 351 m 886 167 q 878 161 876 167 q 876 156 879 156 l 876 153 q 886 156 888 153 q 888 165 885 158 l 886 167 m 449 347 l 449 350 q 446 357 446 353 q 439 361 446 361 l 438 350 l 449 347 m 810 129 q 800 132 807 132 q 801 124 800 126 q 808 121 801 121 q 810 128 810 122 l 810 129 m 786 106 q 779 100 779 106 q 788 94 779 94 q 790 101 790 94 l 786 106 m 876 125 q 865 118 865 122 q 872 113 865 113 q 875 118 872 115 l 876 125 m 721 164 q 735 158 731 164 q 739 163 739 160 q 735 167 739 164 l 729 172 l 721 164 m 353 401 q 343 396 343 401 q 353 390 343 390 l 353 401 m 611 294 q 601 299 607 299 q 601 297 601 297 q 600 294 600 296 q 606 288 600 288 q 611 293 611 289 l 611 294 m 674 378 q 675 383 675 379 q 671 390 675 386 q 665 379 665 390 l 674 378 m 854 83 q 844 76 847 83 q 854 71 850 71 q 857 79 857 74 l 854 83 m 567 333 q 563 334 564 333 q 561 335 563 335 q 557 329 557 335 q 567 324 557 324 l 567 333 m 771 119 q 764 131 771 124 l 763 118 l 764 113 q 771 118 771 115 l 771 119 m 922 113 l 917 111 l 918 100 q 926 105 922 104 q 929 113 929 106 l 922 113 m 710 315 q 702 311 703 315 q 696 307 701 307 l 699 301 l 701 301 q 706 306 701 304 q 711 314 711 308 l 710 315 m 254 268 q 247 271 251 271 q 243 261 243 267 l 251 260 q 254 267 254 263 l 254 268 m 449 328 q 439 335 449 335 q 438 328 438 333 q 447 324 442 324 l 449 328 m 650 369 l 640 371 l 633 364 l 649 363 l 650 369 m 790 453 q 781 460 786 460 q 778 453 778 460 l 779 444 l 790 453 m 314 294 l 313 294 l 310 294 q 308 296 308 294 q 304 289 304 296 q 314 288 306 288 q 315 293 315 289 l 314 294 m 651 394 q 650 397 650 396 l 650 404 l 643 401 l 643 390 q 647 391 646 390 q 650 392 649 392 l 651 394 m 386 271 q 379 261 379 271 q 385 260 382 260 q 389 267 389 260 l 386 271 m 956 56 q 949 57 956 57 l 949 46 q 956 47 956 46 q 957 53 957 49 l 956 56 m 929 89 q 922 93 922 89 q 913 97 921 97 q 928 85 918 85 l 929 89 m 940 122 q 935 129 940 129 q 929 122 929 129 l 938 121 l 940 122 m 854 122 q 849 125 854 125 q 843 122 843 125 q 853 117 843 117 l 854 122 m 915 135 q 908 136 914 136 q 906 129 906 136 l 914 124 q 917 132 917 129 l 915 135 m 910 121 q 904 124 907 124 l 899 121 l 901 114 q 910 119 910 117 l 910 121 m 808 525 q 793 518 800 525 l 803 517 q 808 522 808 517 l 808 525 m 729 183 q 723 184 725 183 q 719 185 721 185 q 722 175 719 178 l 728 176 l 729 183 m 869 58 q 863 69 869 69 q 861 64 861 68 q 865 57 861 61 l 869 58 m 688 418 q 676 422 683 422 l 675 414 l 686 414 l 688 418 m 928 153 q 918 146 918 153 l 924 144 q 929 151 929 146 l 928 153 m 699 104 q 689 97 689 104 q 696 94 692 94 q 699 100 699 97 l 699 104 m 669 288 q 661 293 667 288 l 661 281 q 671 286 671 281 l 669 288 m 753 274 l 750 278 l 747 278 l 747 279 q 735 265 743 279 q 745 267 744 265 q 746 271 746 269 l 751 271 l 753 274 m 832 110 q 829 115 832 113 l 822 113 l 824 106 q 832 108 829 106 l 832 110 m 736 78 q 742 85 742 78 l 735 92 l 732 79 l 736 78 m 781 67 q 771 69 781 69 l 771 61 q 781 67 781 61 m 475 333 q 467 326 467 333 q 481 332 481 326 l 475 333 m 268 333 q 260 326 260 331 l 267 324 q 268 329 268 325 l 268 333 m 688 119 q 679 125 688 125 l 676 117 q 688 118 686 117 l 688 119 m 788 156 q 785 159 788 157 q 781 165 783 161 q 778 156 778 163 q 788 153 778 153 l 788 156 m 735 333 q 740 324 735 324 q 743 333 743 324 l 735 333 m 703 397 q 697 400 700 399 q 692 401 694 401 l 692 392 q 694 392 693 392 q 697 393 696 393 q 699 394 699 393 l 703 397 m 1075 64 q 1068 69 1075 69 q 1065 63 1065 67 q 1072 60 1074 60 q 1075 64 1075 60 m 306 399 q 300 392 300 399 l 306 390 q 310 397 310 392 l 306 399 m 742 382 q 736 385 739 385 q 732 374 732 385 q 736 376 735 375 q 740 379 738 378 l 742 382 m 831 99 l 829 86 l 835 85 q 838 92 838 85 l 831 99 m 244 338 q 233 335 236 338 q 242 331 233 331 q 246 336 246 331 l 244 338 m 353 367 q 343 371 353 371 l 343 360 l 353 367 m 767 358 l 776 360 q 779 360 778 357 q 781 368 781 363 l 767 358 m 228 268 q 225 264 225 265 q 232 260 225 260 q 235 267 235 263 l 228 268 m 993 122 l 1003 122 q 999 128 1000 125 q 995 132 996 131 q 993 135 994 133 l 993 122 m 688 218 q 681 219 686 219 q 678 211 678 211 q 682 210 678 210 l 686 213 l 688 218 m 704 458 l 686 447 q 703 446 700 446 q 710 446 707 446 q 714 454 710 450 l 704 458 m 735 121 q 719 124 732 124 q 732 118 726 118 q 735 119 735 118 l 735 121 m 599 325 q 592 331 599 331 q 589 324 589 328 l 597 322 l 599 325 m 761 432 q 756 438 761 438 q 755 435 756 436 q 754 432 754 433 q 758 426 754 426 l 761 432 m 714 490 q 719 499 719 490 l 715 507 l 713 507 q 715 496 715 496 q 713 492 713 493 l 714 490 m 993 104 q 986 99 986 104 l 994 92 l 996 100 l 993 104 m 597 357 q 593 351 593 357 l 593 346 l 596 346 q 598 349 596 349 q 600 356 600 349 l 597 357 m 625 408 l 619 406 q 626 401 619 401 q 631 407 631 401 l 625 408 m 983 121 q 978 124 981 124 q 972 117 972 124 l 982 117 l 983 121 m 800 50 l 799 42 q 808 49 808 42 l 800 50 m 572 267 q 567 268 571 268 q 564 260 564 268 q 572 265 572 260 l 572 267 m 1011 63 q 1006 65 1011 65 q 1001 57 1001 61 q 1011 63 1011 57 m 578 356 q 564 365 568 365 q 571 356 564 356 l 578 356 m 708 194 l 696 194 l 696 182 l 708 194 m 724 310 q 729 303 724 303 q 733 310 733 303 l 724 310 m 793 394 l 785 401 l 782 399 l 793 394 m 656 260 l 657 246 q 663 258 663 251 l 656 260 m 619 356 q 613 358 619 358 l 613 347 l 619 356 m 628 343 l 621 342 l 621 339 l 626 336 l 628 343 m 363 344 l 361 336 q 358 349 358 349 q 357 347 357 349 q 360 343 357 343 l 363 344 m 897 60 q 886 54 892 60 l 896 51 l 897 60 m 650 100 q 643 104 650 104 l 643 94 l 649 97 l 650 100 m 701 218 q 693 213 693 218 l 701 210 l 701 218 m 722 353 l 722 344 q 729 350 729 344 l 722 353 m 778 174 q 783 168 782 168 q 786 176 786 168 l 778 174 m 297 307 q 288 303 288 307 q 294 300 290 300 l 297 307 m 785 132 l 778 135 q 783 126 778 126 l 785 132 m 663 524 q 671 518 667 518 q 676 521 674 518 l 663 524 m 713 131 l 722 133 l 713 146 l 713 131 m 683 168 l 678 174 q 675 167 675 165 q 676 164 675 165 l 683 168 m 746 129 q 736 125 736 129 l 742 125 q 743 126 743 125 l 746 129 m 814 193 q 808 185 808 188 q 813 182 808 182 l 814 193 m 546 268 q 542 261 542 268 q 544 260 542 260 l 546 260 q 549 267 549 260 l 546 268 m 626 240 q 619 233 619 240 q 627 235 626 233 q 628 239 628 236 l 626 240 m 764 261 l 764 249 q 771 254 771 249 l 764 261 m 506 269 q 499 274 503 274 l 499 261 l 506 269 m 608 224 l 606 215 q 610 216 608 215 q 614 217 611 217 l 614 219 l 608 224 m 718 381 q 713 372 713 381 q 719 379 719 372 l 718 381 m 333 406 q 328 408 331 408 q 324 401 324 408 q 332 403 328 403 l 333 406 m 724 418 q 728 413 726 413 q 736 418 731 413 l 724 418 m 354 281 q 346 275 349 275 l 346 272 l 353 271 l 354 281 m 481 368 l 474 361 l 476 358 l 481 368 m 1074 124 l 1057 124 l 1065 115 l 1074 124 m 646 233 l 636 243 q 639 233 636 233 l 646 233 m 642 122 l 642 125 l 638 128 l 638 125 l 642 122 m 697 344 q 703 342 699 342 q 706 347 706 342 l 697 344 m 272 392 l 264 400 q 267 388 264 388 l 272 392 m 536 336 q 532 335 535 335 l 532 332 q 536 331 533 331 q 540 336 540 331 l 536 336 m 803 89 q 798 91 801 90 q 793 92 794 92 l 800 85 l 803 89 m 372 363 l 375 356 q 381 363 381 356 l 372 363 m 665 417 l 668 410 q 674 417 674 410 l 665 417 m 947 67 l 940 74 l 938 71 l 947 67 m 917 60 l 907 61 l 914 54 l 917 60 m 814 486 l 811 486 l 811 481 l 814 481 l 814 486 m 181 124 l 174 121 l 174 118 l 179 117 l 181 124 m 635 290 q 633 294 635 292 q 631 299 632 296 q 629 293 629 296 q 633 289 629 289 l 635 290 m 771 421 q 761 422 769 422 l 767 417 q 771 411 767 411 l 771 421 m 272 306 l 279 299 q 283 306 283 299 l 272 306 m 275 358 l 271 363 l 268 363 q 274 354 268 354 l 275 358 m 476 276 q 471 279 476 279 l 469 272 q 476 276 476 272 m 675 119 l 665 119 l 668 114 l 671 114 l 675 119 m 836 68 q 832 58 832 61 q 836 51 832 53 l 836 68 m 342 314 q 335 308 335 314 l 342 314 m 331 342 l 325 339 l 325 336 l 331 342 m 415 315 q 412 314 414 315 q 408 313 410 313 l 410 310 q 415 311 411 311 l 415 315 m 603 390 q 604 401 604 392 l 597 393 l 603 390 m 306 354 l 303 357 l 296 353 l 299 350 l 306 354 m 769 179 l 767 179 l 764 175 l 767 175 l 769 179 m 535 268 q 526 266 528 268 q 525 258 525 264 l 535 268 m 703 171 l 700 171 q 693 168 699 168 q 703 164 697 164 l 703 171 m 300 326 q 299 328 299 326 l 296 328 l 294 322 q 301 324 300 322 l 300 326 m 260 369 q 250 375 260 375 l 257 367 l 260 369 m 664 133 l 664 143 q 660 135 660 143 l 664 133 m 1033 90 l 1036 93 l 1032 97 l 1029 94 l 1033 90 m 168 136 q 161 139 165 139 l 164 132 l 168 136 m 510 299 l 510 301 q 503 303 506 303 l 503 300 l 510 299 m 1029 83 l 1029 81 l 1033 78 l 1033 81 l 1029 83 m 764 86 l 764 81 l 758 92 l 760 86 l 764 86 m 815 161 l 818 160 l 821 164 l 818 164 l 815 161 m 206 224 l 206 221 q 213 226 213 221 l 206 224 m 299 289 q 294 297 299 297 l 294 290 l 299 289 m 379 340 q 389 342 388 340 q 390 346 390 343 l 379 340 m 683 463 l 682 471 l 679 471 l 679 464 l 683 463 m 224 250 l 225 242 l 228 242 l 228 249 l 224 250 m 1019 113 l 1014 111 l 1014 108 l 1019 113 m 206 267 l 208 267 l 208 272 l 206 272 l 206 267 m 415 324 l 418 322 q 421 329 421 325 l 418 329 l 415 324 m 957 113 q 971 117 967 113 l 968 119 l 957 113 m 822 99 l 819 99 l 818 94 l 821 94 l 822 99 m 338 386 l 328 389 l 335 382 l 338 386 m 343 421 l 342 425 l 339 425 l 340 419 l 343 421 z "},"":{"ha":515,"x_min":44,"x_max":471,"o":"m 133 993 q 156 992 139 992 q 192 994 174 992 q 229 996 211 996 l 239 996 q 244 997 242 996 q 249 997 246 997 l 257 997 q 265 996 264 997 q 271 997 268 996 q 276 997 274 997 l 285 997 q 292 994 288 996 q 297 993 296 993 q 313 995 306 993 q 329 997 321 997 q 342 996 339 997 q 353 997 347 997 q 364 997 358 997 l 388 997 q 409 994 397 997 q 435 992 421 992 q 447 993 444 992 q 464 981 457 992 q 471 963 471 969 q 469 957 471 958 l 469 932 q 465 909 469 921 q 449 892 460 897 l 408 892 q 389 893 393 892 q 363 876 368 893 q 364 863 364 874 q 362 846 364 853 q 360 831 360 839 q 363 819 360 825 q 360 804 360 811 q 367 760 360 781 q 364 753 365 757 q 363 746 363 749 q 365 734 363 740 q 367 724 367 728 q 363 710 367 718 q 364 701 364 707 q 362 690 364 694 q 360 681 360 685 q 363 647 360 663 q 367 614 367 631 q 367 601 367 607 q 365 588 367 594 l 363 560 q 364 550 364 557 q 362 535 364 543 q 360 522 360 528 q 361 496 360 511 q 367 475 363 481 l 363 468 l 363 318 q 367 297 363 307 q 363 290 364 294 q 363 285 363 286 q 364 278 363 282 q 367 272 365 275 q 364 239 364 258 l 364 199 q 363 164 364 171 q 367 150 367 160 q 365 135 367 143 q 364 122 364 128 q 385 101 364 103 q 419 106 403 106 q 451 96 436 106 q 465 63 465 86 q 469 39 465 44 q 465 24 467 32 q 461 8 464 15 q 450 -3 458 1 q 425 -7 442 -7 l 410 -7 q 403 -6 407 -7 q 396 -6 400 -6 q 387 -6 392 -6 q 379 -7 382 -6 q 369 -6 375 -6 q 361 -6 364 -6 l 301 -6 q 269 -3 283 -6 q 258 -6 264 -6 q 243 -3 251 -6 q 229 -1 235 -1 q 213 -3 221 -1 q 197 -6 206 -6 q 172 -4 183 -6 q 151 -3 161 -3 q 126 -6 140 -6 l 100 -6 q 63 3 79 -6 q 46 44 46 11 q 55 85 46 75 q 79 101 64 94 q 84 103 82 103 q 88 106 86 104 q 99 102 94 106 q 114 99 104 99 q 131 101 122 99 q 143 107 140 104 l 151 118 l 151 211 q 150 213 150 211 q 156 219 150 214 q 149 263 149 240 q 151 278 149 272 q 150 284 151 282 q 149 290 149 286 q 151 307 149 297 q 153 328 153 317 q 152 336 153 332 q 151 343 151 340 l 151 363 l 149 365 q 150 378 149 369 q 151 393 151 386 q 149 412 151 404 q 147 432 147 419 q 149 456 147 444 q 151 481 151 468 q 149 513 151 499 q 147 542 147 526 q 151 565 147 554 l 151 744 q 151 784 151 764 q 147 824 150 804 q 150 850 151 835 q 151 876 149 865 q 140 890 149 888 q 124 893 132 892 l 111 892 q 97 890 104 892 q 86 889 90 889 q 53 908 63 889 q 44 943 44 926 q 44 960 44 950 q 49 978 44 969 q 65 992 54 986 q 99 997 76 997 q 113 994 107 997 q 126 992 119 992 q 133 993 132 992 m 150 1275 q 164 1274 158 1275 l 197 1269 q 221 1274 208 1269 q 248 1249 233 1267 q 276 1210 263 1231 q 299 1169 289 1189 q 313 1136 308 1149 q 332 1110 325 1126 q 340 1076 339 1093 q 324 1063 335 1067 q 306 1058 314 1058 q 295 1060 300 1058 q 285 1063 290 1063 q 271 1060 278 1063 q 257 1058 264 1058 q 219 1068 235 1058 q 190 1092 203 1078 q 164 1122 176 1107 q 136 1150 151 1138 q 113 1174 125 1160 q 88 1202 100 1188 q 66 1230 76 1217 q 50 1253 56 1243 q 57 1264 54 1257 q 67 1274 60 1271 q 76 1271 69 1271 q 92 1273 85 1271 q 107 1275 99 1275 q 122 1273 115 1275 q 138 1271 129 1271 q 150 1275 142 1271 m 235 353 q 228 358 226 353 q 221 363 231 363 l 221 350 q 225 349 222 349 q 228 344 228 350 q 235 346 235 344 q 236 351 236 347 l 235 353 m 256 203 q 240 208 251 208 l 240 200 q 247 199 243 197 q 257 194 250 200 l 257 199 q 256 201 257 200 q 256 203 256 201 m 243 160 q 236 167 243 167 q 233 160 233 164 q 238 153 233 153 q 243 160 243 153 m 264 333 q 259 333 261 333 q 256 332 257 332 l 251 331 q 257 324 251 324 q 264 329 264 324 l 264 333 m 286 210 q 285 215 286 213 q 282 219 283 217 l 274 210 q 282 207 282 207 q 286 210 286 207 m 275 156 l 267 164 q 261 154 261 164 l 269 153 l 275 156 m 263 365 q 256 367 263 367 l 256 356 q 263 358 263 356 q 264 364 264 360 l 263 365 m 258 421 l 251 422 q 250 418 250 421 q 251 413 250 415 q 258 411 251 411 l 258 421 m 301 189 l 299 194 q 292 188 292 194 q 301 181 296 183 l 301 189 m 236 53 q 229 61 229 56 l 226 61 l 224 56 q 231 50 224 50 l 236 53 m 256 258 q 249 253 249 258 l 251 247 q 258 253 258 247 l 256 258 m 236 275 q 229 278 233 278 q 228 276 228 276 q 226 274 228 275 q 225 271 225 272 l 225 268 q 229 267 226 267 q 235 271 231 267 l 236 275 m 310 369 l 296 369 l 303 363 q 310 365 310 363 l 310 369 m 258 278 q 253 282 258 282 l 251 275 q 256 271 253 271 q 258 278 258 271 m 289 228 q 283 219 283 228 q 294 226 294 222 l 289 228 m 294 129 l 288 136 q 292 121 288 121 l 294 129 m 278 394 l 268 401 l 265 399 l 278 394 m 264 67 q 256 69 264 69 l 256 61 q 263 63 263 61 q 264 67 264 64 m 290 274 l 278 271 l 288 261 l 290 274 m 290 303 q 285 304 288 304 q 283 300 283 304 q 290 294 285 294 l 290 303 m 247 135 q 240 140 247 140 l 240 131 l 247 135 m 275 232 q 268 235 272 235 l 260 228 q 275 229 274 228 l 275 232 m 213 224 q 219 221 215 221 l 219 231 q 213 225 213 231 l 213 224 m 286 250 q 283 251 285 251 q 278 256 282 251 q 276 250 276 253 q 282 247 276 247 l 286 250 m 231 333 l 224 335 l 224 324 l 231 333 m 258 126 l 251 119 l 254 117 l 258 126 m 274 103 q 267 104 274 104 l 267 101 l 274 99 l 274 103 m 253 181 q 249 174 249 181 q 256 179 256 174 l 253 181 m 332 375 l 335 368 q 339 374 339 368 l 332 375 m 338 124 q 331 118 331 124 l 338 124 m 161 194 l 158 194 l 157 190 q 161 185 157 185 l 161 194 m 261 154 l 254 161 l 251 158 l 261 154 m 253 504 q 244 502 246 504 q 243 494 243 500 l 253 504 m 317 268 q 308 266 310 268 q 307 258 307 264 l 317 268 m 317 122 l 317 125 l 311 128 l 313 122 l 317 122 m 225 158 l 225 161 l 221 164 l 221 161 l 225 158 m 321 332 l 321 335 l 317 338 l 317 335 l 321 332 m 339 78 q 332 74 332 78 l 339 78 m 292 419 l 290 425 l 288 425 l 292 419 m 292 344 l 288 344 l 288 340 l 290 340 l 292 344 z "},"":{"ha":718,"x_min":44,"x_max":675,"o":"m 365 1014 q 372 1015 371 1014 q 379 1017 374 1017 q 459 1003 418 1017 q 535 965 500 989 q 598 910 571 942 q 638 842 625 878 q 650 815 646 831 q 656 783 654 800 q 660 751 658 767 q 668 724 663 735 q 665 715 668 718 q 668 706 665 706 q 671 704 671 707 l 671 689 q 673 674 671 681 q 675 658 675 667 q 671 646 675 654 l 671 588 q 668 574 668 579 q 670 548 668 560 q 672 524 672 536 q 671 507 672 511 q 673 458 671 482 q 675 408 675 435 q 674 360 675 383 q 672 313 672 336 l 672 301 q 671 275 672 288 q 661 254 669 263 l 661 229 q 637 126 661 168 q 582 58 613 85 q 526 16 551 31 q 497 -4 500 1 l 497 -3 q 482 -11 493 -7 q 456 -19 471 -15 q 428 -24 442 -22 q 407 -26 415 -26 q 390 -24 396 -26 q 383 -28 386 -31 q 374 -29 379 -26 l 368 -29 q 360 -31 364 -29 q 353 -33 357 -33 q 328 -30 339 -33 q 301 -26 317 -26 q 290 -29 296 -26 q 254 -10 272 -17 q 217 3 236 -4 q 176 24 197 11 q 129 61 154 36 l 129 60 q 107 99 118 82 q 88 131 96 115 q 73 162 79 146 q 65 197 67 178 l 65 206 q 59 231 65 221 q 53 254 53 240 q 53 258 53 257 q 54 260 54 258 q 51 272 50 267 q 49 283 53 276 q 50 293 50 288 q 50 306 50 299 q 49 316 50 311 q 49 326 49 321 l 49 349 q 51 366 49 358 q 53 383 53 374 q 51 390 53 389 l 51 389 q 49 400 49 394 l 49 424 q 44 446 49 439 q 47 454 44 450 q 49 463 49 458 q 47 468 49 464 q 44 475 46 472 l 44 490 q 45 504 44 497 q 49 517 46 511 q 45 563 46 539 q 44 610 44 586 l 44 653 q 50 674 50 658 q 49 679 50 676 q 49 685 49 682 l 49 697 q 50 705 50 700 q 50 714 50 710 l 50 733 q 51 750 50 742 q 63 765 53 758 q 60 772 60 768 q 64 785 60 779 q 68 796 68 792 l 68 804 q 86 865 68 835 q 128 919 104 894 q 178 960 153 943 q 219 983 204 978 q 258 1002 235 994 q 297 1010 282 1010 l 318 1010 q 329 1011 324 1010 q 340 1013 335 1013 q 349 1011 346 1013 l 365 1014 m 446 760 q 438 775 443 765 q 424 793 432 785 q 405 808 415 801 q 383 814 394 814 q 380 813 381 814 q 378 813 379 813 l 365 813 q 363 813 364 813 q 360 814 363 814 q 306 801 319 814 q 286 771 293 788 q 276 756 283 767 q 271 743 269 744 l 271 732 q 266 715 271 724 q 261 697 261 706 q 265 676 261 686 q 261 653 261 660 q 263 629 261 640 q 265 603 265 618 l 264 486 q 262 451 264 467 q 260 421 260 436 q 263 410 260 417 q 265 400 265 403 q 261 381 265 392 q 257 368 257 371 q 260 358 257 361 q 265 351 263 354 q 265 341 265 347 q 264 332 265 335 l 264 325 q 263 310 264 318 q 261 296 261 303 q 286 201 261 238 q 364 165 311 165 q 394 169 385 165 q 409 179 403 172 q 422 197 415 186 q 440 219 428 207 q 449 240 446 225 q 454 271 453 254 q 456 303 456 288 q 457 324 457 318 q 454 336 457 331 q 457 351 457 342 q 455 365 457 360 q 453 381 453 371 q 454 392 453 389 q 453 408 453 397 l 453 447 q 453 456 453 451 q 454 467 453 461 q 453 473 454 469 q 453 479 453 476 l 453 492 q 453 510 453 501 q 454 525 454 518 l 454 556 q 453 567 454 561 q 453 576 453 572 l 453 588 q 456 602 453 597 q 460 614 460 607 q 450 653 456 635 q 457 678 457 663 q 455 695 457 688 q 453 714 453 703 q 454 729 453 726 q 446 760 446 743 m 358 1236 q 375 1206 363 1217 q 392 1179 388 1196 q 411 1153 401 1168 q 428 1122 421 1138 q 441 1094 436 1107 q 446 1078 446 1082 q 426 1063 435 1065 q 413 1060 417 1060 q 404 1061 408 1060 q 396 1063 400 1063 q 381 1060 389 1063 q 368 1058 374 1058 q 310 1077 339 1058 q 253 1124 281 1096 q 202 1187 226 1153 q 157 1253 178 1221 q 167 1267 158 1264 q 183 1269 175 1269 l 206 1269 q 227 1272 217 1269 q 249 1274 238 1274 l 282 1274 q 298 1274 290 1274 q 310 1275 306 1274 q 358 1236 350 1264 m 169 353 q 164 359 163 353 q 158 365 165 365 l 154 350 q 161 347 157 347 l 167 344 q 171 351 171 344 l 169 353 m 461 65 q 454 68 458 68 q 451 54 451 65 l 464 49 q 462 53 463 53 q 461 64 461 54 l 461 65 m 582 306 q 579 306 581 306 q 575 307 578 307 l 567 311 q 559 309 561 311 q 554 307 557 307 l 554 304 l 561 303 q 563 303 563 303 q 567 304 564 304 q 574 300 569 304 l 582 306 m 581 329 q 575 335 581 335 q 568 328 568 335 q 574 324 568 324 q 581 326 578 324 l 581 329 m 288 101 q 276 94 276 101 q 286 89 276 89 q 288 96 288 90 l 288 101 m 531 192 q 518 185 525 192 l 528 182 q 536 190 533 182 l 531 192 m 589 361 q 578 367 583 367 q 588 354 578 354 q 589 358 588 357 l 589 361 m 543 171 q 536 172 543 172 l 533 158 q 544 169 543 158 l 543 171 m 567 267 l 560 272 q 554 261 554 267 q 564 260 558 260 q 567 263 567 260 l 567 267 m 604 453 q 599 463 604 463 q 596 450 596 463 l 601 444 q 604 453 604 450 m 549 265 q 543 271 549 271 q 536 261 536 271 l 543 260 l 549 265 m 556 388 q 546 390 556 390 l 546 379 q 556 388 556 379 m 567 400 q 561 403 564 400 l 560 404 l 550 401 q 564 396 560 396 q 567 397 567 396 l 567 400 m 164 328 q 165 332 165 329 q 160 335 165 335 q 154 328 154 335 q 163 324 158 324 l 164 328 m 476 143 q 471 138 471 143 q 476 131 471 131 q 481 139 481 131 l 476 143 m 194 419 q 188 422 194 422 q 186 417 186 419 q 194 411 186 411 l 194 419 m 190 333 q 188 326 188 333 q 193 325 189 325 q 199 333 199 325 l 190 333 m 393 92 q 383 86 383 92 q 393 81 383 81 l 393 92 m 175 167 q 169 160 169 167 l 172 154 q 179 161 179 154 l 175 167 m 321 101 q 313 93 313 101 q 325 100 325 94 l 321 101 m 418 101 q 410 104 415 104 l 403 97 l 413 94 l 417 97 l 418 101 m 492 254 q 485 258 492 258 q 479 249 479 254 q 492 254 492 249 m 369 97 l 367 106 q 365 106 365 106 q 364 107 365 107 q 360 104 363 107 l 360 94 l 369 97 m 543 365 q 538 371 543 371 q 531 363 531 371 q 543 365 543 363 m 593 421 q 582 415 582 421 q 586 408 582 410 q 590 413 589 411 q 594 418 592 415 l 593 421 m 525 271 q 514 274 522 274 l 514 265 l 522 264 q 525 269 525 264 l 525 271 m 525 342 q 518 347 525 347 l 518 342 q 525 335 518 335 l 525 342 m 278 76 q 268 81 278 81 l 268 71 q 278 76 278 71 m 231 126 q 224 132 231 132 q 221 126 221 126 q 226 122 221 122 l 231 126 m 192 258 q 185 249 185 258 l 190 247 q 194 254 194 249 l 192 258 m 619 393 l 610 400 q 617 388 610 388 l 619 393 m 318 60 l 313 61 q 308 56 308 61 q 315 51 308 51 l 318 60 m 194 279 q 189 282 192 282 q 186 276 186 282 l 186 271 q 194 278 194 271 l 194 279 m 583 397 q 574 393 578 397 l 576 386 q 583 392 583 386 l 583 397 m 328 124 l 322 121 q 321 118 321 118 q 329 114 321 114 q 331 122 331 115 l 328 124 m 119 397 q 115 401 119 401 q 110 396 110 401 q 113 392 113 393 q 115 390 113 390 q 119 397 119 390 m 589 267 q 581 268 588 268 q 576 260 576 264 q 587 261 585 260 q 589 265 589 263 l 589 267 m 572 375 q 567 376 569 376 q 564 374 564 376 q 571 367 564 367 l 572 375 m 524 301 q 517 303 524 303 q 515 299 515 301 q 524 294 515 294 q 525 300 525 296 l 524 301 m 119 285 q 113 294 119 288 l 110 283 q 118 281 113 281 l 119 285 m 615 357 q 606 353 606 357 q 610 346 606 347 l 615 351 l 615 357 m 557 331 q 553 338 557 338 l 546 335 l 546 332 l 557 331 m 406 121 q 397 124 403 124 q 392 117 392 124 l 404 117 l 406 121 m 492 419 q 482 422 492 422 l 482 414 q 492 419 492 414 m 525 129 q 518 132 522 132 q 524 121 518 121 l 525 129 m 185 504 q 179 506 183 506 q 176 497 176 506 q 183 500 183 500 q 185 501 183 500 l 185 504 m 569 196 l 569 188 q 579 196 579 190 l 569 196 m 126 351 q 133 353 129 351 q 136 357 136 354 q 131 361 136 361 q 126 351 126 361 m 492 119 q 479 124 492 124 l 486 117 l 492 119 m 524 228 q 514 219 514 228 q 525 225 525 219 l 524 228 m 174 463 q 171 456 171 457 q 176 451 171 451 l 174 463 m 354 106 q 342 111 347 111 q 339 108 339 111 l 354 106 m 172 275 q 165 278 169 278 q 164 272 164 275 q 163 271 164 271 l 163 268 q 168 271 165 268 q 171 272 169 272 l 172 275 m 151 229 q 149 221 149 226 q 157 226 157 221 l 157 233 l 154 233 q 151 229 153 231 m 147 353 l 143 350 l 143 347 q 149 346 146 346 q 151 351 151 346 l 147 353 m 579 485 l 579 493 q 569 485 569 493 l 579 485 m 517 208 q 519 215 519 211 q 513 218 517 218 q 510 210 510 215 l 517 208 m 365 74 q 361 79 361 74 q 356 69 356 74 q 361 67 361 67 q 365 71 365 67 l 365 74 m 525 424 q 518 429 525 429 l 518 419 l 525 424 m 268 104 q 254 106 267 106 l 261 99 q 268 103 268 99 l 268 104 m 517 251 q 511 253 515 253 q 508 251 508 251 l 507 251 q 510 247 508 250 q 515 242 513 244 l 517 251 m 131 315 q 121 304 125 315 l 124 304 q 128 308 124 308 q 133 314 133 307 l 131 315 m 507 153 q 501 160 501 158 q 500 167 500 161 l 492 158 l 497 153 l 507 153 m 214 394 l 204 401 l 201 399 l 214 394 m 258 92 l 251 100 l 251 82 l 258 92 m 199 368 l 192 358 l 194 356 l 199 368 m 140 503 q 136 508 140 508 q 133 500 133 506 q 139 497 133 497 l 140 503 m 183 432 q 178 438 183 438 q 177 435 178 436 q 176 432 176 433 q 181 426 176 426 l 183 432 m 476 207 q 471 201 471 207 q 473 201 472 201 q 475 200 474 200 q 482 206 482 200 l 476 207 m 179 469 q 172 478 179 478 l 172 471 l 179 469 m 221 249 l 221 251 l 217 254 q 210 249 210 254 l 217 247 l 221 249 m 574 419 q 567 422 571 422 q 561 418 561 422 l 567 413 l 574 419 m 178 179 q 174 183 175 179 q 169 190 174 186 q 171 176 169 178 l 171 178 q 174 172 174 172 q 175 171 174 171 q 179 178 179 175 l 178 179 m 471 171 l 478 178 q 469 181 475 181 q 467 175 467 178 q 469 174 467 174 l 471 171 m 228 269 q 224 272 225 271 q 219 274 222 274 l 219 261 l 228 269 m 543 251 q 533 244 533 251 q 543 249 543 244 l 543 251 m 157 389 l 154 379 q 157 378 156 378 q 161 383 161 378 l 157 389 m 551 421 q 544 425 551 425 l 546 419 l 551 421 m 474 158 l 472 168 q 468 158 468 161 q 471 154 468 154 l 474 158 m 207 156 q 204 160 207 160 l 199 157 l 199 154 l 203 153 l 207 156 m 432 57 q 426 65 432 65 l 424 58 l 432 57 m 533 488 l 522 488 l 532 476 l 533 488 m 525 518 q 514 524 525 524 l 521 517 l 525 518 m 139 329 q 131 324 131 329 l 138 324 l 139 329 m 144 203 l 138 211 l 138 201 l 144 203 m 183 131 q 176 143 183 136 l 176 132 l 183 131 m 239 72 q 235 69 238 69 l 235 67 l 239 65 q 242 66 242 65 q 244 67 242 67 l 244 69 l 239 72 m 210 103 l 203 101 l 203 99 l 207 97 l 210 103 m 554 171 q 549 174 549 174 q 544 168 544 174 l 554 171 m 194 126 l 188 119 l 190 117 l 194 126 m 643 443 l 639 453 l 636 453 l 636 444 l 643 443 m 424 128 q 418 131 418 131 q 415 125 415 131 l 424 128 m 97 486 q 101 489 99 486 q 94 493 101 493 l 93 486 l 97 486 m 358 124 q 349 128 358 128 l 356 121 l 358 124 m 279 124 l 269 121 l 269 122 l 279 124 m 236 190 q 226 192 235 192 l 233 185 l 236 190 m 440 113 l 426 113 q 439 108 426 108 l 440 113 m 544 567 q 540 558 540 567 q 547 561 544 558 l 544 567 m 244 132 l 244 121 l 254 122 l 244 132 m 496 368 l 489 358 l 492 356 l 496 368 m 194 307 q 192 299 192 303 q 194 294 192 294 l 194 307 m 208 235 q 201 229 201 235 l 207 228 l 208 235 m 571 221 l 568 228 l 565 225 l 565 218 l 571 221 m 632 356 l 629 356 l 628 351 l 631 351 l 632 356 m 496 68 q 489 69 494 69 l 490 60 q 496 67 496 63 l 496 68 m 597 156 l 600 156 l 603 160 l 600 164 l 597 164 l 597 156 m 285 119 q 289 117 285 117 l 285 119 m 492 276 q 486 279 492 279 l 485 272 q 492 276 492 272 m 190 174 l 188 183 l 185 183 l 185 175 l 190 174 m 542 417 l 542 404 l 544 404 l 542 417 m 628 436 l 625 426 l 633 426 l 628 436 m 314 32 l 311 32 l 308 28 l 311 28 l 314 32 m 390 118 l 388 118 l 386 114 l 389 114 l 390 118 m 143 250 l 143 263 q 138 254 138 257 l 143 250 m 144 408 l 136 410 l 138 403 l 140 403 l 144 408 m 104 421 l 101 418 l 106 414 l 108 417 l 104 421 m 629 418 q 621 416 622 418 q 619 408 619 414 l 629 418 m 550 363 q 556 351 550 351 l 550 363 m 129 424 q 121 426 126 426 l 122 421 l 129 424 m 151 467 q 146 472 151 472 q 149 465 146 468 l 151 467 m 597 306 l 588 306 l 588 303 l 597 306 m 97 194 l 94 194 l 93 189 l 96 189 l 97 194 m 290 61 l 283 64 q 289 57 283 57 l 290 61 m 94 488 q 90 483 90 488 l 94 488 m 549 292 l 547 301 l 544 301 l 544 293 l 549 292 m 336 131 l 336 133 q 328 129 328 133 l 336 131 m 272 31 q 282 32 281 31 q 283 36 283 33 l 272 31 m 553 558 q 564 564 564 558 l 553 558 m 496 196 l 496 199 l 492 200 l 492 197 l 496 196 m 503 174 l 503 176 q 497 172 497 176 l 503 174 m 481 176 l 481 174 q 490 179 485 174 l 481 176 m 192 154 l 190 160 l 188 160 l 192 154 m 485 86 q 476 92 479 92 l 476 89 l 485 86 m 289 119 l 292 117 q 294 122 294 119 l 292 122 l 289 119 m 501 228 q 506 233 506 228 l 503 233 l 501 228 m 546 124 l 546 121 q 551 125 551 121 l 546 124 m 424 156 l 424 153 q 429 157 429 153 l 424 156 m 306 163 l 303 163 l 301 158 l 304 158 l 306 163 m 507 396 l 507 399 l 503 397 l 503 394 l 507 396 z "}}}
